{
.appVersion = "1352";
classes = (
{
automatic = 1;

glyphs = (
{
color = 3;
glyphname = .notdef;
lastChange = "2021-09-01 22:40:04 +0000";
layers = (
{
layerId = "22FBF237-8195-4580-A019-F135C28A8A87";
paths = (
{
closed = 1;
nodes = (
"438 -5 LINE",
"449 7 LINE",
"449 575 LINE",
"438 587 LINE",
"47 587 LINE",
"35 575 LINE",
"35 7 LINE",
"47 -5 LINE"
);
},
{
closed = 1;
nodes = (
"142 139 LINE",
"225 292 LINE",
"142 443 LINE",
"153 465 LINE",
"236 314 LINE",
"321 466 LINE",
"334 443 LINE",
"248 290 LINE",
"334 139 LINE",
"321 117 LINE",
"236 267 LINE",
"153 117 LINE"
);
},
{
closed = 1;
nodes = (
"61 561 LINE",
"425 561 LINE",
"425 21 LINE",
"61 21 LINE"
);
},
{
closed = 1;
nodes = (
"402 40 LINE",
"402 538 LINE",
"82 538 LINE",
"82 40 LINE"
);
}
);
width = 484;
}
);
note = .notdef;
},
{
color = 3;
glyphname = A;
lastChange = "2021-09-01 22:40:03 +0000";
layers = (
{
hints = (
{
horizontal = 1;
place = "{-2, 19}";
type = Stem;
},
{
horizontal = 1;
place = "{298, 26}";
type = Stem;
},
{
horizontal = 1;
place = "{597, 19}";
type = Stem;
},
{
place = "{1498, 127}";
type = Stem;
}
);
layerId = "22FBF237-8195-4580-A019-F135C28A8A87";
paths = (
{
closed = 1;
nodes = (
"646 295 LINE",
"647 341 OFFCURVE",
"647 386 OFFCURVE",
"647 432 CURVE SMOOTH",
"647 489 OFFCURVE",
"646 546 OFFCURVE",
"645 603 CURVE SMOOTH",
"644 639 OFFCURVE",
"644 676 OFFCURVE",
"640 712 CURVE SMOOTH",
"639 722 OFFCURVE",
"632 795 OFFCURVE",
"620 799 CURVE SMOOTH",
"618 800 OFFCURVE",
"616 800 OFFCURVE",
"615 800 CURVE SMOOTH",
"603 800 OFFCURVE",
"569 779 OFFCURVE",
"569 766 CURVE SMOOTH",
"569 758 OFFCURVE",
"573 746 OFFCURVE",
"574 737 CURVE",
"516 677 OFFCURVE",
"455 619 OFFCURVE",
"400 556 CURVE SMOOTH",
"335 482 OFFCURVE",
"277 401 OFFCURVE",
"221 320 CURVE",
"199 322 OFFCURVE",
"176 322 OFFCURVE",
"154 322 CURVE SMOOTH",
"117 322 OFFCURVE",
"107 321 OFFCURVE",
"93 282 CURVE",
"93 281 OFFCURVE",
"92 280 OFFCURVE",
"92 279 CURVE SMOOTH",
"92 264 OFFCURVE",
"124 265 OFFCURVE",
"133 265 CURVE SMOOTH",
"151 265 OFFCURVE",
"168 267 OFFCURVE",
"185 267 CURVE",
"140 202 OFFCURVE",
"93 137 OFFCURVE",
"56 66 CURVE",
"53 67 OFFCURVE",
"51 67 OFFCURVE",
"48 67 CURVE SMOOTH",
"41 67 OFFCURVE",
"36 66 OFFCURVE",
"33 59 CURVE SMOOTH",
"30 51 OFFCURVE",
"28 43 OFFCURVE",
"23 34 CURVE SMOOTH",
"18 24 OFFCURVE",
"-13 -22 OFFCURVE",
"-13 -29 CURVE SMOOTH",
"-13 -39 OFFCURVE",
"1 -39 OFFCURVE",
"7 -39 CURVE SMOOTH",
"12 -39 OFFCURVE",
"17 -39 OFFCURVE",
"21 -36 CURVE",
"22 -37 OFFCURVE",
"24 -37 OFFCURVE",
"25 -37 CURVE SMOOTH",
"36 -37 OFFCURVE",
"51 -8 OFFCURVE",
"55 0 CURVE SMOOTH",
"93 73 LINE SMOOTH",
"128 141 OFFCURVE",
"176 203 OFFCURVE",
"219 268 CURVE",
"344 267 OFFCURVE",
"470 266 OFFCURVE",
"595 275 CURVE",
"594 179 OFFCURVE",
"575 84 OFFCURVE",
"575 -13 CURVE SMOOTH",
"575 -15 LINE SMOOTH",
"575 -18 OFFCURVE",
"577 -20 OFFCURVE",
"580 -20 CURVE SMOOTH",
"596 -20 OFFCURVE",
"631 14 OFFCURVE",
"633 30 CURVE SMOOTH",
"637 57 OFFCURVE",
"637 85 OFFCURVE",
"639 112 CURVE SMOOTH",
"642 168 OFFCURVE",
"644 223 OFFCURVE",
"645 279 CURVE",
"650 279 OFFCURVE",
"679 282 OFFCURVE",
"679 290 CURVE SMOOTH",
"679 295 OFFCURVE",
"653 295 OFFCURVE",
"651 295 CURVE SMOOTH"
);
},
{
closed = 1;
nodes = (
"597 295 LINE",
"528 296 OFFCURVE",
"459 298 OFFCURVE",
"390 298 CURVE SMOOTH",
"358 298 OFFCURVE",
"326 297 OFFCURVE",
"294 296 CURVE",
"282 305 OFFCURVE",
"266 309 OFFCURVE",
"251 313 CURVE",
"340 442 OFFCURVE",
"466 600 OFFCURVE",
"582 706 CURVE",
"593 589 OFFCURVE",
"597 471 OFFCURVE",
"597 354 CURVE SMOOTH"
);
}
);
width = 699;
}
);
note = A;
unicode = 0041;
},
{
color = 11;
glyphname = Aacute;
lastChange = "2021-09-02 04:37:43 +0000";
layers = (
{
hints = (
{
horizontal = 1;
place = "{-2, 19}";
type = Stem;
},
{
horizontal = 1;
place = "{298, 26}";
type = Stem;
},
{
horizontal = 1;
place = "{597, 19}";
type = Stem;
},
{
place = "{1498, 127}";
type = Stem;
},
{
horizontal = 1;
place = "{833, 20}";
type = Stem;
}
);
layerId = "22FBF237-8195-4580-A019-F135C28A8A87";
paths = (
{
closed = 1;
nodes = (
"646 295 LINE",
"647 341 OFFCURVE",
"647 386 OFFCURVE",
"647 432 CURVE SMOOTH",
"647 489 OFFCURVE",
"646 546 OFFCURVE",
"645 603 CURVE SMOOTH",
"644 639 OFFCURVE",
"644 676 OFFCURVE",
"640 712 CURVE SMOOTH",
"639 722 OFFCURVE",
"632 795 OFFCURVE",
"620 799 CURVE SMOOTH",
"618 800 OFFCURVE",
"616 800 OFFCURVE",
"615 800 CURVE SMOOTH",
"603 800 OFFCURVE",
"569 779 OFFCURVE",
"569 766 CURVE SMOOTH",
"569 758 OFFCURVE",
"573 746 OFFCURVE",
"574 737 CURVE",
"516 677 OFFCURVE",
"455 619 OFFCURVE",
"400 556 CURVE SMOOTH",
"335 482 OFFCURVE",
"277 401 OFFCURVE",
"221 320 CURVE",
"199 322 OFFCURVE",
"176 322 OFFCURVE",
"154 322 CURVE SMOOTH",
"117 322 OFFCURVE",
"107 321 OFFCURVE",
"93 282 CURVE",
"93 281 OFFCURVE",
"92 280 OFFCURVE",
"92 279 CURVE SMOOTH",
"92 264 OFFCURVE",
"124 265 OFFCURVE",
"133 265 CURVE SMOOTH",
"151 265 OFFCURVE",
"168 267 OFFCURVE",
"185 267 CURVE",
"140 202 OFFCURVE",
"93 137 OFFCURVE",
"56 66 CURVE",
"53 67 OFFCURVE",
"51 67 OFFCURVE",
"48 67 CURVE SMOOTH",
"41 67 OFFCURVE",
"36 66 OFFCURVE",
"33 59 CURVE SMOOTH",
"30 51 OFFCURVE",
"28 43 OFFCURVE",
"23 34 CURVE SMOOTH",
"18 24 OFFCURVE",
"-13 -22 OFFCURVE",
"-13 -29 CURVE SMOOTH",
"-13 -39 OFFCURVE",
"1 -39 OFFCURVE",
"7 -39 CURVE SMOOTH",
"12 -39 OFFCURVE",
"17 -39 OFFCURVE",
"21 -36 CURVE",
"22 -37 OFFCURVE",
"24 -37 OFFCURVE",
"25 -37 CURVE SMOOTH",
"36 -37 OFFCURVE",
"51 -8 OFFCURVE",
"55 0 CURVE SMOOTH",
"93 73 LINE SMOOTH",
"132 139 OFFCURVE",
"176 203 OFFCURVE",
"219 268 CURVE",
"344 267 OFFCURVE",
"470 266 OFFCURVE",
"595 275 CURVE",
"594 179 OFFCURVE",
"583 84 OFFCURVE",
"575 -13 CURVE SMOOTH",
"575 -15 LINE SMOOTH",
"575 -18 OFFCURVE",
"577 -20 OFFCURVE",
"580 -20 CURVE SMOOTH",
"596 -20 OFFCURVE",
"631 14 OFFCURVE",
"633 30 CURVE SMOOTH",
"637 57 OFFCURVE",
"637 85 OFFCURVE",
"639 112 CURVE SMOOTH",
"642 168 OFFCURVE",
"644 223 OFFCURVE",
"645 279 CURVE",
"650 279 OFFCURVE",
"679 282 OFFCURVE",
"679 290 CURVE SMOOTH",
"679 295 OFFCURVE",
"653 295 OFFCURVE",
"651 295 CURVE SMOOTH"
);
},
{
closed = 1;
nodes = (
"597 295 LINE",
"528 296 OFFCURVE",
"459 298 OFFCURVE",
"390 298 CURVE SMOOTH",
"358 298 OFFCURVE",
"326 297 OFFCURVE",
"294 296 CURVE",
"282 305 OFFCURVE",
"266 309 OFFCURVE",
"251 313 CURVE",
"340 442 OFFCURVE",
"466 600 OFFCURVE",
"582 706 CURVE",
"593 589 OFFCURVE",
"597 471 OFFCURVE",
"597 354 CURVE SMOOTH"
);
},
{
closed = 1;
nodes = (
"738 948 OFFCURVE",
"720 959 OFFCURVE",
"708 959 CURVE SMOOTH",
"697 959 OFFCURVE",
"686 955 OFFCURVE",
"681 943 CURVE SMOOTH",
"663 898 OFFCURVE",
"630 882 OFFCURVE",
"594 854 CURVE SMOOTH",
"590 851 OFFCURVE",
"580 841 OFFCURVE",
"580 835 CURVE SMOOTH",
"580 834 OFFCURVE",
"581 833 OFFCURVE",
"582 833 CURVE SMOOTH",
"596 833 OFFCURVE",
"673 886 OFFCURVE",
"691 897 CURVE SMOOTH",
"703 904 OFFCURVE",
"738 918 OFFCURVE",
"738 935 CURVE SMOOTH"
);
}
);
width = 699;
}
);
note = Aacute;
unicode = 00C1;
},
{
color = 11;
glyphname = Acircumflex;
lastChange = "2021-09-02 04:37:43 +0000";
layers = (
{
hints = (
{
horizontal = 1;
place = "{-2, 19}";
type = Stem;
},
{
horizontal = 1;
place = "{298, 26}";
type = Stem;
},
{
horizontal = 1;
place = "{597, 19}";
type = Stem;
},
{
place = "{1498, 127}";
type = Stem;
}
);
layerId = "22FBF237-8195-4580-A019-F135C28A8A87";
paths = (
{
closed = 1;
nodes = (
"646 295 LINE",
"647 341 OFFCURVE",
"647 386 OFFCURVE",
"647 432 CURVE SMOOTH",
"647 489 OFFCURVE",
"646 546 OFFCURVE",
"645 603 CURVE SMOOTH",
"644 639 OFFCURVE",
"644 676 OFFCURVE",
"640 712 CURVE SMOOTH",
"639 722 OFFCURVE",
"632 795 OFFCURVE",
"620 799 CURVE SMOOTH",
"618 800 OFFCURVE",
"616 800 OFFCURVE",
"615 800 CURVE SMOOTH",
"603 800 OFFCURVE",
"569 779 OFFCURVE",
"569 766 CURVE SMOOTH",
"569 758 OFFCURVE",
"573 746 OFFCURVE",
"574 737 CURVE",
"516 677 OFFCURVE",
"455 619 OFFCURVE",
"400 556 CURVE SMOOTH",
"335 482 OFFCURVE",
"277 401 OFFCURVE",
"221 320 CURVE",
"199 322 OFFCURVE",
"176 322 OFFCURVE",
"154 322 CURVE SMOOTH",
"117 322 OFFCURVE",
"107 321 OFFCURVE",
"93 282 CURVE",
"93 281 OFFCURVE",
"92 280 OFFCURVE",
"92 279 CURVE SMOOTH",
"92 264 OFFCURVE",
"124 265 OFFCURVE",
"133 265 CURVE SMOOTH",
"151 265 OFFCURVE",
"168 267 OFFCURVE",
"185 267 CURVE",
"140 202 OFFCURVE",
"93 137 OFFCURVE",
"56 66 CURVE",
"53 67 OFFCURVE",
"51 67 OFFCURVE",
"48 67 CURVE SMOOTH",
"41 67 OFFCURVE",
"36 66 OFFCURVE",
"33 59 CURVE SMOOTH",
"30 51 OFFCURVE",
"28 43 OFFCURVE",
"23 34 CURVE SMOOTH",
"18 24 OFFCURVE",
"-13 -22 OFFCURVE",
"-13 -29 CURVE SMOOTH",
"-13 -39 OFFCURVE",
"1 -39 OFFCURVE",
"7 -39 CURVE SMOOTH",
"12 -39 OFFCURVE",
"17 -39 OFFCURVE",
"21 -36 CURVE",
"22 -37 OFFCURVE",
"24 -37 OFFCURVE",
"25 -37 CURVE SMOOTH",
"36 -37 OFFCURVE",
"51 -8 OFFCURVE",
"55 0 CURVE SMOOTH",
"93 73 LINE SMOOTH",
"132 139 OFFCURVE",
"176 203 OFFCURVE",
"219 268 CURVE",
"344 267 OFFCURVE",
"470 266 OFFCURVE",
"595 275 CURVE",
"594 179 OFFCURVE",
"583 84 OFFCURVE",
"575 -13 CURVE SMOOTH",
"575 -15 LINE SMOOTH",
"575 -18 OFFCURVE",
"577 -20 OFFCURVE",
"580 -20 CURVE SMOOTH",
"596 -20 OFFCURVE",
"631 14 OFFCURVE",
"633 30 CURVE SMOOTH",
"637 57 OFFCURVE",
"637 85 OFFCURVE",
"639 112 CURVE SMOOTH",
"642 168 OFFCURVE",
"644 223 OFFCURVE",
"645 279 CURVE",
"650 279 OFFCURVE",
"679 282 OFFCURVE",
"679 290 CURVE SMOOTH",
"679 295 OFFCURVE",
"653 295 OFFCURVE",
"651 295 CURVE SMOOTH"
);
},
{
closed = 1;
nodes = (
"597 295 LINE",
"528 296 OFFCURVE",
"459 298 OFFCURVE",
"390 298 CURVE SMOOTH",
"358 298 OFFCURVE",
"326 297 OFFCURVE",
"294 296 CURVE",
"282 305 OFFCURVE",
"266 309 OFFCURVE",
"251 313 CURVE",
"340 442 OFFCURVE",
"466 600 OFFCURVE",
"582 706 CURVE",
"593 589 OFFCURVE",
"597 471 OFFCURVE",
"597 354 CURVE SMOOTH"
);
},
{
closed = 1;
nodes = (
"762 825 LINE",
"758 835 LINE",
"717 868 OFFCURVE",
"676 902 OFFCURVE",
"642 943 CURVE",
"636 945 LINE",
"617 941 OFFCURVE",
"491 845 OFFCURVE",
"491 832 CURVE SMOOTH",
"491 829 OFFCURVE",
"493 822 OFFCURVE",
"497 822 CURVE SMOOTH",
"508 822 OFFCURVE",
"604 894 OFFCURVE",
"619 906 CURVE",
"639 882 OFFCURVE",
"727 820 OFFCURVE",
"757 818 CURVE"
);
}
);
width = 699;
}
);
note = Acircumflex;
unicode = 00C2;
},
{
color = 11;
glyphname = Adieresis;
lastChange = "2021-09-02 04:37:43 +0000";
layers = (
{
hints = (
{
horizontal = 1;
place = "{-2, 19}";
type = Stem;
},
{
horizontal = 1;
place = "{298, 26}";
type = Stem;
},
{
horizontal = 1;
place = "{597, 19}";
type = Stem;
},
{
place = "{1498, 127}";
type = Stem;
},
{
horizontal = 1;
place = "{850, 20}";
type = Stem;
}
);
layerId = "22FBF237-8195-4580-A019-F135C28A8A87";
paths = (
{
closed = 1;
nodes = (
"646 295 LINE",
"647 341 OFFCURVE",
"647 386 OFFCURVE",
"647 432 CURVE SMOOTH",
"647 489 OFFCURVE",
"646 546 OFFCURVE",
"645 603 CURVE SMOOTH",
"644 639 OFFCURVE",
"644 676 OFFCURVE",
"640 712 CURVE SMOOTH",
"639 722 OFFCURVE",
"632 795 OFFCURVE",
"620 799 CURVE SMOOTH",
"618 800 OFFCURVE",
"616 800 OFFCURVE",
"615 800 CURVE SMOOTH",
"603 800 OFFCURVE",
"569 779 OFFCURVE",
"569 766 CURVE SMOOTH",
"569 758 OFFCURVE",
"573 746 OFFCURVE",
"574 737 CURVE",
"516 677 OFFCURVE",
"455 619 OFFCURVE",
"400 556 CURVE SMOOTH",
"335 482 OFFCURVE",
"277 401 OFFCURVE",
"221 320 CURVE",
"199 322 OFFCURVE",
"176 322 OFFCURVE",
"154 322 CURVE SMOOTH",
"117 322 OFFCURVE",
"107 321 OFFCURVE",
"93 282 CURVE",
"93 281 OFFCURVE",
"92 280 OFFCURVE",
"92 279 CURVE SMOOTH",
"92 264 OFFCURVE",
"124 265 OFFCURVE",
"133 265 CURVE SMOOTH",
"151 265 OFFCURVE",
"168 267 OFFCURVE",
"185 267 CURVE",
"140 202 OFFCURVE",
"93 137 OFFCURVE",
"56 66 CURVE",
"53 67 OFFCURVE",
"51 67 OFFCURVE",
"48 67 CURVE SMOOTH",
"41 67 OFFCURVE",
"36 66 OFFCURVE",
"33 59 CURVE SMOOTH",
"30 51 OFFCURVE",
"28 43 OFFCURVE",
"23 34 CURVE SMOOTH",
"18 24 OFFCURVE",
"-13 -22 OFFCURVE",
"-13 -29 CURVE SMOOTH",
"-13 -39 OFFCURVE",
"1 -39 OFFCURVE",
"7 -39 CURVE SMOOTH",
"12 -39 OFFCURVE",
"17 -39 OFFCURVE",
"21 -36 CURVE",
"22 -37 OFFCURVE",
"24 -37 OFFCURVE",
"25 -37 CURVE SMOOTH",
"36 -37 OFFCURVE",
"51 -8 OFFCURVE",
"55 0 CURVE SMOOTH",
"93 73 LINE SMOOTH",
"132 139 OFFCURVE",
"176 203 OFFCURVE",
"219 268 CURVE",
"344 267 OFFCURVE",
"470 266 OFFCURVE",
"595 275 CURVE",
"594 179 OFFCURVE",
"583 84 OFFCURVE",
"575 -13 CURVE SMOOTH",
"575 -15 LINE SMOOTH",
"575 -18 OFFCURVE",
"577 -20 OFFCURVE",
"580 -20 CURVE SMOOTH",
"596 -20 OFFCURVE",
"631 14 OFFCURVE",
"633 30 CURVE SMOOTH",
"637 57 OFFCURVE",
"637 85 OFFCURVE",
"639 112 CURVE SMOOTH",
"642 168 OFFCURVE",
"644 223 OFFCURVE",
"645 279 CURVE",
"650 279 OFFCURVE",
"679 282 OFFCURVE",
"679 290 CURVE SMOOTH",
"679 295 OFFCURVE",
"653 295 OFFCURVE",
"651 295 CURVE SMOOTH"
);
},
{
closed = 1;
nodes = (
"597 295 LINE",
"528 296 OFFCURVE",
"459 298 OFFCURVE",
"390 298 CURVE SMOOTH",
"358 298 OFFCURVE",
"326 297 OFFCURVE",
"294 296 CURVE",
"282 305 OFFCURVE",
"266 309 OFFCURVE",
"251 313 CURVE",
"340 442 OFFCURVE",
"466 600 OFFCURVE",
"582 706 CURVE",
"593 589 OFFCURVE",
"597 471 OFFCURVE",
"597 354 CURVE SMOOTH"
);
},
{
closed = 1;
nodes = (
"750 935 LINE",
"747 936 LINE",
"736 936 OFFCURVE",
"696 914 OFFCURVE",
"688 906 CURVE",
"680 903 OFFCURVE",
"670 890 OFFCURVE",
"670 881 CURVE SMOOTH",
"670 872 OFFCURVE",
"680 850 OFFCURVE",
"691 850 CURVE SMOOTH",
"717 850 OFFCURVE",
"723 899 OFFCURVE",
"735 916 CURVE SMOOTH",
"737 919 OFFCURVE",
"750 932 OFFCURVE",
"750 934 CURVE SMOOTH"
);
},
{
closed = 1;
nodes = (
"616 935 LINE",
"613 936 LINE",
"602 936 OFFCURVE",
"562 914 OFFCURVE",
"554 906 CURVE",
"546 903 OFFCURVE",
"536 890 OFFCURVE",
"536 881 CURVE SMOOTH",
"536 872 OFFCURVE",
"546 850 OFFCURVE",
"557 850 CURVE SMOOTH",
"583 850 OFFCURVE",
"589 899 OFFCURVE",
"601 916 CURVE SMOOTH",
"603 919 OFFCURVE",
"616 932 OFFCURVE",
"616 934 CURVE SMOOTH"
);
}
);
width = 699;
}
);
note = Adieresis;
unicode = 00C4;
},
{
color = 11;
glyphname = Agrave;
lastChange = "2021-09-02 04:37:43 +0000";
layers = (
{
hints = (
{
horizontal = 1;
place = "{-20, 21}";
target = up;
type = BottomGhost;
},
{
horizontal = 1;
place = "{271, 26}";
type = Stem;
},
{
place = "{597, 50}";
type = Stem;
},
{
horizontal = 1;
place = "{279, 16}";
type = Stem;
},
{
horizontal = 1;
place = "{265, 57}";
type = Stem;
},
{
place = "{595, 47}";
type = Stem;
}
);
layerId = "22FBF237-8195-4580-A019-F135C28A8A87";
paths = (
{
closed = 1;
nodes = (
"646 295 LINE",
"647 341 OFFCURVE",
"647 386 OFFCURVE",
"647 432 CURVE SMOOTH",
"647 489 OFFCURVE",
"646 546 OFFCURVE",
"645 603 CURVE SMOOTH",
"644 639 OFFCURVE",
"644 676 OFFCURVE",
"640 712 CURVE SMOOTH",
"639 722 OFFCURVE",
"632 795 OFFCURVE",
"620 799 CURVE SMOOTH",
"618 800 OFFCURVE",
"616 800 OFFCURVE",
"615 800 CURVE SMOOTH",
"603 800 OFFCURVE",
"569 779 OFFCURVE",
"569 766 CURVE SMOOTH",
"569 758 OFFCURVE",
"573 746 OFFCURVE",
"574 737 CURVE",
"516 677 OFFCURVE",
"455 619 OFFCURVE",
"400 556 CURVE SMOOTH",
"335 482 OFFCURVE",
"277 401 OFFCURVE",
"221 320 CURVE",
"199 322 OFFCURVE",
"176 322 OFFCURVE",
"154 322 CURVE SMOOTH",
"117 322 OFFCURVE",
"107 321 OFFCURVE",
"93 282 CURVE",
"93 281 OFFCURVE",
"92 280 OFFCURVE",
"92 279 CURVE SMOOTH",
"92 264 OFFCURVE",
"124 265 OFFCURVE",
"133 265 CURVE SMOOTH",
"151 265 OFFCURVE",
"168 267 OFFCURVE",
"185 267 CURVE",
"140 202 OFFCURVE",
"93 137 OFFCURVE",
"56 66 CURVE",
"53 67 OFFCURVE",
"51 67 OFFCURVE",
"48 67 CURVE SMOOTH",
"41 67 OFFCURVE",
"36 66 OFFCURVE",
"33 59 CURVE SMOOTH",
"30 51 OFFCURVE",
"28 43 OFFCURVE",
"23 34 CURVE SMOOTH",
"18 24 OFFCURVE",
"-13 -22 OFFCURVE",
"-13 -29 CURVE SMOOTH",
"-13 -39 OFFCURVE",
"1 -39 OFFCURVE",
"7 -39 CURVE SMOOTH",
"12 -39 OFFCURVE",
"17 -39 OFFCURVE",
"21 -36 CURVE",
"22 -37 OFFCURVE",
"24 -37 OFFCURVE",
"25 -37 CURVE SMOOTH",
"36 -37 OFFCURVE",
"51 -8 OFFCURVE",
"55 0 CURVE SMOOTH",
"93 73 LINE SMOOTH",
"132 139 OFFCURVE",
"176 203 OFFCURVE",
"219 268 CURVE",
"344 267 OFFCURVE",
"470 266 OFFCURVE",
"595 275 CURVE",
"594 179 OFFCURVE",
"583 84 OFFCURVE",
"575 -13 CURVE SMOOTH",
"575 -15 LINE SMOOTH",
"575 -18 OFFCURVE",
"577 -20 OFFCURVE",
"580 -20 CURVE SMOOTH",
"596 -20 OFFCURVE",
"631 14 OFFCURVE",
"633 30 CURVE SMOOTH",
"637 57 OFFCURVE",
"637 85 OFFCURVE",
"639 112 CURVE SMOOTH",
"642 168 OFFCURVE",
"644 223 OFFCURVE",
"645 279 CURVE",
"650 279 OFFCURVE",
"679 282 OFFCURVE",
"679 290 CURVE SMOOTH",
"679 295 OFFCURVE",
"653 295 OFFCURVE",
"651 295 CURVE SMOOTH"
);
},
{
closed = 1;
nodes = (
"597 295 LINE",
"528 296 OFFCURVE",
"459 298 OFFCURVE",
"390 298 CURVE SMOOTH",
"358 298 OFFCURVE",
"326 297 OFFCURVE",
"294 296 CURVE",
"282 305 OFFCURVE",
"266 309 OFFCURVE",
"252 313 CURVE",
"340 442 OFFCURVE",
"466 600 OFFCURVE",
"582 706 CURVE",
"593 589 OFFCURVE",
"597 471 OFFCURVE",
"597 354 CURVE SMOOTH"
);
},
{
closed = 1;
nodes = (
"700 852 OFFCURVE",
"607 922 OFFCURVE",
"589 938 CURVE SMOOTH",
"576 949 OFFCURVE",
"563 958 OFFCURVE",
"545 958 CURVE SMOOTH",
"536 958 OFFCURVE",
"520 954 OFFCURVE",
"520 942 CURVE SMOOTH",
"520 925 OFFCURVE",
"538 915 OFFCURVE",
"551 908 CURVE SMOOTH",
"566 899 OFFCURVE",
"689 828 OFFCURVE",
"693 828 CURVE SMOOTH",
"697 828 OFFCURVE",
"700 832 OFFCURVE",
"700 835 CURVE SMOOTH"
);
}
);
width = 657;
}
);
note = Agrave;
unicode = 00C0;
},
{
color = 11;
glyphname = Atilde;
lastChange = "2021-09-02 04:37:43 +0000";
layers = (
{
hints = (
{
horizontal = 1;
place = "{765, 33}";
type = Stem;
},
{
horizontal = 1;
place = "{812, 29}";
type = Stem;
}
);
layerId = "22FBF237-8195-4580-A019-F135C28A8A87";
paths = (
{
closed = 1;
nodes = (
"646 295 LINE",
"647 341 OFFCURVE",
"647 386 OFFCURVE",
"647 432 CURVE SMOOTH",
"647 489 OFFCURVE",
"646 546 OFFCURVE",
"645 603 CURVE SMOOTH",
"644 639 OFFCURVE",
"644 676 OFFCURVE",
"640 712 CURVE SMOOTH",
"639 722 OFFCURVE",
"632 795 OFFCURVE",
"620 799 CURVE SMOOTH",
"618 800 OFFCURVE",
"616 800 OFFCURVE",
"615 800 CURVE SMOOTH",
"603 800 OFFCURVE",
"569 779 OFFCURVE",
"569 766 CURVE SMOOTH",
"569 758 OFFCURVE",
"573 746 OFFCURVE",
"574 737 CURVE",
"516 677 OFFCURVE",
"455 619 OFFCURVE",
"400 556 CURVE SMOOTH",
"335 482 OFFCURVE",
"277 401 OFFCURVE",
"221 320 CURVE",
"199 322 OFFCURVE",
"176 322 OFFCURVE",
"154 322 CURVE SMOOTH",
"117 322 OFFCURVE",
"107 321 OFFCURVE",
"93 282 CURVE",
"93 281 OFFCURVE",
"92 280 OFFCURVE",
"92 279 CURVE SMOOTH",
"92 264 OFFCURVE",
"124 265 OFFCURVE",
"133 265 CURVE SMOOTH",
"151 265 OFFCURVE",
"168 267 OFFCURVE",
"185 267 CURVE",
"140 202 OFFCURVE",
"93 137 OFFCURVE",
"56 66 CURVE",
"53 67 OFFCURVE",
"51 67 OFFCURVE",
"48 67 CURVE SMOOTH",
"41 67 OFFCURVE",
"36 66 OFFCURVE",
"33 59 CURVE SMOOTH",
"30 51 OFFCURVE",
"28 43 OFFCURVE",
"23 34 CURVE SMOOTH",
"18 24 OFFCURVE",
"-13 -22 OFFCURVE",
"-13 -29 CURVE SMOOTH",
"-13 -39 OFFCURVE",
"1 -39 OFFCURVE",
"7 -39 CURVE SMOOTH",
"12 -39 OFFCURVE",
"17 -39 OFFCURVE",
"21 -36 CURVE",
"22 -37 OFFCURVE",
"24 -37 OFFCURVE",
"25 -37 CURVE SMOOTH",
"36 -37 OFFCURVE",
"51 -8 OFFCURVE",
"55 0 CURVE SMOOTH",
"93 73 LINE SMOOTH",
"132 139 OFFCURVE",
"176 203 OFFCURVE",
"219 268 CURVE",
"344 267 OFFCURVE",
"470 266 OFFCURVE",
"595 275 CURVE",
"594 179 OFFCURVE",
"583 84 OFFCURVE",
"575 -13 CURVE SMOOTH",
"575 -15 LINE SMOOTH",
"575 -18 OFFCURVE",
"577 -20 OFFCURVE",
"580 -20 CURVE SMOOTH",
"596 -20 OFFCURVE",
"631 14 OFFCURVE",
"633 30 CURVE SMOOTH",
"637 57 OFFCURVE",
"637 85 OFFCURVE",
"639 112 CURVE SMOOTH",
"642 168 OFFCURVE",
"644 223 OFFCURVE",
"645 279 CURVE",
"650 279 OFFCURVE",
"679 282 OFFCURVE",
"679 290 CURVE SMOOTH",
"679 295 OFFCURVE",
"653 295 OFFCURVE",
"651 295 CURVE SMOOTH"
);
},
{
closed = 1;
nodes = (
"597 295 LINE",
"528 296 OFFCURVE",
"459 298 OFFCURVE",
"390 298 CURVE SMOOTH",
"358 298 OFFCURVE",
"326 297 OFFCURVE",
"294 296 CURVE",
"282 305 OFFCURVE",
"266 309 OFFCURVE",
"252 313 CURVE",
"340 442 OFFCURVE",
"466 600 OFFCURVE",
"582 706 CURVE",
"593 589 OFFCURVE",
"597 471 OFFCURVE",
"597 354 CURVE SMOOTH"
);
},
{
closed = 1;
nodes = (
"724 889 LINE",
"712 888 OFFCURVE",
"699 869 OFFCURVE",
"676 869 CURVE SMOOTH",
"626 869 OFFCURVE",
"600 912 OFFCURVE",
"564 912 CURVE SMOOTH",
"551 912 OFFCURVE",
"504 876 OFFCURVE",
"501 863 CURVE",
"504 858 LINE",
"515 860 OFFCURVE",
"530 883 OFFCURVE",
"554 883 CURVE SMOOTH",
"595 883 OFFCURVE",
"620 836 OFFCURVE",
"664 836 CURVE SMOOTH",
"677 836 OFFCURVE",
"723 875 OFFCURVE",
"726 888 CURVE"
);
}
);
width = 657;
}
);
note = Atilde;
unicode = 00C3;
},
{
color = 3;
glyphname = AE;
lastChange = "2021-09-01 22:40:03 +0000";
layers = (
{
hints = (
{
horizontal = 1;
place = "{375, 20}";
type = Stem;
},
{
place = "{-32, 71}";
type = Stem;
},
{
place = "{88, 72}";
type = Stem;
},
{
horizontal = 1;
place = "{-2, 19}";
type = Stem;
},
{
horizontal = 1;
place = "{298, 26}";
type = Stem;
},
{
horizontal = 1;
place = "{597, 19}";
type = Stem;
},
{
place = "{1498, 127}";
type = Stem;
},
{
horizontal = 1;
place = "{-7, 23}";
type = Stem;
},
{
horizontal = 1;
place = "{601, -20}";
target = down;
type = TopGhost;
}
);
layerId = "22FBF237-8195-4580-A019-F135C28A8A87";
paths = (
{
closed = 1;
nodes = (
"1051 40 OFFCURVE",
"1000 26 OFFCURVE",
"968 21 CURVE SMOOTH",
"908 13 OFFCURVE",
"848 9 OFFCURVE",
"787 7 CURVE SMOOTH",
"777 6 OFFCURVE",
"766 6 OFFCURVE",
"755 6 CURVE SMOOTH",
"729 6 OFFCURVE",
"646 7 OFFCURVE",
"634 37 CURVE SMOOTH",
"628 52 OFFCURVE",
"627 69 OFFCURVE",
"627 85 CURVE SMOOTH",
"627 95 OFFCURVE",
"627 105 OFFCURVE",
"628 114 CURVE",
"639 162 OFFCURVE",
"651 222 OFFCURVE",
"663 282 CURVE",
"728 283 LINE SMOOTH",
"785 284 OFFCURVE",
"844 285 OFFCURVE",
"901 289 CURVE SMOOTH",
"910 290 OFFCURVE",
"978 294 OFFCURVE",
"978 305 CURVE SMOOTH",
"978 324 OFFCURVE",
"849 321 OFFCURVE",
"830 321 CURVE SMOOTH",
"761 321 LINE SMOOTH",
"736 321 OFFCURVE",
"701 319 OFFCURVE",
"676 325 CURVE SMOOTH",
"675 325 OFFCURVE",
"673 325 OFFCURVE",
"672 327 CURVE",
"687 410 LINE SMOOTH",
"701 484 OFFCURVE",
"744 705 OFFCURVE",
"755 713 CURVE SMOOTH",
"766 720 OFFCURVE",
"807 720 OFFCURVE",
"821 720 CURVE SMOOTH",
"869 720 OFFCURVE",
"917 716 OFFCURVE",
"964 712 CURVE SMOOTH",
"976 712 OFFCURVE",
"988 710 OFFCURVE",
"999 710 CURVE SMOOTH",
"1004 710 OFFCURVE",
"1009 710 OFFCURVE",
"1013 712 CURVE",
"1006 689 OFFCURVE",
"996 625 OFFCURVE",
"996 601 CURVE SMOOTH",
"996 595 OFFCURVE",
"998 581 OFFCURVE",
"1005 581 CURVE SMOOTH",
"1012 581 OFFCURVE",
"1015 595 OFFCURVE",
"1016 600 CURVE SMOOTH",
"1027 642 OFFCURVE",
"1031 694 OFFCURVE",
"1071 720 CURVE SMOOTH",
"1075 723 OFFCURVE",
"1078 724 OFFCURVE",
"1078 730 CURVE SMOOTH",
"1078 742 OFFCURVE",
"1054 758 OFFCURVE",
"1043 758 CURVE SMOOTH",
"1030 758 OFFCURVE",
"1033 738 OFFCURVE",
"999 738 CURVE SMOOTH",
"992 738 LINE SMOOTH",
"944 738 OFFCURVE",
"724 753 OFFCURVE",
"699 752 CURVE",
"589 691 OFFCURVE",
"322 467 OFFCURVE",
"221 320 CURVE",
"199 322 OFFCURVE",
"176 322 OFFCURVE",
"154 322 CURVE SMOOTH",
"117 322 OFFCURVE",
"107 321 OFFCURVE",
"93 282 CURVE",
"93 281 OFFCURVE",
"92 280 OFFCURVE",
"92 279 CURVE SMOOTH",
"92 264 OFFCURVE",
"124 265 OFFCURVE",
"133 265 CURVE SMOOTH",
"151 265 OFFCURVE",
"168 267 OFFCURVE",
"185 267 CURVE",
"140 202 OFFCURVE",
"93 137 OFFCURVE",
"56 66 CURVE",
"53 67 OFFCURVE",
"51 67 OFFCURVE",
"48 67 CURVE SMOOTH",
"41 67 OFFCURVE",
"36 66 OFFCURVE",
"33 59 CURVE SMOOTH",
"30 51 OFFCURVE",
"28 43 OFFCURVE",
"23 34 CURVE SMOOTH",
"18 24 OFFCURVE",
"-13 -22 OFFCURVE",
"-13 -29 CURVE SMOOTH",
"-13 -39 OFFCURVE",
"1 -39 OFFCURVE",
"7 -39 CURVE SMOOTH",
"12 -39 OFFCURVE",
"17 -39 OFFCURVE",
"21 -36 CURVE",
"22 -37 OFFCURVE",
"24 -37 OFFCURVE",
"25 -37 CURVE SMOOTH",
"36 -37 OFFCURVE",
"51 -8 OFFCURVE",
"55 0 CURVE SMOOTH",
"93 73 LINE SMOOTH",
"128 141 OFFCURVE",
"176 203 OFFCURVE",
"219 268 CURVE",
"340 267 OFFCURVE",
"475 257 OFFCURVE",
"597 264 CURVE",
"585 217 LINE SMOOTH",
"571 162 OFFCURVE",
"557 103 OFFCURVE",
"557 46 CURVE SMOOTH",
"557 33 OFFCURVE",
"558 19 OFFCURVE",
"561 7 CURVE SMOOTH",
"568 -17 OFFCURVE",
"790 -22 OFFCURVE",
"821 -22 CURVE SMOOTH",
"854 -22 LINE SMOOTH",
"918 -22 OFFCURVE",
"1022 -10 OFFCURVE",
"1079 24 CURVE SMOOTH",
"1082 26 OFFCURVE",
"1093 33 OFFCURVE",
"1093 38 CURVE SMOOTH",
"1093 40 OFFCURVE",
"1082 40 OFFCURVE",
"1080 40 CURVE SMOOTH"
);
},
{
closed = 1;
nodes = (
"358 298 OFFCURVE",
"326 297 OFFCURVE",
"294 296 CURVE",
"282 305 OFFCURVE",
"266 309 OFFCURVE",
"251 313 CURVE",
"326 422 OFFCURVE",
"565 638 OFFCURVE",
"672 696 CURVE",
"667 630 OFFCURVE",
"660 563 OFFCURVE",
"651 496 CURVE",
"642 453 OFFCURVE",
"633 409 OFFCURVE",
"623 366 CURVE SMOOTH",
"622 363 OFFCURVE",
"615 331 OFFCURVE",
"614 330 CURVE",
"603 285 LINE",
"536 287 OFFCURVE",
"455 298 OFFCURVE",
"390 298 CURVE SMOOTH"
);
}
);
width = 1118;
}
);
note = AE;
unicode = 00C6;
},
{
color = 3;
glyphname = B;
lastChange = "2021-09-01 22:40:03 +0000";
layers = (
{
hints = (
{
horizontal = 1;
place = "{669, -20}";
target = down;
type = TopGhost;
}
);
layerId = "22FBF237-8195-4580-A019-F135C28A8A87";
paths = (
{
closed = 1;
nodes = (
"399 -43 OFFCURVE",
"565 -23 OFFCURVE",
"651 68 CURVE SMOOTH",
"674 91 OFFCURVE",
"692 120 OFFCURVE",
"692 153 CURVE SMOOTH",
"692 246 OFFCURVE",
"566 295 OFFCURVE",
"493 311 CURVE SMOOTH",
"446 322 OFFCURVE",
"399 326 OFFCURVE",
"351 326 CURVE",
"446 346 OFFCURVE",
"637 404 OFFCURVE",
"637 529 CURVE SMOOTH",
"637 657 OFFCURVE",
"443 731 OFFCURVE",
"344 756 CURVE",
"349 762 OFFCURVE",
"380 798 OFFCURVE",
"380 803 CURVE SMOOTH",
"380 809 OFFCURVE",
"364 809 OFFCURVE",
"361 809 CURVE SMOOTH",
"346 809 OFFCURVE",
"331 807 OFFCURVE",
"317 804 CURVE",
"282 760 OFFCURVE",
"256 706 OFFCURVE",
"232 656 CURVE SMOOTH",
"153 491 OFFCURVE",
"39 186 OFFCURVE",
"39 5 CURVE SMOOTH",
"39 -8 OFFCURVE",
"42 -70 OFFCURVE",
"61 -70 CURVE SMOOTH",
"67 -70 OFFCURVE",
"68 -58 OFFCURVE",
"68 -54 CURVE SMOOTH",
"68 -46 OFFCURVE",
"66 -37 OFFCURVE",
"66 -28 CURVE SMOOTH",
"66 56 OFFCURVE",
"109 204 OFFCURVE",
"137 287 CURVE",
"189 298 OFFCURVE",
"242 304 OFFCURVE",
"296 304 CURVE SMOOTH",
"342 304 OFFCURVE",
"389 300 OFFCURVE",
"434 290 CURVE SMOOTH",
"502 275 OFFCURVE",
"633 229 OFFCURVE",
"633 142 CURVE SMOOTH",
"633 102 OFFCURVE",
"603 70 OFFCURVE",
"573 47 CURVE SMOOTH",
"501 -8 OFFCURVE",
"336 -20 OFFCURVE",
"248 -20 CURVE SMOOTH",
"214 -20 OFFCURVE",
"180 -18 OFFCURVE",
"146 -15 CURVE SMOOTH",
"140 -15 OFFCURVE",
"134 -14 OFFCURVE",
"127 -14 CURVE SMOOTH",
"126 -14 OFFCURVE",
"99 -14 OFFCURVE",
"99 -21 CURVE SMOOTH",
"99 -29 OFFCURVE",
"133 -33 OFFCURVE",
"135 -34 CURVE",
"182 -41 OFFCURVE",
"232 -43 OFFCURVE",
"280 -43 CURVE SMOOTH"
);
},
{
closed = 1;
nodes = (
"587 375 OFFCURVE",
"260 320 OFFCURVE",
"153 320 CURVE SMOOTH",
"152 320 OFFCURVE",
"153 321 OFFCURVE",
"153 322 CURVE",
"155 327 LINE",
"162 347 LINE",
"180 393 LINE",
"233 526 LINE SMOOTH",
"259 590 OFFCURVE",
"289 653 OFFCURVE",
"320 714 CURVE",
"404 693 OFFCURVE",
"587 627 OFFCURVE",
"587 517 CURVE SMOOTH"
);
}
);
width = 733;
}
);
note = B;
unicode = 0042;
},
{
color = 3;
glyphname = C;
lastChange = "2021-09-01 22:40:03 +0000";
layers = (
{
hints = (
{
horizontal = 1;
place = "{-26, 16}";
type = Stem;
},
{
horizontal = 1;
place = "{602, -20}";
target = down;
type = TopGhost;
}
);
layerId = "22FBF237-8195-4580-A019-F135C28A8A87";
paths = (
{
closed = 1;
nodes = (
"718 587 OFFCURVE",
"730 619 OFFCURVE",
"730 639 CURVE SMOOTH",
"730 687 OFFCURVE",
"690 735 OFFCURVE",
"645 746 CURVE SMOOTH",
"615 754 OFFCURVE",
"583 756 OFFCURVE",
"553 756 CURVE SMOOTH",
"366 756 OFFCURVE",
"191 629 OFFCURVE",
"86 481 CURVE SMOOTH",
"56 439 OFFCURVE",
"25 387 OFFCURVE",
"14 336 CURVE SMOOTH",
"7 306 OFFCURVE",
"3 275 OFFCURVE",
"3 244 CURVE SMOOTH",
"3 81 OFFCURVE",
"114 -23 OFFCURVE",
"274 -30 CURVE SMOOTH",
"284 -30 OFFCURVE",
"293 -31 OFFCURVE",
"302 -31 CURVE SMOOTH",
"449 -31 OFFCURVE",
"557 15 OFFCURVE",
"671 104 CURVE SMOOTH",
"688 117 OFFCURVE",
"756 182 OFFCURVE",
"756 203 CURVE SMOOTH",
"756 204 OFFCURVE",
"756 205 OFFCURVE",
"754 205 CURVE SMOOTH",
"745 205 OFFCURVE",
"711 173 OFFCURVE",
"705 167 CURVE SMOOTH",
"584 56 OFFCURVE",
"453 -9 OFFCURVE",
"285 -9 CURVE SMOOTH",
"149 -9 OFFCURVE",
"67 110 OFFCURVE",
"67 237 CURVE SMOOTH",
"67 271 OFFCURVE",
"73 306 OFFCURVE",
"83 339 CURVE SMOOTH",
"126 474 OFFCURVE",
"269 631 OFFCURVE",
"395 693 CURVE SMOOTH",
"446 718 OFFCURVE",
"496 735 OFFCURVE",
"553 735 CURVE SMOOTH",
"567 735 LINE SMOOTH",
"608 735 OFFCURVE",
"687 725 OFFCURVE",
"687 670 CURVE SMOOTH",
"687 643 OFFCURVE",
"670 628 OFFCURVE",
"670 611 CURVE SMOOTH",
"670 597 OFFCURVE",
"680 587 OFFCURVE",
"693 587 CURVE SMOOTH"
);
}
);
width = 755;
}
);
note = C;
unicode = 0043;
},
{
color = 11;
glyphname = Ccedilla;
lastChange = "2021-09-02 04:37:43 +0000";
layers = (
{
hints = (
{
horizontal = 1;
place = "{-26, 16}";
type = Stem;
},
{
horizontal = 1;
place = "{602, -20}";
target = down;
type = TopGhost;
},
{
place = "{201, 37}";
type = Stem;
},
{
place = "{244, 43}";
type = Stem;
}
);
layerId = "22FBF237-8195-4580-A019-F135C28A8A87";
paths = (
{
closed = 1;
nodes = (
"718 587 OFFCURVE",
"730 619 OFFCURVE",
"730 639 CURVE SMOOTH",
"730 687 OFFCURVE",
"690 735 OFFCURVE",
"645 746 CURVE SMOOTH",
"615 754 OFFCURVE",
"583 756 OFFCURVE",
"553 756 CURVE SMOOTH",
"366 756 OFFCURVE",
"191 629 OFFCURVE",
"86 481 CURVE SMOOTH",
"56 439 OFFCURVE",
"25 387 OFFCURVE",
"14 336 CURVE SMOOTH",
"7 306 OFFCURVE",
"3 275 OFFCURVE",
"3 244 CURVE SMOOTH",
"3 81 OFFCURVE",
"114 -23 OFFCURVE",
"274 -30 CURVE SMOOTH",
"284 -30 OFFCURVE",
"293 -31 OFFCURVE",
"302 -31 CURVE SMOOTH",
"449 -31 OFFCURVE",
"557 15 OFFCURVE",
"671 104 CURVE SMOOTH",
"688 117 OFFCURVE",
"756 182 OFFCURVE",
"756 203 CURVE SMOOTH",
"756 204 OFFCURVE",
"756 205 OFFCURVE",
"754 205 CURVE SMOOTH",
"745 205 OFFCURVE",
"711 173 OFFCURVE",
"705 167 CURVE SMOOTH",
"584 56 OFFCURVE",
"453 -9 OFFCURVE",
"285 -9 CURVE SMOOTH",
"149 -9 OFFCURVE",
"67 110 OFFCURVE",
"67 237 CURVE SMOOTH",
"67 271 OFFCURVE",
"73 306 OFFCURVE",
"83 339 CURVE SMOOTH",
"126 474 OFFCURVE",
"269 631 OFFCURVE",
"395 693 CURVE SMOOTH",
"446 718 OFFCURVE",
"496 731 OFFCURVE",
"553 735 CURVE SMOOTH",
"567 735 LINE SMOOTH",
"608 735 OFFCURVE",
"687 725 OFFCURVE",
"687 670 CURVE SMOOTH",
"687 643 OFFCURVE",
"670 628 OFFCURVE",
"670 611 CURVE SMOOTH",
"670 597 OFFCURVE",
"680 587 OFFCURVE",
"693 587 CURVE SMOOTH"
);
},
{
closed = 1;
nodes = (
"291 -21 OFFCURVE",
"284 -20 OFFCURVE",
"279 -20 CURVE SMOOTH",
"234 -20 OFFCURVE",
"201 -69 OFFCURVE",
"201 -111 CURVE SMOOTH",
"201 -147 OFFCURVE",
"246 -182 OFFCURVE",
"245 -212 CURVE",
"244 -214 LINE",
"241 -293 OFFCURVE",
"185 -266 OFFCURVE",
"131 -283 CURVE SMOOTH",
"128 -284 OFFCURVE",
"121 -286 OFFCURVE",
"121 -291 CURVE SMOOTH",
"121 -296 OFFCURVE",
"124 -302 OFFCURVE",
"130 -302 CURVE SMOOTH",
"189 -302 OFFCURVE",
"288 -270 OFFCURVE",
"288 -197 CURVE SMOOTH",
"288 -152 OFFCURVE",
"239 -120 OFFCURVE",
"239 -92 CURVE SMOOTH",
"239 -63 OFFCURVE",
"261 -32 OFFCURVE",
"290 -27 CURVE"
);
}
);
width = 755;
}
);
note = Ccedilla;
unicode = 00C7;
},
{
color = 3;
glyphname = D;
lastChange = "2021-09-01 22:40:03 +0000";
layers = (
{
hints = (
{
horizontal = 1;
place = "{558, 23}";
type = Stem;
},
{
horizontal = 1;
place = "{627, -20}";
target = down;
type = TopGhost;
},
{
place = "{8, 29}";
type = Stem;
}
);
layerId = "22FBF237-8195-4580-A019-F135C28A8A87";
paths = (
{
closed = 1;
nodes = (
"486 -29 OFFCURVE",
"837 118 OFFCURVE",
"837 381 CURVE SMOOTH",
"837 436 OFFCURVE",
"819 489 OFFCURVE",
"789 535 CURVE SMOOTH",
"684 694 OFFCURVE",
"460 741 OFFCURVE",
"282 741 CURVE SMOOTH",
"270 741 LINE",
"274 748 OFFCURVE",
"275 755 OFFCURVE",
"275 763 CURVE SMOOTH",
"275 775 OFFCURVE",
"268 796 OFFCURVE",
"252 796 CURVE SMOOTH",
"235 796 OFFCURVE",
"216 749 OFFCURVE",
"210 736 CURVE",
"196 734 OFFCURVE",
"155 724 OFFCURVE",
"155 704 CURVE SMOOTH",
"155 695 OFFCURVE",
"167 693 OFFCURVE",
"173 693 CURVE SMOOTH",
"178 693 OFFCURVE",
"183 694 OFFCURVE",
"187 695 CURVE",
"106 541 OFFCURVE",
"34 262 OFFCURVE",
"34 86 CURVE SMOOTH",
"34 61 OFFCURVE",
"35 36 OFFCURVE",
"38 12 CURVE SMOOTH",
"43 -21 OFFCURVE",
"64 -92 OFFCURVE",
"108 -92 CURVE SMOOTH",
"113 -92 OFFCURVE",
"126 -88 OFFCURVE",
"126 -82 CURVE SMOOTH",
"126 -81 OFFCURVE",
"126 -80 OFFCURVE",
"125 -80 CURVE",
"117 -72 OFFCURVE",
"107 -73 OFFCURVE",
"97 -61 CURVE SMOOTH",
"83 -44 OFFCURVE",
"80 -24 OFFCURVE",
"78 -3 CURVE SMOOTH",
"76 10 OFFCURVE",
"76 23 OFFCURVE",
"76 35 CURVE SMOOTH",
"76 159 OFFCURVE",
"115 277 OFFCURVE",
"143 396 CURVE SMOOTH",
"167 499 OFFCURVE",
"204 602 OFFCURVE",
"247 698 CURVE",
"264 699 OFFCURVE",
"281 700 OFFCURVE",
"298 700 CURVE SMOOTH",
"362 700 OFFCURVE",
"425 694 OFFCURVE",
"487 680 CURVE SMOOTH",
"620 651 OFFCURVE",
"793 573 OFFCURVE",
"793 414 CURVE SMOOTH",
"793 341 OFFCURVE",
"755 268 OFFCURVE",
"712 211 CURVE SMOOTH",
"624 93 OFFCURVE",
"389 -4 OFFCURVE",
"243 -4 CURVE SMOOTH",
"216 -4 OFFCURVE",
"191 0 OFFCURVE",
"165 8 CURVE SMOOTH",
"155 12 OFFCURVE",
"144 16 OFFCURVE",
"133 16 CURVE SMOOTH",
"130 16 OFFCURVE",
"124 16 OFFCURVE",
"124 12 CURVE SMOOTH",
"124 4 OFFCURVE",
"146 -7 OFFCURVE",
"150 -9 CURVE SMOOTH",
"180 -26 OFFCURVE",
"229 -29 OFFCURVE",
"263 -29 CURVE SMOOTH"
);
}
);
width = 864;
}
);
note = D;
unicode = 0044;
},
{
color = 3;
glyphname = Eth;
lastChange = "2021-09-01 22:40:03 +0000";
layers = (
{
hints = (
{
horizontal = 1;
place = "{172, 26}";
type = Stem;
},
{
horizontal = 1;
place = "{558, 23}";
type = Stem;
},
{
horizontal = 1;
place = "{627, -20}";
target = down;
type = TopGhost;
},
{
place = "{8, 29}";
type = Stem;
}
);
layerId = "22FBF237-8195-4580-A019-F135C28A8A87";
paths = (
{
closed = 1;
nodes = (
"234 232 OFFCURVE",
"233 233 OFFCURVE",
"230 234 CURVE SMOOTH",
"202 242 OFFCURVE",
"144 244 OFFCURVE",
"105 245 CURVE",
"117 295 OFFCURVE",
"131 345 OFFCURVE",
"143 396 CURVE SMOOTH",
"167 499 OFFCURVE",
"204 602 OFFCURVE",
"247 698 CURVE",
"264 699 OFFCURVE",
"281 700 OFFCURVE",
"298 700 CURVE SMOOTH",
"362 700 OFFCURVE",
"425 694 OFFCURVE",
"487 680 CURVE SMOOTH",
"620 651 OFFCURVE",
"793 573 OFFCURVE",
"793 414 CURVE SMOOTH",
"793 341 OFFCURVE",
"755 268 OFFCURVE",
"712 211 CURVE SMOOTH",
"624 93 OFFCURVE",
"389 -4 OFFCURVE",
"243 -4 CURVE SMOOTH",
"216 -4 OFFCURVE",
"191 0 OFFCURVE",
"165 8 CURVE SMOOTH",
"155 12 OFFCURVE",
"144 16 OFFCURVE",
"133 16 CURVE SMOOTH",
"130 16 OFFCURVE",
"124 16 OFFCURVE",
"124 12 CURVE SMOOTH",
"124 4 OFFCURVE",
"146 -7 OFFCURVE",
"150 -9 CURVE SMOOTH",
"180 -26 OFFCURVE",
"229 -29 OFFCURVE",
"263 -29 CURVE SMOOTH",
"486 -29 OFFCURVE",
"837 118 OFFCURVE",
"837 381 CURVE SMOOTH",
"837 436 OFFCURVE",
"819 489 OFFCURVE",
"789 535 CURVE SMOOTH",
"684 694 OFFCURVE",
"460 742 OFFCURVE",
"282 741 CURVE SMOOTH",
"270 741 LINE",
"274 748 OFFCURVE",
"275 755 OFFCURVE",
"275 763 CURVE SMOOTH",
"275 775 OFFCURVE",
"268 796 OFFCURVE",
"252 796 CURVE SMOOTH",
"235 796 OFFCURVE",
"216 749 OFFCURVE",
"210 736 CURVE",
"196 734 OFFCURVE",
"155 724 OFFCURVE",
"155 704 CURVE SMOOTH",
"155 695 OFFCURVE",
"167 693 OFFCURVE",
"173 693 CURVE SMOOTH",
"178 693 OFFCURVE",
"183 694 OFFCURVE",
"187 695 CURVE",
"127 582 OFFCURVE",
"73 402 OFFCURVE",
"48 244 CURVE",
"16 243 OFFCURVE",
"-15 242 OFFCURVE",
"-47 239 CURVE",
"-50 237 LINE",
"-48 230 OFFCURVE",
"-32 216 OFFCURVE",
"-23 214 CURVE",
"-1 217 OFFCURVE",
"22 218 OFFCURVE",
"44 218 CURVE",
"37 171 OFFCURVE",
"34 125 OFFCURVE",
"34 86 CURVE SMOOTH",
"34 61 OFFCURVE",
"35 36 OFFCURVE",
"38 12 CURVE SMOOTH",
"43 -21 OFFCURVE",
"64 -92 OFFCURVE",
"108 -92 CURVE SMOOTH",
"113 -92 OFFCURVE",
"126 -88 OFFCURVE",
"126 -82 CURVE SMOOTH",
"126 -81 OFFCURVE",
"126 -80 OFFCURVE",
"125 -80 CURVE",
"117 -72 OFFCURVE",
"107 -73 OFFCURVE",
"97 -61 CURVE SMOOTH",
"83 -44 OFFCURVE",
"80 -24 OFFCURVE",
"78 -3 CURVE SMOOTH",
"76 10 OFFCURVE",
"76 23 OFFCURVE",
"76 35 CURVE SMOOTH",
"76 98 OFFCURVE",
"86 160 OFFCURVE",
"100 221 CURVE",
"141 223 OFFCURVE",
"183 225 OFFCURVE",
"226 225 CURVE SMOOTH",
"230 225 OFFCURVE",
"234 226 OFFCURVE",
"234 230 CURVE SMOOTH"
);
}
);
width = 864;
}
);
note = Eth;
unicode = 00D0;
},
{
color = 3;
glyphname = E;
lastChange = "2021-09-01 22:40:03 +0000";
layers = (
{
hints = (
{
horizontal = 1;
place = "{-7, 23}";
type = Stem;
},
{
horizontal = 1;
place = "{601, -20}";
target = down;
type = TopGhost;
}
);
layerId = "22FBF237-8195-4580-A019-F135C28A8A87";
paths = (
{
closed = 1;
nodes = (
"543 40 OFFCURVE",
"532 40 OFFCURVE",
"530 40 CURVE SMOOTH",
"501 40 OFFCURVE",
"450 26 OFFCURVE",
"418 21 CURVE SMOOTH",
"358 13 OFFCURVE",
"298 9 OFFCURVE",
"237 7 CURVE SMOOTH",
"227 6 OFFCURVE",
"216 6 OFFCURVE",
"205 6 CURVE SMOOTH",
"179 6 OFFCURVE",
"96 7 OFFCURVE",
"84 37 CURVE SMOOTH",
"78 52 OFFCURVE",
"77 69 OFFCURVE",
"77 85 CURVE SMOOTH",
"77 145 OFFCURVE",
"88 210 OFFCURVE",
"103 268 CURVE",
"103 270 OFFCURVE",
"106 282 OFFCURVE",
"107 282 CURVE SMOOTH",
"119 285 OFFCURVE",
"163 283 OFFCURVE",
"178 283 CURVE SMOOTH",
"235 284 OFFCURVE",
"294 285 OFFCURVE",
"351 289 CURVE SMOOTH",
"360 290 OFFCURVE",
"428 294 OFFCURVE",
"428 305 CURVE SMOOTH",
"428 324 OFFCURVE",
"299 321 OFFCURVE",
"280 321 CURVE SMOOTH",
"211 321 LINE SMOOTH",
"186 321 OFFCURVE",
"151 319 OFFCURVE",
"126 325 CURVE",
"124 325 OFFCURVE",
"121 326 OFFCURVE",
"121 329 CURVE SMOOTH",
"121 340 OFFCURVE",
"130 376 OFFCURVE",
"133 389 CURVE SMOOTH",
"139 422 OFFCURVE",
"193 704 OFFCURVE",
"205 713 CURVE SMOOTH",
"216 720 OFFCURVE",
"257 720 OFFCURVE",
"271 720 CURVE SMOOTH",
"319 720 OFFCURVE",
"367 716 OFFCURVE",
"414 712 CURVE SMOOTH",
"426 712 OFFCURVE",
"438 710 OFFCURVE",
"449 710 CURVE SMOOTH",
"454 710 OFFCURVE",
"459 710 OFFCURVE",
"463 712 CURVE",
"456 689 OFFCURVE",
"446 625 OFFCURVE",
"446 601 CURVE SMOOTH",
"446 595 OFFCURVE",
"448 581 OFFCURVE",
"455 581 CURVE SMOOTH",
"462 581 OFFCURVE",
"465 595 OFFCURVE",
"466 600 CURVE SMOOTH",
"477 642 OFFCURVE",
"481 694 OFFCURVE",
"521 720 CURVE SMOOTH",
"525 723 OFFCURVE",
"528 724 OFFCURVE",
"528 730 CURVE SMOOTH",
"528 742 OFFCURVE",
"504 758 OFFCURVE",
"493 758 CURVE SMOOTH",
"480 758 OFFCURVE",
"483 738 OFFCURVE",
"449 738 CURVE SMOOTH",
"442 738 LINE SMOOTH",
"354 738 OFFCURVE",
"267 750 OFFCURVE",
"179 750 CURVE SMOOTH",
"161 750 OFFCURVE",
"85 753 OFFCURVE",
"85 724 CURVE SMOOTH",
"85 702 OFFCURVE",
"133 723 OFFCURVE",
"133 702 CURVE SMOOTH",
"133 679 OFFCURVE",
"124 627 OFFCURVE",
"119 602 CURVE SMOOTH",
"107 523 OFFCURVE",
"91 444 OFFCURVE",
"73 366 CURVE SMOOTH",
"72 363 OFFCURVE",
"65 331 OFFCURVE",
"64 330 CURVE",
"62 325 OFFCURVE",
"32 331 OFFCURVE",
"32 317 CURVE SMOOTH",
"32 304 OFFCURVE",
"52 301 OFFCURVE",
"52 289 CURVE SMOOTH",
"52 284 OFFCURVE",
"37 226 OFFCURVE",
"35 217 CURVE SMOOTH",
"21 162 OFFCURVE",
"7 103 OFFCURVE",
"7 46 CURVE SMOOTH",
"7 33 OFFCURVE",
"8 19 OFFCURVE",
"11 7 CURVE SMOOTH",
"18 -17 OFFCURVE",
"240 -22 OFFCURVE",
"271 -22 CURVE SMOOTH",
"304 -22 LINE SMOOTH",
"368 -22 OFFCURVE",
"472 -10 OFFCURVE",
"529 24 CURVE SMOOTH",
"532 26 OFFCURVE",
"543 33 OFFCURVE",
"543 38 CURVE SMOOTH"
);
}
);
width = 568;
}
);
note = E;
unicode = 0045;
},
{
color = 11;
glyphname = Eacute;
lastChange = "2021-09-02 04:37:43 +0000";
layers = (
{
hints = (
{
horizontal = 1;
place = "{-7, 23}";
type = Stem;
},
{
horizontal = 1;
place = "{601, -20}";
target = down;
type = TopGhost;
},
{
horizontal = 1;
place = "{788, 20}";
type = Stem;
}
);
layerId = "22FBF237-8195-4580-A019-F135C28A8A87";
paths = (
{
closed = 1;
nodes = (
"543 40 OFFCURVE",
"532 40 OFFCURVE",
"530 40 CURVE SMOOTH",
"501 40 OFFCURVE",
"450 26 OFFCURVE",
"418 21 CURVE SMOOTH",
"358 13 OFFCURVE",
"298 9 OFFCURVE",
"237 7 CURVE SMOOTH",
"227 6 OFFCURVE",
"216 6 OFFCURVE",
"205 6 CURVE SMOOTH",
"179 6 OFFCURVE",
"96 7 OFFCURVE",
"84 37 CURVE SMOOTH",
"78 52 OFFCURVE",
"77 69 OFFCURVE",
"77 85 CURVE SMOOTH",
"77 145 OFFCURVE",
"88 210 OFFCURVE",
"103 268 CURVE",
"103 270 OFFCURVE",
"106 282 OFFCURVE",
"107 282 CURVE SMOOTH",
"119 285 OFFCURVE",
"163 283 OFFCURVE",
"178 283 CURVE SMOOTH",
"235 284 OFFCURVE",
"294 285 OFFCURVE",
"351 289 CURVE SMOOTH",
"360 290 OFFCURVE",
"428 294 OFFCURVE",
"428 305 CURVE SMOOTH",
"428 324 OFFCURVE",
"299 321 OFFCURVE",
"280 321 CURVE SMOOTH",
"211 321 LINE SMOOTH",
"186 321 OFFCURVE",
"151 319 OFFCURVE",
"126 325 CURVE",
"124 325 OFFCURVE",
"121 326 OFFCURVE",
"121 329 CURVE SMOOTH",
"121 340 OFFCURVE",
"130 376 OFFCURVE",
"133 389 CURVE SMOOTH",
"139 422 OFFCURVE",
"193 704 OFFCURVE",
"205 713 CURVE SMOOTH",
"216 720 OFFCURVE",
"257 720 OFFCURVE",
"271 720 CURVE SMOOTH",
"319 720 OFFCURVE",
"367 716 OFFCURVE",
"414 712 CURVE SMOOTH",
"426 712 OFFCURVE",
"438 710 OFFCURVE",
"449 710 CURVE SMOOTH",
"454 710 OFFCURVE",
"459 710 OFFCURVE",
"463 712 CURVE",
"456 689 OFFCURVE",
"446 625 OFFCURVE",
"446 601 CURVE SMOOTH",
"446 595 OFFCURVE",
"448 581 OFFCURVE",
"455 581 CURVE SMOOTH",
"462 581 OFFCURVE",
"465 595 OFFCURVE",
"466 600 CURVE SMOOTH",
"477 642 OFFCURVE",
"481 694 OFFCURVE",
"521 720 CURVE SMOOTH",
"525 723 OFFCURVE",
"528 724 OFFCURVE",
"528 730 CURVE SMOOTH",
"528 742 OFFCURVE",
"504 758 OFFCURVE",
"493 758 CURVE SMOOTH",
"480 758 OFFCURVE",
"483 736 OFFCURVE",
"449 738 CURVE SMOOTH",
"442 738 LINE SMOOTH",
"354 741 OFFCURVE",
"267 750 OFFCURVE",
"179 750 CURVE SMOOTH",
"161 750 OFFCURVE",
"85 753 OFFCURVE",
"85 724 CURVE SMOOTH",
"85 702 OFFCURVE",
"133 723 OFFCURVE",
"133 702 CURVE SMOOTH",
"133 679 OFFCURVE",
"124 627 OFFCURVE",
"119 602 CURVE SMOOTH",
"107 523 OFFCURVE",
"91 444 OFFCURVE",
"73 366 CURVE SMOOTH",
"72 363 OFFCURVE",
"65 331 OFFCURVE",
"64 330 CURVE",
"62 325 OFFCURVE",
"32 331 OFFCURVE",
"32 317 CURVE SMOOTH",
"32 304 OFFCURVE",
"52 301 OFFCURVE",
"52 289 CURVE SMOOTH",
"52 284 OFFCURVE",
"37 226 OFFCURVE",
"35 217 CURVE SMOOTH",
"21 162 OFFCURVE",
"7 103 OFFCURVE",
"7 46 CURVE SMOOTH",
"7 33 OFFCURVE",
"8 19 OFFCURVE",
"11 7 CURVE SMOOTH",
"18 -17 OFFCURVE",
"240 -22 OFFCURVE",
"271 -22 CURVE SMOOTH",
"304 -22 LINE SMOOTH",
"368 -20 OFFCURVE",
"472 -10 OFFCURVE",
"529 24 CURVE SMOOTH",
"532 26 OFFCURVE",
"543 33 OFFCURVE",
"543 38 CURVE SMOOTH"
);
},
{
closed = 1;
nodes = (
"462 903 OFFCURVE",
"444 914 OFFCURVE",
"432 914 CURVE SMOOTH",
"421 914 OFFCURVE",
"410 910 OFFCURVE",
"405 898 CURVE SMOOTH",
"387 853 OFFCURVE",
"354 837 OFFCURVE",
"318 809 CURVE SMOOTH",
"314 806 OFFCURVE",
"304 796 OFFCURVE",
"304 790 CURVE SMOOTH",
"304 789 OFFCURVE",
"305 788 OFFCURVE",
"306 788 CURVE SMOOTH",
"320 788 OFFCURVE",
"397 841 OFFCURVE",
"415 852 CURVE SMOOTH",
"427 859 OFFCURVE",
"462 873 OFFCURVE",
"462 890 CURVE SMOOTH"
);
}
);
width = 568;
}
);
note = Eacute;
unicode = 00C9;
},
{
color = 11;
glyphname = Ecircumflex;
lastChange = "2021-09-02 04:37:43 +0000";
layers = (
{
hints = (
{
horizontal = 1;
place = "{-7, 23}";
type = Stem;
},
{
horizontal = 1;
place = "{601, -20}";
target = down;
type = TopGhost;
}
);
layerId = "22FBF237-8195-4580-A019-F135C28A8A87";
paths = (
{
closed = 1;
nodes = (
"543 40 OFFCURVE",
"532 40 OFFCURVE",
"530 40 CURVE SMOOTH",
"501 40 OFFCURVE",
"450 26 OFFCURVE",
"418 21 CURVE SMOOTH",
"358 13 OFFCURVE",
"298 9 OFFCURVE",
"237 7 CURVE SMOOTH",
"227 6 OFFCURVE",
"216 6 OFFCURVE",
"205 6 CURVE SMOOTH",
"179 6 OFFCURVE",
"96 7 OFFCURVE",
"84 37 CURVE SMOOTH",
"78 52 OFFCURVE",
"77 69 OFFCURVE",
"77 85 CURVE SMOOTH",
"77 145 OFFCURVE",
"88 210 OFFCURVE",
"103 268 CURVE",
"103 270 OFFCURVE",
"106 282 OFFCURVE",
"107 282 CURVE SMOOTH",
"119 285 OFFCURVE",
"163 283 OFFCURVE",
"178 283 CURVE SMOOTH",
"235 284 OFFCURVE",
"294 285 OFFCURVE",
"351 289 CURVE SMOOTH",
"360 290 OFFCURVE",
"428 294 OFFCURVE",
"428 305 CURVE SMOOTH",
"428 324 OFFCURVE",
"299 321 OFFCURVE",
"280 321 CURVE SMOOTH",
"211 321 LINE SMOOTH",
"186 321 OFFCURVE",
"151 319 OFFCURVE",
"126 325 CURVE",
"124 325 OFFCURVE",
"121 326 OFFCURVE",
"121 329 CURVE SMOOTH",
"121 340 OFFCURVE",
"130 376 OFFCURVE",
"133 389 CURVE SMOOTH",
"139 422 OFFCURVE",
"193 704 OFFCURVE",
"205 713 CURVE SMOOTH",
"216 720 OFFCURVE",
"257 720 OFFCURVE",
"271 720 CURVE SMOOTH",
"319 720 OFFCURVE",
"367 716 OFFCURVE",
"414 712 CURVE SMOOTH",
"426 712 OFFCURVE",
"438 710 OFFCURVE",
"449 710 CURVE SMOOTH",
"454 710 OFFCURVE",
"459 710 OFFCURVE",
"463 712 CURVE",
"456 689 OFFCURVE",
"446 625 OFFCURVE",
"446 601 CURVE SMOOTH",
"446 595 OFFCURVE",
"448 581 OFFCURVE",
"455 581 CURVE SMOOTH",
"462 581 OFFCURVE",
"465 595 OFFCURVE",
"466 600 CURVE SMOOTH",
"477 642 OFFCURVE",
"481 694 OFFCURVE",
"521 720 CURVE SMOOTH",
"525 723 OFFCURVE",
"528 724 OFFCURVE",
"528 730 CURVE SMOOTH",
"528 742 OFFCURVE",
"504 758 OFFCURVE",
"493 758 CURVE SMOOTH",
"480 758 OFFCURVE",
"483 736 OFFCURVE",
"449 738 CURVE SMOOTH",
"442 738 LINE SMOOTH",
"354 741 OFFCURVE",
"267 750 OFFCURVE",
"179 750 CURVE SMOOTH",
"161 750 OFFCURVE",
"85 753 OFFCURVE",
"85 724 CURVE SMOOTH",
"85 702 OFFCURVE",
"133 723 OFFCURVE",
"133 702 CURVE SMOOTH",
"133 679 OFFCURVE",
"124 627 OFFCURVE",
"119 602 CURVE SMOOTH",
"107 523 OFFCURVE",
"91 444 OFFCURVE",
"73 366 CURVE SMOOTH",
"72 363 OFFCURVE",
"65 331 OFFCURVE",
"64 330 CURVE",
"62 325 OFFCURVE",
"32 331 OFFCURVE",
"32 317 CURVE SMOOTH",
"32 304 OFFCURVE",
"52 301 OFFCURVE",
"52 289 CURVE SMOOTH",
"52 284 OFFCURVE",
"37 226 OFFCURVE",
"35 217 CURVE SMOOTH",
"21 162 OFFCURVE",
"7 103 OFFCURVE",
"7 46 CURVE SMOOTH",
"7 33 OFFCURVE",
"8 19 OFFCURVE",
"11 7 CURVE SMOOTH",
"18 -17 OFFCURVE",
"240 -22 OFFCURVE",
"271 -22 CURVE SMOOTH",
"304 -22 LINE SMOOTH",
"368 -20 OFFCURVE",
"472 -10 OFFCURVE",
"529 24 CURVE SMOOTH",
"532 26 OFFCURVE",
"543 33 OFFCURVE",
"543 38 CURVE SMOOTH"
);
},
{
closed = 1;
nodes = (
"478 805 LINE",
"474 815 LINE",
"433 848 OFFCURVE",
"392 882 OFFCURVE",
"358 923 CURVE",
"352 925 LINE",
"333 921 OFFCURVE",
"207 825 OFFCURVE",
"207 812 CURVE SMOOTH",
"207 809 OFFCURVE",
"209 802 OFFCURVE",
"213 802 CURVE SMOOTH",
"224 802 OFFCURVE",
"320 874 OFFCURVE",
"335 886 CURVE",
"355 862 OFFCURVE",
"443 800 OFFCURVE",
"473 798 CURVE"
);
}
);
width = 568;
}
);
note = Ecircumflex;
unicode = 00CA;
},
{
color = 11;
glyphname = Edieresis;
lastChange = "2021-09-02 04:37:43 +0000";
layers = (
{
hints = (
{
horizontal = 1;
place = "{-7, 23}";
type = Stem;
},
{
horizontal = 1;
place = "{601, -20}";
target = down;
type = TopGhost;
},
{
horizontal = 1;
place = "{811, 20}";
type = Stem;
}
);
layerId = "22FBF237-8195-4580-A019-F135C28A8A87";
paths = (
{
closed = 1;
nodes = (
"543 40 OFFCURVE",
"532 40 OFFCURVE",
"530 40 CURVE SMOOTH",
"501 40 OFFCURVE",
"450 26 OFFCURVE",
"418 21 CURVE SMOOTH",
"358 13 OFFCURVE",
"298 9 OFFCURVE",
"237 7 CURVE SMOOTH",
"227 6 OFFCURVE",
"216 6 OFFCURVE",
"205 6 CURVE SMOOTH",
"179 6 OFFCURVE",
"96 7 OFFCURVE",
"84 37 CURVE SMOOTH",
"78 52 OFFCURVE",
"77 69 OFFCURVE",
"77 85 CURVE SMOOTH",
"77 145 OFFCURVE",
"88 210 OFFCURVE",
"103 268 CURVE",
"103 270 OFFCURVE",
"106 282 OFFCURVE",
"107 282 CURVE SMOOTH",
"119 285 OFFCURVE",
"163 283 OFFCURVE",
"178 283 CURVE SMOOTH",
"235 284 OFFCURVE",
"294 285 OFFCURVE",
"351 289 CURVE SMOOTH",
"360 290 OFFCURVE",
"428 294 OFFCURVE",
"428 305 CURVE SMOOTH",
"428 324 OFFCURVE",
"299 321 OFFCURVE",
"280 321 CURVE SMOOTH",
"211 321 LINE SMOOTH",
"186 321 OFFCURVE",
"151 319 OFFCURVE",
"126 325 CURVE",
"124 325 OFFCURVE",
"121 326 OFFCURVE",
"121 329 CURVE SMOOTH",
"121 340 OFFCURVE",
"130 376 OFFCURVE",
"133 389 CURVE SMOOTH",
"139 422 OFFCURVE",
"193 704 OFFCURVE",
"205 713 CURVE SMOOTH",
"216 720 OFFCURVE",
"257 720 OFFCURVE",
"271 720 CURVE SMOOTH",
"319 720 OFFCURVE",
"367 716 OFFCURVE",
"414 712 CURVE SMOOTH",
"426 712 OFFCURVE",
"438 710 OFFCURVE",
"449 710 CURVE SMOOTH",
"454 710 OFFCURVE",
"459 710 OFFCURVE",
"463 712 CURVE",
"456 689 OFFCURVE",
"446 625 OFFCURVE",
"446 601 CURVE SMOOTH",
"446 595 OFFCURVE",
"448 581 OFFCURVE",
"455 581 CURVE SMOOTH",
"462 581 OFFCURVE",
"465 595 OFFCURVE",
"466 600 CURVE SMOOTH",
"477 642 OFFCURVE",
"481 694 OFFCURVE",
"521 720 CURVE SMOOTH",
"525 723 OFFCURVE",
"528 724 OFFCURVE",
"528 730 CURVE SMOOTH",
"528 742 OFFCURVE",
"504 758 OFFCURVE",
"493 758 CURVE SMOOTH",
"480 758 OFFCURVE",
"483 736 OFFCURVE",
"449 738 CURVE SMOOTH",
"442 738 LINE SMOOTH",
"354 741 OFFCURVE",
"267 750 OFFCURVE",
"179 750 CURVE SMOOTH",
"161 750 OFFCURVE",
"85 753 OFFCURVE",
"85 724 CURVE SMOOTH",
"85 702 OFFCURVE",
"133 723 OFFCURVE",
"133 702 CURVE SMOOTH",
"133 679 OFFCURVE",
"124 627 OFFCURVE",
"119 602 CURVE SMOOTH",
"107 523 OFFCURVE",
"91 444 OFFCURVE",
"73 366 CURVE SMOOTH",
"72 363 OFFCURVE",
"65 331 OFFCURVE",
"64 330 CURVE",
"62 325 OFFCURVE",
"32 331 OFFCURVE",
"32 317 CURVE SMOOTH",
"32 304 OFFCURVE",
"52 301 OFFCURVE",
"52 289 CURVE SMOOTH",
"52 284 OFFCURVE",
"37 226 OFFCURVE",
"35 217 CURVE SMOOTH",
"21 162 OFFCURVE",
"7 103 OFFCURVE",
"7 46 CURVE SMOOTH",
"7 33 OFFCURVE",
"8 19 OFFCURVE",
"11 7 CURVE SMOOTH",
"18 -17 OFFCURVE",
"240 -22 OFFCURVE",
"271 -22 CURVE SMOOTH",
"304 -22 LINE SMOOTH",
"368 -20 OFFCURVE",
"472 -10 OFFCURVE",
"529 24 CURVE SMOOTH",
"532 26 OFFCURVE",
"543 33 OFFCURVE",
"543 38 CURVE SMOOTH"
);
},
{
closed = 1;
nodes = (
"455 896 LINE",
"452 897 LINE",
"441 897 OFFCURVE",
"401 875 OFFCURVE",
"393 867 CURVE",
"385 864 OFFCURVE",
"375 851 OFFCURVE",
"375 842 CURVE SMOOTH",
"375 833 OFFCURVE",
"385 811 OFFCURVE",
"396 811 CURVE SMOOTH",
"422 811 OFFCURVE",
"428 860 OFFCURVE",
"440 877 CURVE SMOOTH",
"442 880 OFFCURVE",
"455 893 OFFCURVE",
"455 895 CURVE SMOOTH"
);
},
{
closed = 1;
nodes = (
"321 896 LINE",
"318 897 LINE",
"307 897 OFFCURVE",
"267 875 OFFCURVE",
"259 867 CURVE",
"251 864 OFFCURVE",
"241 851 OFFCURVE",
"241 842 CURVE SMOOTH",
"241 833 OFFCURVE",
"251 811 OFFCURVE",
"262 811 CURVE SMOOTH",
"288 811 OFFCURVE",
"294 860 OFFCURVE",
"306 877 CURVE SMOOTH",
"308 880 OFFCURVE",
"321 893 OFFCURVE",
"321 895 CURVE SMOOTH"
);
}
);
width = 568;
}
);
note = Edieresis;
unicode = 00CB;
},
{
color = 11;
glyphname = Egrave;
lastChange = "2021-09-02 04:37:43 +0000";
layers = (
{
hints = (
{
horizontal = 1;
place = "{-7, 23}";
type = Stem;
},
{
horizontal = 1;
place = "{601, -20}";
target = down;
type = TopGhost;
},
{
horizontal = 1;
place = "{795, 20}";
type = Stem;
}
);
layerId = "22FBF237-8195-4580-A019-F135C28A8A87";
paths = (
{
closed = 1;
nodes = (
"543 40 OFFCURVE",
"532 40 OFFCURVE",
"530 40 CURVE SMOOTH",
"501 40 OFFCURVE",
"450 26 OFFCURVE",
"418 21 CURVE SMOOTH",
"358 13 OFFCURVE",
"298 9 OFFCURVE",
"237 7 CURVE SMOOTH",
"227 6 OFFCURVE",
"216 6 OFFCURVE",
"205 6 CURVE SMOOTH",
"179 6 OFFCURVE",
"96 7 OFFCURVE",
"84 37 CURVE SMOOTH",
"78 52 OFFCURVE",
"77 69 OFFCURVE",
"77 85 CURVE SMOOTH",
"77 145 OFFCURVE",
"88 210 OFFCURVE",
"103 268 CURVE",
"103 270 OFFCURVE",
"106 282 OFFCURVE",
"107 282 CURVE SMOOTH",
"119 285 OFFCURVE",
"163 283 OFFCURVE",
"178 283 CURVE SMOOTH",
"235 284 OFFCURVE",
"294 285 OFFCURVE",
"351 289 CURVE SMOOTH",
"360 290 OFFCURVE",
"428 294 OFFCURVE",
"428 305 CURVE SMOOTH",
"428 324 OFFCURVE",
"299 321 OFFCURVE",
"280 321 CURVE SMOOTH",
"211 321 LINE SMOOTH",
"186 321 OFFCURVE",
"151 319 OFFCURVE",
"126 325 CURVE",
"124 325 OFFCURVE",
"121 326 OFFCURVE",
"121 329 CURVE SMOOTH",
"121 340 OFFCURVE",
"130 376 OFFCURVE",
"133 389 CURVE SMOOTH",
"139 422 OFFCURVE",
"193 704 OFFCURVE",
"205 713 CURVE SMOOTH",
"216 720 OFFCURVE",
"257 720 OFFCURVE",
"271 720 CURVE SMOOTH",
"319 720 OFFCURVE",
"367 716 OFFCURVE",
"414 712 CURVE SMOOTH",
"426 712 OFFCURVE",
"438 710 OFFCURVE",
"449 710 CURVE SMOOTH",
"454 710 OFFCURVE",
"459 710 OFFCURVE",
"463 712 CURVE",
"456 689 OFFCURVE",
"446 625 OFFCURVE",
"446 601 CURVE SMOOTH",
"446 595 OFFCURVE",
"448 581 OFFCURVE",
"455 581 CURVE SMOOTH",
"462 581 OFFCURVE",
"465 595 OFFCURVE",
"466 600 CURVE SMOOTH",
"477 642 OFFCURVE",
"481 694 OFFCURVE",
"521 720 CURVE SMOOTH",
"525 723 OFFCURVE",
"528 724 OFFCURVE",
"528 730 CURVE SMOOTH",
"528 742 OFFCURVE",
"504 758 OFFCURVE",
"493 758 CURVE SMOOTH",
"480 758 OFFCURVE",
"483 736 OFFCURVE",
"449 738 CURVE SMOOTH",
"442 738 LINE SMOOTH",
"354 741 OFFCURVE",
"267 750 OFFCURVE",
"179 750 CURVE SMOOTH",
"161 750 OFFCURVE",
"85 753 OFFCURVE",
"85 724 CURVE SMOOTH",
"85 702 OFFCURVE",
"133 723 OFFCURVE",
"133 702 CURVE SMOOTH",
"133 679 OFFCURVE",
"124 627 OFFCURVE",
"119 602 CURVE SMOOTH",
"107 523 OFFCURVE",
"91 444 OFFCURVE",
"73 366 CURVE SMOOTH",
"72 363 OFFCURVE",
"65 331 OFFCURVE",
"64 330 CURVE",
"62 325 OFFCURVE",
"32 331 OFFCURVE",
"32 317 CURVE SMOOTH",
"32 304 OFFCURVE",
"52 301 OFFCURVE",
"52 289 CURVE SMOOTH",
"52 284 OFFCURVE",
"37 226 OFFCURVE",
"35 217 CURVE SMOOTH",
"21 162 OFFCURVE",
"7 103 OFFCURVE",
"7 46 CURVE SMOOTH",
"7 33 OFFCURVE",
"8 19 OFFCURVE",
"11 7 CURVE SMOOTH",
"18 -17 OFFCURVE",
"240 -22 OFFCURVE",
"271 -22 CURVE SMOOTH",
"304 -22 LINE SMOOTH",
"368 -20 OFFCURVE",
"472 -10 OFFCURVE",
"529 24 CURVE SMOOTH",
"532 26 OFFCURVE",
"543 33 OFFCURVE",
"543 38 CURVE SMOOTH"
);
},
{
closed = 1;
nodes = (
"412 803 OFFCURVE",
"403 812 OFFCURVE",
"399 815 CURVE SMOOTH",
"365 844 OFFCURVE",
"334 859 OFFCURVE",
"320 905 CURVE SMOOTH",
"316 916 OFFCURVE",
"305 921 OFFCURVE",
"294 921 CURVE SMOOTH",
"283 921 OFFCURVE",
"262 909 OFFCURVE",
"262 897 CURVE SMOOTH",
"262 879 OFFCURVE",
"293 866 OFFCURVE",
"306 858 CURVE SMOOTH",
"323 847 OFFCURVE",
"395 795 OFFCURVE",
"409 795 CURVE SMOOTH",
"410 795 OFFCURVE",
"412 796 OFFCURVE",
"412 797 CURVE SMOOTH"
);
}
);
width = 568;
}
);
note = Egrave;
unicode = 00C8;
},
{
color = 3;
glyphname = F;
lastChange = "2021-09-01 22:40:03 +0000";
layers = (
{
hints = (
{
horizontal = 1;
place = "{603, -20}";
target = down;
type = TopGhost;
}
);
layerId = "22FBF237-8195-4580-A019-F135C28A8A87";
paths = (
{
closed = 1;
nodes = (
"545 742 OFFCURVE",
"522 758 OFFCURVE",
"511 758 CURVE SMOOTH",
"498 758 OFFCURVE",
"501 736 OFFCURVE",
"467 738 CURVE SMOOTH",
"460 738 LINE SMOOTH",
"372 741 OFFCURVE",
"285 750 OFFCURVE",
"197 750 CURVE SMOOTH",
"179 750 OFFCURVE",
"103 753 OFFCURVE",
"103 724 CURVE SMOOTH",
"103 701 OFFCURVE",
"150 724 OFFCURVE",
"150 702 CURVE SMOOTH",
"150 682 OFFCURVE",
"139 626 OFFCURVE",
"134 603 CURVE SMOOTH",
"120 524 OFFCURVE",
"102 446 OFFCURVE",
"83 368 CURVE SMOOTH",
"82 365 OFFCURVE",
"74 331 OFFCURVE",
"74 330 CURVE",
"71 325 OFFCURVE",
"41 331 OFFCURVE",
"41 317 CURVE SMOOTH",
"41 304 OFFCURVE",
"61 302 OFFCURVE",
"61 289 CURVE SMOOTH",
"61 285 OFFCURVE",
"46 219 OFFCURVE",
"44 209 CURVE SMOOTH",
"31 145 OFFCURVE",
"18 78 OFFCURVE",
"18 12 CURVE SMOOTH",
"18 0 OFFCURVE",
"16 -39 OFFCURVE",
"33 -39 CURVE SMOOTH",
"49 -39 OFFCURVE",
"80 -16 OFFCURVE",
"80 1 CURVE SMOOTH",
"80 10 OFFCURVE",
"76 21 OFFCURVE",
"76 32 CURVE SMOOTH",
"76 108 OFFCURVE",
"100 207 OFFCURVE",
"116 283 CURVE",
"143 284 OFFCURVE",
"172 283 OFFCURVE",
"199 284 CURVE SMOOTH",
"253 284 OFFCURVE",
"307 285 OFFCURVE",
"360 289 CURVE SMOOTH",
"369 290 OFFCURVE",
"437 294 OFFCURVE",
"437 305 CURVE SMOOTH",
"437 323 OFFCURVE",
"321 321 OFFCURVE",
"305 321 CURVE SMOOTH",
"271 321 OFFCURVE",
"236 320 OFFCURVE",
"202 320 CURVE SMOOTH",
"180 320 OFFCURVE",
"151 318 OFFCURVE",
"129 324 CURVE",
"128 324 OFFCURVE",
"124 325 OFFCURVE",
"124 327 CURVE SMOOTH",
"124 359 OFFCURVE",
"206 702 OFFCURVE",
"222 713 CURVE SMOOTH",
"234 720 OFFCURVE",
"274 720 OFFCURVE",
"288 720 CURVE SMOOTH",
"336 720 OFFCURVE",
"384 716 OFFCURVE",
"431 712 CURVE SMOOTH",
"443 712 OFFCURVE",
"455 710 OFFCURVE",
"466 710 CURVE SMOOTH",
"471 710 OFFCURVE",
"476 710 OFFCURVE",
"480 712 CURVE",
"473 689 OFFCURVE",
"461 623 OFFCURVE",
"461 600 CURVE SMOOTH",
"461 594 OFFCURVE",
"463 581 OFFCURVE",
"470 581 CURVE SMOOTH",
"477 581 OFFCURVE",
"480 595 OFFCURVE",
"481 600 CURVE SMOOTH",
"493 642 OFFCURVE",
"497 694 OFFCURVE",
"538 720 CURVE SMOOTH",
"542 723 OFFCURVE",
"545 724 OFFCURVE",
"545 730 CURVE SMOOTH"
);
}
);
width = 560;
}
);
note = F;
unicode = 0046;
},
{
color = 3;
glyphname = G;
lastChange = "2021-09-01 22:40:03 +0000";
layers = (
{
hints = (
{
horizontal = 1;
place = "{-16, 37}";
type = Stem;
},
{
horizontal = 1;
place = "{260, 17}";
type = Stem;
},
{
horizontal = 1;
place = "{580, 21}";
target = up;
type = BottomGhost;
}
);
layerId = "22FBF237-8195-4580-A019-F135C28A8A87";
paths = (
{
closed = 1;
nodes = (
"830 346 OFFCURVE",
"800 344 OFFCURVE",
"770 343 CURVE SMOOTH",
"675 340 OFFCURVE",
"580 333 OFFCURVE",
"485 333 CURVE SMOOTH",
"484 333 OFFCURVE",
"481 333 OFFCURVE",
"480 334 CURVE",
"474 336 OFFCURVE",
"453 311 OFFCURVE",
"453 303 CURVE SMOOTH",
"453 294 OFFCURVE",
"467 294 OFFCURVE",
"473 294 CURVE SMOOTH",
"552 294 OFFCURVE",
"631 299 OFFCURVE",
"710 305 CURVE",
"654 137 OFFCURVE",
"500 26 OFFCURVE",
"323 26 CURVE SMOOTH",
"177 26 OFFCURVE",
"73 140 OFFCURVE",
"73 284 CURVE SMOOTH",
"73 315 OFFCURVE",
"77 347 OFFCURVE",
"85 378 CURVE SMOOTH",
"117 507 OFFCURVE",
"222 632 OFFCURVE",
"343 687 CURVE SMOOTH",
"391 709 OFFCURVE",
"441 721 OFFCURVE",
"494 725 CURVE SMOOTH",
"501 726 OFFCURVE",
"509 726 OFFCURVE",
"517 726 CURVE SMOOTH",
"581 726 OFFCURVE",
"642 708 OFFCURVE",
"692 668 CURVE",
"687 642 OFFCURVE",
"667 592 OFFCURVE",
"658 566 CURVE SMOOTH",
"652 547 OFFCURVE",
"638 508 OFFCURVE",
"638 488 CURVE SMOOTH",
"638 473 OFFCURVE",
"655 470 OFFCURVE",
"667 470 CURVE SMOOTH",
"675 470 OFFCURVE",
"682 472 OFFCURVE",
"686 480 CURVE SMOOTH",
"698 503 OFFCURVE",
"718 612 OFFCURVE",
"722 641 CURVE",
"730 634 OFFCURVE",
"739 608 OFFCURVE",
"750 608 CURVE SMOOTH",
"756 608 OFFCURVE",
"756 617 OFFCURVE",
"756 621 CURVE SMOOTH",
"756 643 OFFCURVE",
"742 662 OFFCURVE",
"727 677 CURVE",
"730 698 OFFCURVE",
"733 719 OFFCURVE",
"733 740 CURVE SMOOTH",
"733 749 OFFCURVE",
"733 780 OFFCURVE",
"718 780 CURVE SMOOTH",
"711 780 OFFCURVE",
"707 778 OFFCURVE",
"707 771 CURVE SMOOTH",
"707 762 OFFCURVE",
"712 755 OFFCURVE",
"712 746 CURVE SMOOTH",
"712 731 OFFCURVE",
"706 715 OFFCURVE",
"700 702 CURVE",
"642 740 OFFCURVE",
"569 752 OFFCURVE",
"501 752 CURVE SMOOTH",
"495 752 OFFCURVE",
"489 752 OFFCURVE",
"483 751 CURVE SMOOTH",
"429 748 OFFCURVE",
"378 738 OFFCURVE",
"327 716 CURVE SMOOTH",
"192 657 OFFCURVE",
"54 511 OFFCURVE",
"28 362 CURVE SMOOTH",
"23 338 OFFCURVE",
"21 312 OFFCURVE",
"21 286 CURVE SMOOTH",
"21 132 OFFCURVE",
"112 -12 OFFCURVE",
"277 -21 CURVE SMOOTH",
"286 -22 OFFCURVE",
"295 -22 OFFCURVE",
"304 -22 CURVE SMOOTH",
"474 -22 OFFCURVE",
"575 63 OFFCURVE",
"682 188 CURVE",
"683 188 LINE",
"665 139 OFFCURVE",
"624 1 OFFCURVE",
"624 -42 CURVE SMOOTH",
"624 -48 OFFCURVE",
"624 -59 OFFCURVE",
"633 -59 CURVE SMOOTH",
"642 -59 OFFCURVE",
"664 -46 OFFCURVE",
"672 -41 CURVE",
"688 -34 OFFCURVE",
"708 -16 OFFCURVE",
"708 3 CURVE SMOOTH",
"708 23 OFFCURVE",
"684 3 OFFCURVE",
"684 44 CURVE SMOOTH",
"684 99 OFFCURVE",
"727 211 OFFCURVE",
"747 261 CURVE SMOOTH",
"752 275 OFFCURVE",
"757 291 OFFCURVE",
"764 304 CURVE SMOOTH",
"773 321 OFFCURVE",
"875 323 OFFCURVE",
"875 342 CURVE SMOOTH",
"875 347 OFFCURVE",
"860 346 OFFCURVE",
"859 346 CURVE SMOOTH"
);
}
);
width = 844;
}
);
note = G;
unicode = 0047;
},
{
color = 3;
glyphname = H;
lastChange = "2021-09-01 22:40:03 +0000";
layers = (
{
hints = (
{
horizontal = 1;
place = "{10, -20}";
target = down;
type = TopGhost;
},
{
horizontal = 1;
place = "{596, -20}";
target = down;
type = TopGhost;
}
);
layerId = "22FBF237-8195-4580-A019-F135C28A8A87";
paths = (
{
closed = 1;
nodes = (
"656 293 LINE SMOOTH",
"656 447 OFFCURVE",
"712 597 OFFCURVE",
"744 748 CURVE",
"745 750 OFFCURVE",
"745 752 OFFCURVE",
"745 754 CURVE SMOOTH",
"745 762 OFFCURVE",
"740 765 OFFCURVE",
"732 765 CURVE SMOOTH",
"718 765 OFFCURVE",
"689 751 OFFCURVE",
"684 736 CURVE SMOOTH",
"680 723 OFFCURVE",
"679 706 OFFCURVE",
"677 692 CURVE SMOOTH",
"662 598 LINE SMOOTH",
"646 497 OFFCURVE",
"632 395 OFFCURVE",
"616 294 CURVE",
"531 291 OFFCURVE",
"446 286 OFFCURVE",
"361 286 CURVE SMOOTH",
"281 286 OFFCURVE",
"201 288 OFFCURVE",
"120 289 CURVE",
"132 372 OFFCURVE",
"148 455 OFFCURVE",
"165 537 CURVE SMOOTH",
"178 605 OFFCURVE",
"191 674 OFFCURVE",
"213 740 CURVE SMOOTH",
"214 742 OFFCURVE",
"215 744 OFFCURVE",
"215 747 CURVE SMOOTH",
"215 755 OFFCURVE",
"206 757 OFFCURVE",
"200 757 CURVE SMOOTH",
"184 757 OFFCURVE",
"158 748 OFFCURVE",
"154 731 CURVE SMOOTH",
"150 716 OFFCURVE",
"150 699 OFFCURVE",
"147 683 CURVE SMOOTH",
"131 597 LINE SMOOTH",
"112 495 OFFCURVE",
"91 393 OFFCURVE",
"69 291 CURVE",
"60 291 OFFCURVE",
"23 291 OFFCURVE",
"23 278 CURVE SMOOTH",
"23 264 OFFCURVE",
"54 259 OFFCURVE",
"64 258 CURVE",
"48 166 OFFCURVE",
"27 76 OFFCURVE",
"8 -15 CURVE",
"8 -19 LINE SMOOTH",
"8 -25 OFFCURVE",
"11 -27 OFFCURVE",
"16 -27 CURVE SMOOTH",
"31 -27 OFFCURVE",
"59 -9 OFFCURVE",
"65 5 CURVE SMOOTH",
"72 24 OFFCURVE",
"77 68 OFFCURVE",
"80 90 CURVE SMOOTH",
"88 144 OFFCURVE",
"97 199 OFFCURVE",
"111 251 CURVE",
"111 252 OFFCURVE",
"113 252 OFFCURVE",
"114 252 CURVE SMOOTH",
"130 255 OFFCURVE",
"149 255 OFFCURVE",
"165 255 CURVE SMOOTH",
"228 257 OFFCURVE",
"291 257 OFFCURVE",
"353 257 CURVE SMOOTH",
"408 257 OFFCURVE",
"463 257 OFFCURVE",
"518 256 CURVE SMOOTH",
"548 256 OFFCURVE",
"579 257 OFFCURVE",
"609 255 CURVE",
"598 193 OFFCURVE",
"584 131 OFFCURVE",
"572 69 CURVE SMOOTH",
"569 52 OFFCURVE",
"557 0 OFFCURVE",
"557 -15 CURVE SMOOTH",
"557 -24 OFFCURVE",
"565 -24 OFFCURVE",
"572 -24 CURVE SMOOTH",
"587 -24 OFFCURVE",
"614 -17 OFFCURVE",
"618 0 CURVE SMOOTH",
"623 20 OFFCURVE",
"624 49 OFFCURVE",
"626 70 CURVE SMOOTH",
"634 133 OFFCURVE",
"639 197 OFFCURVE",
"654 259 CURVE",
"666 260 OFFCURVE",
"741 267 OFFCURVE",
"741 278 CURVE SMOOTH",
"741 292 OFFCURVE",
"667 292 OFFCURVE",
"656 292 CURVE"
);
}
);
width = 792;
}
);
note = H;
unicode = 0048;
},
{
color = 3;
glyphname = I;
lastChange = "2021-09-01 22:40:03 +0000";
layers = (
{
hints = (
{
horizontal = 1;
place = "{-23, 23}";
type = Stem;
},
{
horizontal = 1;
place = "{566, 28}";
type = Stem;
},
{
horizontal = 1;
place = "{618, -20}";
target = down;
type = TopGhost;
}
);
layerId = "22FBF237-8195-4580-A019-F135C28A8A87";
paths = (
{
closed = 1;
nodes = (
"514 713 OFFCURVE",
"513 716 OFFCURVE",
"511 719 CURVE",
"501 741 OFFCURVE",
"415 743 OFFCURVE",
"394 744 CURVE SMOOTH",
"374 745 LINE",
"370 747 OFFCURVE",
"374 773 OFFCURVE",
"358 773 CURVE SMOOTH",
"344 773 OFFCURVE",
"323 753 OFFCURVE",
"315 742 CURVE",
"268 739 OFFCURVE",
"198 736 OFFCURVE",
"155 721 CURVE SMOOTH",
"152 720 OFFCURVE",
"139 717 OFFCURVE",
"139 711 CURVE SMOOTH",
"139 700 OFFCURVE",
"169 699 OFFCURVE",
"176 700 CURVE SMOOTH",
"216 705 OFFCURVE",
"255 708 OFFCURVE",
"295 708 CURVE",
"295 706 LINE SMOOTH",
"295 691 OFFCURVE",
"287 665 OFFCURVE",
"283 650 CURVE SMOOTH",
"273 601 OFFCURVE",
"261 552 OFFCURVE",
"250 503 CURVE SMOOTH",
"215 346 OFFCURVE",
"179 188 OFFCURVE",
"151 28 CURVE",
"148 17 OFFCURVE",
"109 13 OFFCURVE",
"104 13 CURVE SMOOTH",
"91 13 OFFCURVE",
"0 10 OFFCURVE",
"0 -5 CURVE SMOOTH",
"0 -17 OFFCURVE",
"50 -17 OFFCURVE",
"57 -17 CURVE SMOOTH",
"107 -17 OFFCURVE",
"157 -14 OFFCURVE",
"208 -14 CURVE SMOOTH",
"243 -14 OFFCURVE",
"279 -15 OFFCURVE",
"315 -15 CURVE SMOOTH",
"321 -15 OFFCURVE",
"369 -15 OFFCURVE",
"369 -4 CURVE SMOOTH",
"369 -1 OFFCURVE",
"363 1 OFFCURVE",
"362 1 CURVE",
"331 11 OFFCURVE",
"277 10 OFFCURVE",
"243 14 CURVE SMOOTH",
"239 14 OFFCURVE",
"208 16 OFFCURVE",
"208 21 CURVE SMOOTH",
"208 107 OFFCURVE",
"316 625 OFFCURVE",
"353 699 CURVE SMOOTH",
"359 711 OFFCURVE",
"389 710 OFFCURVE",
"400 710 CURVE SMOOTH",
"421 710 OFFCURVE",
"443 709 OFFCURVE",
"464 709 CURVE SMOOTH",
"479 709 OFFCURVE",
"494 706 OFFCURVE",
"508 706 CURVE SMOOTH",
"511 706 OFFCURVE",
"514 706 OFFCURVE",
"514 710 CURVE SMOOTH"
);
}
);
width = 368;
}
);
note = I;
unicode = 0049;
},
{
color = 11;
glyphname = Iacute;
lastChange = "2021-09-02 04:37:43 +0000";
layers = (
{
hints = (
{
horizontal = 1;
place = "{-23, 23}";
type = Stem;
},
{
horizontal = 1;
place = "{566, 28}";
type = Stem;
},
{
horizontal = 1;
place = "{618, -20}";
target = down;
type = TopGhost;
},
{
horizontal = 1;
place = "{802, 20}";
type = Stem;
}
);
layerId = "22FBF237-8195-4580-A019-F135C28A8A87";
paths = (
{
closed = 1;
nodes = (
"514 713 OFFCURVE",
"513 716 OFFCURVE",
"511 719 CURVE",
"501 741 OFFCURVE",
"415 743 OFFCURVE",
"394 744 CURVE SMOOTH",
"374 745 LINE",
"370 747 OFFCURVE",
"374 773 OFFCURVE",
"358 773 CURVE SMOOTH",
"344 773 OFFCURVE",
"323 753 OFFCURVE",
"315 742 CURVE",
"268 739 OFFCURVE",
"198 736 OFFCURVE",
"155 721 CURVE SMOOTH",
"152 720 OFFCURVE",
"139 717 OFFCURVE",
"139 711 CURVE SMOOTH",
"139 700 OFFCURVE",
"169 699 OFFCURVE",
"176 700 CURVE SMOOTH",
"216 705 OFFCURVE",
"255 708 OFFCURVE",
"295 708 CURVE",
"295 706 LINE SMOOTH",
"295 691 OFFCURVE",
"287 665 OFFCURVE",
"283 650 CURVE SMOOTH",
"273 601 OFFCURVE",
"261 552 OFFCURVE",
"250 503 CURVE SMOOTH",
"215 346 OFFCURVE",
"179 188 OFFCURVE",
"151 28 CURVE",
"148 17 OFFCURVE",
"109 13 OFFCURVE",
"104 13 CURVE SMOOTH",
"91 13 OFFCURVE",
"0 10 OFFCURVE",
"0 -5 CURVE SMOOTH",
"0 -17 OFFCURVE",
"50 -17 OFFCURVE",
"57 -17 CURVE SMOOTH",
"107 -17 OFFCURVE",
"157 -14 OFFCURVE",
"208 -14 CURVE SMOOTH",
"243 -14 OFFCURVE",
"279 -15 OFFCURVE",
"315 -15 CURVE SMOOTH",
"321 -15 OFFCURVE",
"369 -15 OFFCURVE",
"369 -4 CURVE SMOOTH",
"369 -1 OFFCURVE",
"363 1 OFFCURVE",
"362 1 CURVE",
"331 11 OFFCURVE",
"277 10 OFFCURVE",
"243 14 CURVE SMOOTH",
"239 14 OFFCURVE",
"208 16 OFFCURVE",
"208 21 CURVE SMOOTH",
"208 107 OFFCURVE",
"316 625 OFFCURVE",
"353 699 CURVE SMOOTH",
"359 711 OFFCURVE",
"389 710 OFFCURVE",
"400 710 CURVE SMOOTH",
"421 710 OFFCURVE",
"443 709 OFFCURVE",
"464 709 CURVE SMOOTH",
"479 709 OFFCURVE",
"494 706 OFFCURVE",
"508 706 CURVE SMOOTH",
"511 706 OFFCURVE",
"514 706 OFFCURVE",
"514 710 CURVE SMOOTH"
);
},
{
closed = 1;
nodes = (
"474 917 OFFCURVE",
"456 928 OFFCURVE",
"444 928 CURVE SMOOTH",
"433 928 OFFCURVE",
"422 924 OFFCURVE",
"417 912 CURVE SMOOTH",
"399 867 OFFCURVE",
"366 851 OFFCURVE",
"330 823 CURVE SMOOTH",
"326 820 OFFCURVE",
"316 810 OFFCURVE",
"316 804 CURVE SMOOTH",
"316 803 OFFCURVE",
"317 802 OFFCURVE",
"318 802 CURVE SMOOTH",
"332 802 OFFCURVE",
"409 855 OFFCURVE",
"427 866 CURVE SMOOTH",
"439 873 OFFCURVE",
"474 887 OFFCURVE",
"474 904 CURVE SMOOTH"
);
}
);
width = 368;
}
);
note = Iacute;
unicode = 00CD;
},
{
color = 11;
glyphname = Icircumflex;
lastChange = "2021-09-02 04:37:43 +0000";
layers = (
{
hints = (
{
horizontal = 1;
place = "{-23, 23}";
type = Stem;
},
{
horizontal = 1;
place = "{566, 28}";
type = Stem;
},
{
horizontal = 1;
place = "{618, -20}";
target = down;
type = TopGhost;
}
);
layerId = "22FBF237-8195-4580-A019-F135C28A8A87";
paths = (
{
closed = 1;
nodes = (
"514 713 OFFCURVE",
"513 716 OFFCURVE",
"511 719 CURVE",
"501 741 OFFCURVE",
"415 743 OFFCURVE",
"394 744 CURVE SMOOTH",
"374 745 LINE",
"370 747 OFFCURVE",
"374 773 OFFCURVE",
"358 773 CURVE SMOOTH",
"344 773 OFFCURVE",
"323 753 OFFCURVE",
"315 742 CURVE",
"268 739 OFFCURVE",
"198 736 OFFCURVE",
"155 721 CURVE SMOOTH",
"152 720 OFFCURVE",
"139 717 OFFCURVE",
"139 711 CURVE SMOOTH",
"139 700 OFFCURVE",
"169 699 OFFCURVE",
"176 700 CURVE SMOOTH",
"216 705 OFFCURVE",
"255 708 OFFCURVE",
"295 708 CURVE",
"295 706 LINE SMOOTH",
"295 691 OFFCURVE",
"287 665 OFFCURVE",
"283 650 CURVE SMOOTH",
"273 601 OFFCURVE",
"261 552 OFFCURVE",
"250 503 CURVE SMOOTH",
"215 346 OFFCURVE",
"179 188 OFFCURVE",
"151 28 CURVE",
"148 17 OFFCURVE",
"109 13 OFFCURVE",
"104 13 CURVE SMOOTH",
"91 13 OFFCURVE",
"0 10 OFFCURVE",
"0 -5 CURVE SMOOTH",
"0 -17 OFFCURVE",
"50 -17 OFFCURVE",
"57 -17 CURVE SMOOTH",
"107 -17 OFFCURVE",
"157 -14 OFFCURVE",
"208 -14 CURVE SMOOTH",
"243 -14 OFFCURVE",
"279 -15 OFFCURVE",
"315 -15 CURVE SMOOTH",
"321 -15 OFFCURVE",
"369 -15 OFFCURVE",
"369 -4 CURVE SMOOTH",
"369 -1 OFFCURVE",
"363 1 OFFCURVE",
"362 1 CURVE",
"331 11 OFFCURVE",
"277 10 OFFCURVE",
"243 14 CURVE SMOOTH",
"239 14 OFFCURVE",
"208 16 OFFCURVE",
"208 21 CURVE SMOOTH",
"208 107 OFFCURVE",
"316 625 OFFCURVE",
"353 699 CURVE SMOOTH",
"359 711 OFFCURVE",
"389 710 OFFCURVE",
"400 710 CURVE SMOOTH",
"421 710 OFFCURVE",
"443 709 OFFCURVE",
"464 709 CURVE SMOOTH",
"479 709 OFFCURVE",
"494 706 OFFCURVE",
"508 706 CURVE SMOOTH",
"511 706 OFFCURVE",
"514 706 OFFCURVE",
"514 710 CURVE SMOOTH"
);
},
{
closed = 1;
nodes = (
"501 805 LINE",
"497 815 LINE",
"456 848 OFFCURVE",
"415 882 OFFCURVE",
"381 923 CURVE",
"375 925 LINE",
"356 921 OFFCURVE",
"230 825 OFFCURVE",
"230 812 CURVE SMOOTH",
"230 809 OFFCURVE",
"232 802 OFFCURVE",
"236 802 CURVE SMOOTH",
"247 802 OFFCURVE",
"343 874 OFFCURVE",
"358 886 CURVE",
"378 862 OFFCURVE",
"466 800 OFFCURVE",
"496 798 CURVE"
);
}
);
width = 368;
}
);
note = Icircumflex;
unicode = 00CE;
},
{
color = 11;
glyphname = Idieresis;
lastChange = "2021-09-02 04:37:43 +0000";
layers = (
{
hints = (
{
horizontal = 1;
place = "{-23, 23}";
type = Stem;
},
{
horizontal = 1;
place = "{566, 28}";
type = Stem;
},
{
horizontal = 1;
place = "{618, -20}";
target = down;
type = TopGhost;
},
{
horizontal = 1;
place = "{809, 20}";
type = Stem;
}
);
layerId = "22FBF237-8195-4580-A019-F135C28A8A87";
paths = (
{
closed = 1;
nodes = (
"514 713 OFFCURVE",
"513 716 OFFCURVE",
"511 719 CURVE",
"501 741 OFFCURVE",
"415 743 OFFCURVE",
"394 744 CURVE SMOOTH",
"374 745 LINE",
"370 747 OFFCURVE",
"374 773 OFFCURVE",
"358 773 CURVE SMOOTH",
"344 773 OFFCURVE",
"323 753 OFFCURVE",
"315 742 CURVE",
"268 739 OFFCURVE",
"198 736 OFFCURVE",
"155 721 CURVE SMOOTH",
"152 720 OFFCURVE",
"139 717 OFFCURVE",
"139 711 CURVE SMOOTH",
"139 700 OFFCURVE",
"169 699 OFFCURVE",
"176 700 CURVE SMOOTH",
"216 705 OFFCURVE",
"255 708 OFFCURVE",
"295 708 CURVE",
"295 706 LINE SMOOTH",
"295 691 OFFCURVE",
"287 665 OFFCURVE",
"283 650 CURVE SMOOTH",
"273 601 OFFCURVE",
"261 552 OFFCURVE",
"250 503 CURVE SMOOTH",
"215 346 OFFCURVE",
"179 188 OFFCURVE",
"151 28 CURVE",
"148 17 OFFCURVE",
"109 13 OFFCURVE",
"104 13 CURVE SMOOTH",
"91 13 OFFCURVE",
"0 10 OFFCURVE",
"0 -5 CURVE SMOOTH",
"0 -17 OFFCURVE",
"50 -17 OFFCURVE",
"57 -17 CURVE SMOOTH",
"107 -17 OFFCURVE",
"157 -14 OFFCURVE",
"208 -14 CURVE SMOOTH",
"243 -14 OFFCURVE",
"279 -15 OFFCURVE",
"315 -15 CURVE SMOOTH",
"321 -15 OFFCURVE",
"369 -15 OFFCURVE",
"369 -4 CURVE SMOOTH",
"369 -1 OFFCURVE",
"363 1 OFFCURVE",
"362 1 CURVE",
"331 11 OFFCURVE",
"277 10 OFFCURVE",
"243 14 CURVE SMOOTH",
"239 14 OFFCURVE",
"208 16 OFFCURVE",
"208 21 CURVE SMOOTH",
"208 107 OFFCURVE",
"316 625 OFFCURVE",
"353 699 CURVE SMOOTH",
"359 711 OFFCURVE",
"389 710 OFFCURVE",
"400 710 CURVE SMOOTH",
"421 710 OFFCURVE",
"443 709 OFFCURVE",
"464 709 CURVE SMOOTH",
"479 709 OFFCURVE",
"494 706 OFFCURVE",
"508 706 CURVE SMOOTH",
"511 706 OFFCURVE",
"514 706 OFFCURVE",
"514 710 CURVE SMOOTH"
);
},
{
closed = 1;
nodes = (
"477 894 LINE",
"474 895 LINE",
"463 895 OFFCURVE",
"423 873 OFFCURVE",
"415 865 CURVE",
"407 862 OFFCURVE",
"397 849 OFFCURVE",
"397 840 CURVE SMOOTH",
"397 831 OFFCURVE",
"407 809 OFFCURVE",
"418 809 CURVE SMOOTH",
"444 809 OFFCURVE",
"450 858 OFFCURVE",
"462 875 CURVE SMOOTH",
"464 878 OFFCURVE",
"477 891 OFFCURVE",
"477 893 CURVE SMOOTH"
);
},
{
closed = 1;
nodes = (
"343 894 LINE",
"340 895 LINE",
"329 895 OFFCURVE",
"289 873 OFFCURVE",
"281 865 CURVE",
"273 862 OFFCURVE",
"263 849 OFFCURVE",
"263 840 CURVE SMOOTH",
"263 831 OFFCURVE",
"273 809 OFFCURVE",
"284 809 CURVE SMOOTH",
"310 809 OFFCURVE",
"316 858 OFFCURVE",
"328 875 CURVE SMOOTH",
"330 878 OFFCURVE",
"343 891 OFFCURVE",
"343 893 CURVE SMOOTH"
);
}
);
width = 368;
}
);
note = Idieresis;
unicode = 00CF;
},
{
color = 11;
glyphname = Igrave;
lastChange = "2021-09-02 04:37:43 +0000";
layers = (
{
hints = (
{
horizontal = 1;
place = "{-23, 23}";
type = Stem;
},
{
horizontal = 1;
place = "{566, 28}";
type = Stem;
},
{
horizontal = 1;
place = "{618, -20}";
target = down;
type = TopGhost;
},
{
horizontal = 1;
place = "{796, 20}";
type = Stem;
}
);
layerId = "22FBF237-8195-4580-A019-F135C28A8A87";
paths = (
{
closed = 1;
nodes = (
"514 713 OFFCURVE",
"513 716 OFFCURVE",
"511 719 CURVE",
"501 741 OFFCURVE",
"415 743 OFFCURVE",
"394 744 CURVE SMOOTH",
"374 745 LINE",
"370 747 OFFCURVE",
"374 773 OFFCURVE",
"358 773 CURVE SMOOTH",
"344 773 OFFCURVE",
"323 753 OFFCURVE",
"315 742 CURVE",
"268 739 OFFCURVE",
"198 736 OFFCURVE",
"155 721 CURVE SMOOTH",
"152 720 OFFCURVE",
"139 717 OFFCURVE",
"139 711 CURVE SMOOTH",
"139 700 OFFCURVE",
"169 699 OFFCURVE",
"176 700 CURVE SMOOTH",
"216 705 OFFCURVE",
"255 708 OFFCURVE",
"295 708 CURVE",
"295 706 LINE SMOOTH",
"295 691 OFFCURVE",
"287 665 OFFCURVE",
"283 650 CURVE SMOOTH",
"273 601 OFFCURVE",
"261 552 OFFCURVE",
"250 503 CURVE SMOOTH",
"215 346 OFFCURVE",
"179 188 OFFCURVE",
"151 28 CURVE",
"148 17 OFFCURVE",
"109 13 OFFCURVE",
"104 13 CURVE SMOOTH",
"91 13 OFFCURVE",
"0 10 OFFCURVE",
"0 -5 CURVE SMOOTH",
"0 -17 OFFCURVE",
"50 -17 OFFCURVE",
"57 -17 CURVE SMOOTH",
"107 -17 OFFCURVE",
"157 -14 OFFCURVE",
"208 -14 CURVE SMOOTH",
"243 -14 OFFCURVE",
"279 -15 OFFCURVE",
"315 -15 CURVE SMOOTH",
"321 -15 OFFCURVE",
"369 -15 OFFCURVE",
"369 -4 CURVE SMOOTH",
"369 -1 OFFCURVE",
"363 1 OFFCURVE",
"362 1 CURVE",
"331 11 OFFCURVE",
"277 10 OFFCURVE",
"243 14 CURVE SMOOTH",
"239 14 OFFCURVE",
"208 16 OFFCURVE",
"208 21 CURVE SMOOTH",
"208 107 OFFCURVE",
"316 625 OFFCURVE",
"353 699 CURVE SMOOTH",
"359 711 OFFCURVE",
"389 710 OFFCURVE",
"400 710 CURVE SMOOTH",
"421 710 OFFCURVE",
"443 709 OFFCURVE",
"464 709 CURVE SMOOTH",
"479 709 OFFCURVE",
"494 706 OFFCURVE",
"508 706 CURVE SMOOTH",
"511 706 OFFCURVE",
"514 706 OFFCURVE",
"514 710 CURVE SMOOTH"
);
},
{
closed = 1;
nodes = (
"437 804 OFFCURVE",
"428 813 OFFCURVE",
"424 816 CURVE SMOOTH",
"390 845 OFFCURVE",
"359 860 OFFCURVE",
"345 906 CURVE SMOOTH",
"341 917 OFFCURVE",
"330 922 OFFCURVE",
"319 922 CURVE SMOOTH",
"308 922 OFFCURVE",
"287 910 OFFCURVE",
"287 898 CURVE SMOOTH",
"287 880 OFFCURVE",
"318 867 OFFCURVE",
"331 859 CURVE SMOOTH",
"348 848 OFFCURVE",
"420 796 OFFCURVE",
"434 796 CURVE SMOOTH",
"435 796 OFFCURVE",
"437 797 OFFCURVE",
"437 798 CURVE SMOOTH"
);
}
);
width = 368;
}
);
note = Igrave;
unicode = 00CC;
},
{
color = 3;
glyphname = J;
lastChange = "2021-09-01 22:40:03 +0000";
layers = (
{
hints = (
{
horizontal = 1;
place = "{580, 27}";
type = Stem;
},
{
horizontal = 1;
place = "{631, -20}";
target = down;
type = TopGhost;
}
);
layerId = "22FBF237-8195-4580-A019-F135C28A8A87";
paths = (
{
closed = 1;
nodes = (
"420 727 OFFCURVE",
"419 730 OFFCURVE",
"418 733 CURVE SMOOTH",
"407 758 OFFCURVE",
"318 759 OFFCURVE",
"293 760 CURVE SMOOTH",
"287 761 OFFCURVE",
"284 760 OFFCURVE",
"279 761 CURVE SMOOTH",
"274 763 OFFCURVE",
"281 790 OFFCURVE",
"264 790 CURVE SMOOTH",
"250 790 OFFCURVE",
"228 769 OFFCURVE",
"219 759 CURVE",
"171 756 OFFCURVE",
"100 751 OFFCURVE",
"55 736 CURVE SMOOTH",
"52 735 OFFCURVE",
"37 731 OFFCURVE",
"37 725 CURVE SMOOTH",
"37 717 OFFCURVE",
"56 713 OFFCURVE",
"61 713 CURVE",
"61 714 LINE",
"106 719 OFFCURVE",
"151 722 OFFCURVE",
"195 724 CURVE",
"194 667 OFFCURVE",
"178 603 OFFCURVE",
"166 548 CURVE SMOOTH",
"145 453 OFFCURVE",
"122 358 OFFCURVE",
"100 264 CURVE SMOOTH",
"72 146 OFFCURVE",
"-31 -234 OFFCURVE",
"-189 -234 CURVE SMOOTH",
"-199 -234 LINE",
"-253 -226 OFFCURVE",
"-281 -190 OFFCURVE",
"-301 -142 CURVE SMOOTH",
"-308 -125 OFFCURVE",
"-313 -108 OFFCURVE",
"-318 -91 CURVE",
"-319 -90 OFFCURVE",
"-322 -78 OFFCURVE",
"-323 -78 CURVE SMOOTH",
"-325 -78 OFFCURVE",
"-325 -85 OFFCURVE",
"-326 -85 CURVE",
"-327 -93 OFFCURVE",
"-327 -102 OFFCURVE",
"-327 -110 CURVE SMOOTH",
"-327 -187 OFFCURVE",
"-277 -256 OFFCURVE",
"-195 -256 CURVE SMOOTH",
"8 -256 OFFCURVE",
"111 104 OFFCURVE",
"150 251 CURVE SMOOTH",
"191 407 OFFCURVE",
"220 567 OFFCURVE",
"250 725 CURVE",
"291 724 OFFCURVE",
"332 724 OFFCURVE",
"373 724 CURVE SMOOTH",
"387 724 OFFCURVE",
"401 720 OFFCURVE",
"414 720 CURVE SMOOTH",
"417 720 OFFCURVE",
"420 721 OFFCURVE",
"420 724 CURVE SMOOTH"
);
}
);
width = 303;
}
);
note = J;
unicode = 004A;
},
{
color = 3;
glyphname = K;
lastChange = "2021-09-01 22:40:03 +0000";
layers = (
{
hints = (
{
horizontal = 1;
place = "{631, -20}";
target = down;
type = TopGhost;
}
);
layerId = "22FBF237-8195-4580-A019-F135C28A8A87";
paths = (
{
closed = 1;
nodes = (
"581 788 OFFCURVE",
"182 407 OFFCURVE",
"115 349 CURVE",
"128 426 OFFCURVE",
"144 503 OFFCURVE",
"168 578 CURVE SMOOTH",
"185 632 OFFCURVE",
"206 683 OFFCURVE",
"226 736 CURVE",
"226 738 LINE SMOOTH",
"226 744 OFFCURVE",
"212 744 OFFCURVE",
"209 744 CURVE SMOOTH",
"193 744 OFFCURVE",
"162 740 OFFCURVE",
"155 723 CURVE SMOOTH",
"151 714 OFFCURVE",
"150 704 OFFCURVE",
"148 694 CURVE SMOOTH",
"130 621 LINE SMOOTH",
"96 481 OFFCURVE",
"65 340 OFFCURVE",
"43 197 CURVE SMOOTH",
"34 145 OFFCURVE",
"27 92 OFFCURVE",
"22 39 CURVE SMOOTH",
"22 34 OFFCURVE",
"18 -5 OFFCURVE",
"18 -10 CURVE SMOOTH",
"18 -18 OFFCURVE",
"23 -21 OFFCURVE",
"30 -21 CURVE SMOOTH",
"53 -21 OFFCURVE",
"71 0 OFFCURVE",
"75 21 CURVE SMOOTH",
"77 32 OFFCURVE",
"77 43 OFFCURVE",
"78 54 CURVE SMOOTH",
"84 116 LINE SMOOTH",
"91 187 OFFCURVE",
"100 257 OFFCURVE",
"111 328 CURVE",
"178 211 OFFCURVE",
"383 -50 OFFCURVE",
"529 -50 CURVE SMOOTH",
"540 -50 OFFCURVE",
"583 -39 OFFCURVE",
"583 -23 CURVE SMOOTH",
"583 -19 OFFCURVE",
"575 -19 OFFCURVE",
"572 -19 CURVE SMOOTH",
"557 -19 OFFCURVE",
"543 -26 OFFCURVE",
"529 -26 CURVE SMOOTH",
"467 -26 OFFCURVE",
"346 105 OFFCURVE",
"304 150 CURVE SMOOTH",
"248 209 OFFCURVE",
"197 276 OFFCURVE",
"156 346 CURVE",
"193 386 OFFCURVE",
"235 422 OFFCURVE",
"275 459 CURVE SMOOTH",
"356 534 OFFCURVE",
"439 608 OFFCURVE",
"527 675 CURVE SMOOTH",
"548 692 OFFCURVE",
"570 706 OFFCURVE",
"592 722 CURVE SMOOTH",
"608 734 OFFCURVE",
"631 757 OFFCURVE",
"631 779 CURVE SMOOTH",
"631 784 OFFCURVE",
"629 788 OFFCURVE",
"623 788 CURVE SMOOTH"
);
}
);
width = 541;
}
);
note = K;
unicode = 004B;
},
{
color = 3;
glyphname = L;
lastChange = "2021-09-01 22:40:03 +0000";
layers = (
{
hints = (
{
horizontal = 1;
place = "{-12, 25}";
type = Stem;
},
{
horizontal = 1;
place = "{602, -20}";
target = down;
type = TopGhost;
}
);
layerId = "22FBF237-8195-4580-A019-F135C28A8A87";
paths = (
{
closed = 1;
nodes = (
"472 52 OFFCURVE",
"462 51 OFFCURVE",
"455 51 CURVE SMOOTH",
"442 51 OFFCURVE",
"431 44 OFFCURVE",
"418 40 CURVE SMOOTH",
"407 37 OFFCURVE",
"395 34 OFFCURVE",
"383 32 CURVE SMOOTH",
"333 24 OFFCURVE",
"281 22 OFFCURVE",
"230 20 CURVE SMOOTH",
"220 20 OFFCURVE",
"210 19 OFFCURVE",
"200 19 CURVE SMOOTH",
"174 19 OFFCURVE",
"81 21 OFFCURVE",
"68 53 CURVE SMOOTH",
"63 65 OFFCURVE",
"62 79 OFFCURVE",
"62 92 CURVE SMOOTH",
"62 135 OFFCURVE",
"71 179 OFFCURVE",
"79 222 CURVE SMOOTH",
"95 302 OFFCURVE",
"117 381 OFFCURVE",
"134 461 CURVE SMOOTH",
"145 518 OFFCURVE",
"158 575 OFFCURVE",
"172 631 CURVE SMOOTH",
"178 658 OFFCURVE",
"184 687 OFFCURVE",
"193 713 CURVE SMOOTH",
"195 720 OFFCURVE",
"199 728 OFFCURVE",
"199 736 CURVE SMOOTH",
"199 750 OFFCURVE",
"184 751 OFFCURVE",
"174 751 CURVE SMOOTH",
"156 751 OFFCURVE",
"89 745 OFFCURVE",
"89 723 CURVE SMOOTH",
"89 719 OFFCURVE",
"94 717 OFFCURVE",
"98 717 CURVE SMOOTH",
"103 717 OFFCURVE",
"109 719 OFFCURVE",
"114 719 CURVE SMOOTH",
"118 719 OFFCURVE",
"132 719 OFFCURVE",
"132 712 CURVE SMOOTH",
"132 694 OFFCURVE",
"126 673 OFFCURVE",
"123 655 CURVE SMOOTH",
"116 621 OFFCURVE",
"108 586 OFFCURVE",
"100 552 CURVE SMOOTH",
"77 449 OFFCURVE",
"52 347 OFFCURVE",
"31 244 CURVE SMOOTH",
"18 181 OFFCURVE",
"2 110 OFFCURVE",
"2 46 CURVE SMOOTH",
"2 37 OFFCURVE",
"2 28 OFFCURVE",
"4 20 CURVE SMOOTH",
"10 -4 OFFCURVE",
"232 -9 OFFCURVE",
"264 -9 CURVE SMOOTH",
"297 -9 LINE SMOOTH",
"320 -9 OFFCURVE",
"472 0 OFFCURVE",
"472 42 CURVE SMOOTH"
);
}
);
width = 518;
}
);
note = L;
unicode = 004C;
},
{
color = 11;
glyphname = Lslash;
lastChange = "2021-09-02 04:37:43 +0000";
layers = (
{
hints = (
{
horizontal = 1;
place = "{-12, 25}";
type = Stem;
},
{
horizontal = 1;
place = "{169, 29}";
type = Stem;
},
{
horizontal = 1;
place = "{602, -20}";
target = down;
type = TopGhost;
}
);
layerId = "22FBF237-8195-4580-A019-F135C28A8A87";
paths = (
{
closed = 1;
nodes = (
"202 283 LINE SMOOTH",
"165 283 OFFCURVE",
"128 282 OFFCURVE",
"92 282 CURVE",
"105 341 OFFCURVE",
"121 401 OFFCURVE",
"134 461 CURVE SMOOTH",
"145 518 OFFCURVE",
"158 575 OFFCURVE",
"172 631 CURVE SMOOTH",
"178 658 OFFCURVE",
"184 687 OFFCURVE",
"193 713 CURVE SMOOTH",
"195 720 OFFCURVE",
"199 728 OFFCURVE",
"199 736 CURVE SMOOTH",
"199 750 OFFCURVE",
"184 751 OFFCURVE",
"174 751 CURVE SMOOTH",
"156 751 OFFCURVE",
"89 745 OFFCURVE",
"89 723 CURVE SMOOTH",
"89 719 OFFCURVE",
"94 717 OFFCURVE",
"98 717 CURVE SMOOTH",
"103 717 OFFCURVE",
"109 719 OFFCURVE",
"114 719 CURVE SMOOTH",
"118 719 OFFCURVE",
"132 719 OFFCURVE",
"132 712 CURVE SMOOTH",
"132 694 OFFCURVE",
"126 673 OFFCURVE",
"123 655 CURVE SMOOTH",
"116 621 OFFCURVE",
"108 586 OFFCURVE",
"100 552 CURVE SMOOTH",
"79 461 OFFCURVE",
"58 371 OFFCURVE",
"38 281 CURVE",
"-5 281 LINE",
"-4 282 OFFCURVE",
"-3 284 OFFCURVE",
"-3 286 CURVE SMOOTH",
"-3 290 OFFCURVE",
"-9 291 OFFCURVE",
"-12 291 CURVE SMOOTH",
"-29 291 OFFCURVE",
"-57 288 OFFCURVE",
"-57 265 CURVE SMOOTH",
"-57 256 OFFCURVE",
"-51 252 OFFCURVE",
"-42 252 CURVE SMOOTH",
"-35 252 OFFCURVE",
"-28 254 OFFCURVE",
"-20 254 CURVE SMOOTH",
"-2 254 OFFCURVE",
"15 255 OFFCURVE",
"33 255 CURVE",
"31 244 LINE SMOOTH",
"18 181 OFFCURVE",
"2 110 OFFCURVE",
"2 46 CURVE SMOOTH",
"2 37 OFFCURVE",
"2 28 OFFCURVE",
"4 20 CURVE SMOOTH",
"10 -4 OFFCURVE",
"232 -9 OFFCURVE",
"264 -9 CURVE SMOOTH",
"297 -9 LINE SMOOTH",
"320 -8 OFFCURVE",
"472 0 OFFCURVE",
"472 42 CURVE SMOOTH",
"472 52 OFFCURVE",
"462 51 OFFCURVE",
"455 51 CURVE SMOOTH",
"442 51 OFFCURVE",
"431 44 OFFCURVE",
"418 40 CURVE SMOOTH",
"407 37 OFFCURVE",
"395 34 OFFCURVE",
"383 32 CURVE SMOOTH",
"333 24 OFFCURVE",
"281 22 OFFCURVE",
"230 20 CURVE SMOOTH",
"220 20 OFFCURVE",
"210 19 OFFCURVE",
"200 19 CURVE SMOOTH",
"174 19 OFFCURVE",
"81 21 OFFCURVE",
"68 53 CURVE SMOOTH",
"63 65 OFFCURVE",
"62 79 OFFCURVE",
"62 92 CURVE SMOOTH",
"62 135 OFFCURVE",
"71 179 OFFCURVE",
"79 222 CURVE SMOOTH",
"86 257 LINE",
"139 260 OFFCURVE",
"192 264 OFFCURVE",
"246 269 CURVE SMOOTH",
"249 269 OFFCURVE",
"270 270 OFFCURVE",
"270 276 CURVE SMOOTH",
"270 281 OFFCURVE",
"252 283 OFFCURVE",
"249 283 CURVE SMOOTH"
);
}
);
width = 518;
}
);
note = Lslash;
unicode = 0141;
},
{
color = 3;
glyphname = M;
lastChange = "2021-09-01 22:40:03 +0000";
layers = (
{
hints = (
{
horizontal = 1;
place = "{596, -20}";
target = down;
type = TopGhost;
},
{
place = "{10, 28}";
type = Stem;
},
{
place = "{825, 51}";
type = Stem;
}
);
layerId = "22FBF237-8195-4580-A019-F135C28A8A87";
paths = (
{
closed = 1;
nodes = (
"924 -15 OFFCURVE",
"923 -54 OFFCURVE",
"890 -54 CURVE SMOOTH",
"801 -54 OFFCURVE",
"800 157 OFFCURVE",
"800 214 CURVE SMOOTH",
"800 396 OFFCURVE",
"826 585 OFFCURVE",
"890 755 CURVE",
"889 770 OFFCURVE",
"867 771 OFFCURVE",
"857 771 CURVE SMOOTH",
"837 771 OFFCURVE",
"813 768 OFFCURVE",
"800 750 CURVE",
"799 737 OFFCURVE",
"798 720 OFFCURVE",
"794 708 CURVE SMOOTH",
"791 695 OFFCURVE",
"782 679 OFFCURVE",
"777 667 CURVE SMOOTH",
"742 589 LINE SMOOTH",
"702 500 OFFCURVE",
"531 120 OFFCURVE",
"425 120 CURVE SMOOTH",
"343 120 OFFCURVE",
"343 378 OFFCURVE",
"343 437 CURVE SMOOTH",
"343 514 OFFCURVE",
"348 591 OFFCURVE",
"357 668 CURVE SMOOTH",
"359 683 OFFCURVE",
"361 699 OFFCURVE",
"361 715 CURVE SMOOTH",
"361 719 OFFCURVE",
"361 734 OFFCURVE",
"358 737 CURVE SMOOTH",
"349 747 OFFCURVE",
"333 751 OFFCURVE",
"321 751 CURVE SMOOTH",
"305 751 OFFCURVE",
"294 744 OFFCURVE",
"294 726 CURVE SMOOTH",
"294 718 LINE",
"257 670 OFFCURVE",
"229 611 OFFCURVE",
"202 557 CURVE SMOOTH",
"129 413 OFFCURVE",
"-8 104 OFFCURVE",
"-8 -54 CURVE SMOOTH",
"-8 -74 OFFCURVE",
"-6 -96 OFFCURVE",
"3 -114 CURVE SMOOTH",
"5 -119 OFFCURVE",
"15 -135 OFFCURVE",
"22 -135 CURVE SMOOTH",
"27 -135 OFFCURVE",
"28 -123 OFFCURVE",
"28 -120 CURVE SMOOTH",
"28 -107 OFFCURVE",
"24 -92 OFFCURVE",
"24 -77 CURVE SMOOTH",
"24 115 OFFCURVE",
"192 492 OFFCURVE",
"297 658 CURVE",
"288 584 OFFCURVE",
"284 508 OFFCURVE",
"284 433 CURVE SMOOTH",
"284 359 OFFCURVE",
"286 62 OFFCURVE",
"395 62 CURVE SMOOTH",
"461 62 OFFCURVE",
"544 175 OFFCURVE",
"578 223 CURVE SMOOTH",
"658 332 OFFCURVE",
"718 453 OFFCURVE",
"778 574 CURVE",
"757 471 OFFCURVE",
"746 363 OFFCURVE",
"746 257 CURVE SMOOTH",
"746 152 OFFCURVE",
"758 -71 OFFCURVE",
"906 -71 CURVE SMOOTH",
"909 -71 OFFCURVE",
"935 -72 OFFCURVE",
"937 -64 CURVE",
"935 -61 OFFCURVE",
"932 -55 OFFCURVE",
"932 -51 CURVE SMOOTH",
"932 -38 OFFCURVE",
"943 -30 OFFCURVE",
"943 -20 CURVE SMOOTH",
"943 -17 OFFCURVE",
"941 -15 OFFCURVE",
"938 -15 CURVE SMOOTH"
);
}
);
width = 857;
}
);
note = M;
unicode = 004D;
},
{
color = 3;
glyphname = N;
lastChange = "2021-09-01 22:40:03 +0000";
layers = (
{
hints = (
{
horizontal = 1;
place = "{613, -20}";
target = down;
type = TopGhost;
},
{
place = "{477, 40}";
type = Stem;
}
);
layerId = "22FBF237-8195-4580-A019-F135C28A8A87";
paths = (
{
closed = 1;
nodes = (
"647 270 OFFCURVE",
"674 562 OFFCURVE",
"732 709 CURVE SMOOTH",
"735 716 OFFCURVE",
"736 723 OFFCURVE",
"736 731 CURVE SMOOTH",
"736 737 OFFCURVE",
"735 755 OFFCURVE",
"726 755 CURVE SMOOTH",
"716 755 OFFCURVE",
"705 732 OFFCURVE",
"703 726 CURVE",
"644 609 OFFCURVE",
"607 225 OFFCURVE",
"608 84 CURVE",
"467 133 OFFCURVE",
"302 569 OFFCURVE",
"248 714 CURVE",
"241 720 OFFCURVE",
"212 750 OFFCURVE",
"203 750 CURVE SMOOTH",
"190 750 OFFCURVE",
"165 718 OFFCURVE",
"165 705 CURVE SMOOTH",
"165 698 OFFCURVE",
"168 692 OFFCURVE",
"168 685 CURVE SMOOTH",
"168 683 OFFCURVE",
"168 681 OFFCURVE",
"167 679 CURVE",
"149 599 OFFCURVE",
"128 520 OFFCURVE",
"110 440 CURVE SMOOTH",
"72 275 OFFCURVE",
"29 108 OFFCURVE",
"29 -63 CURVE SMOOTH",
"29 -67 LINE SMOOTH",
"29 -74 OFFCURVE",
"31 -87 OFFCURVE",
"40 -87 CURVE SMOOTH",
"57 -87 OFFCURVE",
"63 -61 OFFCURVE",
"65 -50 CURVE SMOOTH",
"67 -36 OFFCURVE",
"67 -21 OFFCURVE",
"69 -7 CURVE SMOOTH",
"73 32 OFFCURVE",
"78 72 OFFCURVE",
"84 111 CURVE SMOOTH",
"103 247 OFFCURVE",
"130 382 OFFCURVE",
"161 516 CURVE SMOOTH",
"171 557 OFFCURVE",
"180 598 OFFCURVE",
"192 639 CURVE SMOOTH",
"197 656 LINE",
"198 663 OFFCURVE",
"195 673 OFFCURVE",
"201 673 CURVE SMOOTH",
"204 673 OFFCURVE",
"222 629 OFFCURVE",
"225 622 CURVE SMOOTH",
"244 576 OFFCURVE",
"262 530 OFFCURVE",
"282 485 CURVE SMOOTH",
"332 371 OFFCURVE",
"461 81 OFFCURVE",
"574 27 CURVE",
"580 4 OFFCURVE",
"591 -30 OFFCURVE",
"621 -30 CURVE SMOOTH",
"642 -30 OFFCURVE",
"659 22 OFFCURVE",
"659 38 CURVE SMOOTH",
"659 47 OFFCURVE",
"658 45 OFFCURVE",
"653 49 CURVE SMOOTH",
"646 56 OFFCURVE",
"647 101 OFFCURVE",
"647 109 CURVE SMOOTH"
);
}
);
width = 738;
}
);
note = N;
unicode = 004E;
},
{
color = 3;
glyphname = Eng;
lastChange = "2021-09-01 22:40:03 +0000";
layers = (
{
hints = (
{
horizontal = 1;
place = "{613, -20}";
target = down;
type = TopGhost;
},
{
place = "{477, 40}";
type = Stem;
}
);
layerId = "22FBF237-8195-4580-A019-F135C28A8A87";
paths = (
{
closed = 1;
nodes = (
"324 366 OFFCURVE",
"424 182 OFFCURVE",
"584 -2 CURVE",
"541 -173 OFFCURVE",
"468 -366 OFFCURVE",
"355 -366 CURVE SMOOTH",
"316 -366 OFFCURVE",
"287 -336 OFFCURVE",
"267 -305 CURVE SMOOTH",
"250 -279 OFFCURVE",
"232 -244 OFFCURVE",
"232 -212 CURVE SMOOTH",
"232 -207 OFFCURVE",
"232 -190 OFFCURVE",
"224 -190 CURVE SMOOTH",
"203 -190 OFFCURVE",
"196 -258 OFFCURVE",
"212 -300 CURVE SMOOTH",
"234 -354 OFFCURVE",
"297 -392 OFFCURVE",
"354 -392 CURVE SMOOTH",
"621 -392 OFFCURVE",
"684 205 OFFCURVE",
"744 717 CURVE SMOOTH",
"748 753 OFFCURVE",
"741 755 OFFCURVE",
"726 755 CURVE SMOOTH",
"705 755 OFFCURVE",
"705 732 OFFCURVE",
"703 726 CURVE",
"651 360 LINE",
"635 271 OFFCURVE",
"622 167 OFFCURVE",
"604 85 CURVE",
"486 167 OFFCURVE",
"302 570 OFFCURVE",
"248 714 CURVE",
"241 735 OFFCURVE",
"222 750 OFFCURVE",
"203 750 CURVE SMOOTH",
"190 750 OFFCURVE",
"165 718 OFFCURVE",
"165 705 CURVE SMOOTH",
"165 697 OFFCURVE",
"167 687 OFFCURVE",
"167 679 CURVE",
"149 599 OFFCURVE",
"128 520 OFFCURVE",
"110 440 CURVE SMOOTH",
"72 275 OFFCURVE",
"29 108 OFFCURVE",
"29 -63 CURVE SMOOTH",
"29 -67 LINE SMOOTH",
"29 -74 OFFCURVE",
"31 -87 OFFCURVE",
"40 -87 CURVE SMOOTH",
"57 -87 OFFCURVE",
"63 -61 OFFCURVE",
"65 -50 CURVE SMOOTH",
"67 -36 OFFCURVE",
"67 -21 OFFCURVE",
"69 -7 CURVE SMOOTH",
"73 32 OFFCURVE",
"78 72 OFFCURVE",
"84 111 CURVE SMOOTH",
"103 247 OFFCURVE",
"130 382 OFFCURVE",
"161 516 CURVE SMOOTH",
"170 554 OFFCURVE",
"177 595 OFFCURVE",
"196 651 CURVE",
"199 664 OFFCURVE",
"203 665 OFFCURVE",
"212 651 CURVE"
);
}
);
width = 738;
}
);
unicode = 014A;
},
{
color = 11;
glyphname = Ntilde;
lastChange = "2021-09-02 04:37:43 +0000";
layers = (
{
hints = (
{
horizontal = 1;
place = "{613, -20}";
target = down;
type = TopGhost;
},
{
place = "{477, 40}";
type = Stem;
},
{
horizontal = 1;
place = "{764, 25}";
type = Stem;
},
{
horizontal = 1;
place = "{805, 23}";
type = Stem;
}
);
layerId = "22FBF237-8195-4580-A019-F135C28A8A87";
paths = (
{
closed = 1;
nodes = (
"647 270 OFFCURVE",
"674 562 OFFCURVE",
"732 709 CURVE SMOOTH",
"735 716 OFFCURVE",
"736 723 OFFCURVE",
"736 731 CURVE SMOOTH",
"736 737 OFFCURVE",
"735 755 OFFCURVE",
"726 755 CURVE SMOOTH",
"716 755 OFFCURVE",
"705 732 OFFCURVE",
"703 726 CURVE",
"644 609 OFFCURVE",
"607 225 OFFCURVE",
"608 84 CURVE",
"467 133 OFFCURVE",
"302 569 OFFCURVE",
"248 714 CURVE",
"241 720 OFFCURVE",
"212 750 OFFCURVE",
"203 750 CURVE SMOOTH",
"190 750 OFFCURVE",
"165 718 OFFCURVE",
"165 705 CURVE SMOOTH",
"165 698 OFFCURVE",
"168 692 OFFCURVE",
"168 685 CURVE SMOOTH",
"168 683 OFFCURVE",
"168 681 OFFCURVE",
"167 679 CURVE",
"149 599 OFFCURVE",
"128 520 OFFCURVE",
"110 440 CURVE SMOOTH",
"72 275 OFFCURVE",
"35 108 OFFCURVE",
"29 -63 CURVE SMOOTH",
"29 -67 LINE SMOOTH",
"29 -74 OFFCURVE",
"31 -87 OFFCURVE",
"40 -87 CURVE SMOOTH",
"57 -87 OFFCURVE",
"63 -61 OFFCURVE",
"65 -50 CURVE SMOOTH",
"67 -36 OFFCURVE",
"67 -21 OFFCURVE",
"69 -7 CURVE SMOOTH",
"73 32 OFFCURVE",
"78 72 OFFCURVE",
"84 111 CURVE SMOOTH",
"103 247 OFFCURVE",
"130 382 OFFCURVE",
"161 516 CURVE SMOOTH",
"171 557 OFFCURVE",
"181 598 OFFCURVE",
"192 639 CURVE SMOOTH",
"197 656 LINE",
"198 663 OFFCURVE",
"195 673 OFFCURVE",
"201 673 CURVE SMOOTH",
"204 673 OFFCURVE",
"222 629 OFFCURVE",
"225 622 CURVE SMOOTH",
"244 576 OFFCURVE",
"262 530 OFFCURVE",
"282 485 CURVE SMOOTH",
"332 371 OFFCURVE",
"461 81 OFFCURVE",
"574 27 CURVE",
"580 4 OFFCURVE",
"591 -30 OFFCURVE",
"621 -30 CURVE SMOOTH",
"642 -30 OFFCURVE",
"659 22 OFFCURVE",
"659 38 CURVE SMOOTH",
"659 47 OFFCURVE",
"658 45 OFFCURVE",
"653 49 CURVE SMOOTH",
"646 56 OFFCURVE",
"647 101 OFFCURVE",
"647 109 CURVE SMOOTH"
);
},
{
closed = 1;
nodes = (
"600 813 LINE",
"588 812 OFFCURVE",
"572 789 OFFCURVE",
"545 789 CURVE SMOOTH",
"488 789 OFFCURVE",
"450 828 OFFCURVE",
"408 828 CURVE SMOOTH",
"395 828 OFFCURVE",
"342 795 OFFCURVE",
"342 782 CURVE SMOOTH",
"342 779 OFFCURVE",
"344 777 OFFCURVE",
"347 777 CURVE SMOOTH",
"356 777 OFFCURVE",
"378 805 OFFCURVE",
"404 805 CURVE SMOOTH",
"452 805 OFFCURVE",
"494 764 OFFCURVE",
"545 764 CURVE SMOOTH",
"560 764 OFFCURVE",
"600 796 OFFCURVE",
"603 811 CURVE"
);
}
);
width = 738;
}
);
note = Ntilde;
unicode = 00D1;
},
{
color = 3;
glyphname = O;
lastChange = "2021-09-01 22:40:03 +0000";
layers = (
{
hints = (
{
horizontal = 1;
place = "{-34, 18}";
type = Stem;
},
{
horizontal = 1;
place = "{615, -20}";
target = down;
type = TopGhost;
}
);
layerId = "22FBF237-8195-4580-A019-F135C28A8A87";
paths = (
{
closed = 1;
nodes = (
"495 -30 OFFCURVE",
"717 92 OFFCURVE",
"791 275 CURVE SMOOTH",
"812 327 OFFCURVE",
"826 383 OFFCURVE",
"826 439 CURVE SMOOTH",
"826 644 OFFCURVE",
"635 770 OFFCURVE",
"445 770 CURVE SMOOTH",
"281 770 OFFCURVE",
"149 655 OFFCURVE",
"76 516 CURVE SMOOTH",
"51 468 OFFCURVE",
"31 414 OFFCURVE",
"25 360 CURVE SMOOTH",
"22 338 OFFCURVE",
"20 315 OFFCURVE",
"20 293 CURVE SMOOTH",
"20 120 OFFCURVE",
"118 -30 OFFCURVE",
"302 -30 CURVE SMOOTH"
);
},
{
closed = 1;
nodes = (
"765 364 OFFCURVE",
"754 314 OFFCURVE",
"733 267 CURVE SMOOTH",
"671 128 OFFCURVE",
"449 -6 OFFCURVE",
"298 -6 CURVE SMOOTH",
"149 -6 OFFCURVE",
"72 152 OFFCURVE",
"72 283 CURVE SMOOTH",
"72 309 OFFCURVE",
"75 335 OFFCURVE",
"80 361 CURVE SMOOTH",
"113 546 OFFCURVE",
"243 737 OFFCURVE",
"450 737 CURVE SMOOTH",
"632 737 OFFCURVE",
"765 595 OFFCURVE",
"765 415 CURVE SMOOTH"
);
}
);
width = 833;
}
);
note = O;
unicode = 004F;
},
{
color = 11;
glyphname = Oacute;
lastChange = "2021-09-02 04:37:43 +0000";
layers = (
{
hints = (
{
horizontal = 1;
place = "{-34, 18}";
type = Stem;
},
{
horizontal = 1;
place = "{615, -20}";
target = down;
type = TopGhost;
},
{
horizontal = 1;
place = "{799, 20}";
type = Stem;
}
);
layerId = "22FBF237-8195-4580-A019-F135C28A8A87";
paths = (
{
closed = 1;
nodes = (
"495 -30 OFFCURVE",
"717 92 OFFCURVE",
"791 275 CURVE SMOOTH",
"812 327 OFFCURVE",
"826 383 OFFCURVE",
"826 439 CURVE SMOOTH",
"826 644 OFFCURVE",
"635 770 OFFCURVE",
"445 770 CURVE SMOOTH",
"281 770 OFFCURVE",
"149 655 OFFCURVE",
"76 516 CURVE SMOOTH",
"51 468 OFFCURVE",
"31 414 OFFCURVE",
"25 360 CURVE SMOOTH",
"22 338 OFFCURVE",
"20 315 OFFCURVE",
"20 293 CURVE SMOOTH",
"20 120 OFFCURVE",
"118 -30 OFFCURVE",
"302 -30 CURVE SMOOTH"
);
},
{
closed = 1;
nodes = (
"765 364 OFFCURVE",
"754 314 OFFCURVE",
"733 267 CURVE SMOOTH",
"671 128 OFFCURVE",
"449 -6 OFFCURVE",
"298 -6 CURVE SMOOTH",
"149 -6 OFFCURVE",
"72 152 OFFCURVE",
"72 283 CURVE SMOOTH",
"72 309 OFFCURVE",
"75 335 OFFCURVE",
"80 361 CURVE SMOOTH",
"113 546 OFFCURVE",
"243 737 OFFCURVE",
"450 737 CURVE SMOOTH",
"632 737 OFFCURVE",
"765 595 OFFCURVE",
"765 415 CURVE SMOOTH"
);
},
{
closed = 1;
nodes = (
"604 914 OFFCURVE",
"586 925 OFFCURVE",
"574 925 CURVE SMOOTH",
"563 925 OFFCURVE",
"552 921 OFFCURVE",
"547 909 CURVE SMOOTH",
"529 864 OFFCURVE",
"496 848 OFFCURVE",
"460 820 CURVE SMOOTH",
"456 817 OFFCURVE",
"446 807 OFFCURVE",
"446 801 CURVE SMOOTH",
"446 800 OFFCURVE",
"447 799 OFFCURVE",
"448 799 CURVE SMOOTH",
"462 799 OFFCURVE",
"539 852 OFFCURVE",
"557 863 CURVE SMOOTH",
"569 870 OFFCURVE",
"604 884 OFFCURVE",
"604 901 CURVE SMOOTH"
);
}
);
width = 833;
}
);
note = Oacute;
unicode = 00D3;
},
{
color = 11;
glyphname = Ocircumflex;
lastChange = "2021-09-02 04:37:43 +0000";
layers = (
{
hints = (
{
horizontal = 1;
place = "{-34, 18}";
type = Stem;
},
{
horizontal = 1;
place = "{615, -20}";
target = down;
type = TopGhost;
}
);
layerId = "22FBF237-8195-4580-A019-F135C28A8A87";
paths = (
{
closed = 1;
nodes = (
"495 -30 OFFCURVE",
"717 92 OFFCURVE",
"791 275 CURVE SMOOTH",
"812 327 OFFCURVE",
"826 383 OFFCURVE",
"826 439 CURVE SMOOTH",
"826 644 OFFCURVE",
"635 770 OFFCURVE",
"445 770 CURVE SMOOTH",
"281 770 OFFCURVE",
"149 655 OFFCURVE",
"76 516 CURVE SMOOTH",
"51 468 OFFCURVE",
"31 414 OFFCURVE",
"25 360 CURVE SMOOTH",
"22 338 OFFCURVE",
"20 315 OFFCURVE",
"20 293 CURVE SMOOTH",
"20 120 OFFCURVE",
"118 -30 OFFCURVE",
"302 -30 CURVE SMOOTH"
);
},
{
closed = 1;
nodes = (
"765 364 OFFCURVE",
"754 314 OFFCURVE",
"733 267 CURVE SMOOTH",
"671 128 OFFCURVE",
"449 -6 OFFCURVE",
"298 -6 CURVE SMOOTH",
"149 -6 OFFCURVE",
"72 152 OFFCURVE",
"72 283 CURVE SMOOTH",
"72 309 OFFCURVE",
"75 335 OFFCURVE",
"80 361 CURVE SMOOTH",
"113 546 OFFCURVE",
"243 737 OFFCURVE",
"450 737 CURVE SMOOTH",
"632 737 OFFCURVE",
"765 595 OFFCURVE",
"765 415 CURVE SMOOTH"
);
},
{
closed = 1;
nodes = (
"628 795 LINE",
"624 805 LINE",
"583 838 OFFCURVE",
"542 872 OFFCURVE",
"508 913 CURVE",
"502 915 LINE",
"483 911 OFFCURVE",
"357 815 OFFCURVE",
"357 802 CURVE SMOOTH",
"357 799 OFFCURVE",
"359 792 OFFCURVE",
"363 792 CURVE SMOOTH",
"374 792 OFFCURVE",
"470 864 OFFCURVE",
"485 876 CURVE",
"505 852 OFFCURVE",
"593 790 OFFCURVE",
"623 788 CURVE"
);
}
);
width = 833;
}
);
note = Ocircumflex;
unicode = 00D4;
},
{
color = 11;
glyphname = Odieresis;
lastChange = "2021-09-02 04:37:43 +0000";
layers = (
{
hints = (
{
horizontal = 1;
place = "{-34, 18}";
type = Stem;
},
{
horizontal = 1;
place = "{615, -20}";
target = down;
type = TopGhost;
},
{
horizontal = 1;
place = "{817, 20}";
type = Stem;
}
);
layerId = "22FBF237-8195-4580-A019-F135C28A8A87";
paths = (
{
closed = 1;
nodes = (
"495 -30 OFFCURVE",
"717 92 OFFCURVE",
"791 275 CURVE SMOOTH",
"812 327 OFFCURVE",
"826 383 OFFCURVE",
"826 439 CURVE SMOOTH",
"826 644 OFFCURVE",
"635 770 OFFCURVE",
"445 770 CURVE SMOOTH",
"281 770 OFFCURVE",
"149 655 OFFCURVE",
"76 516 CURVE SMOOTH",
"51 468 OFFCURVE",
"31 414 OFFCURVE",
"25 360 CURVE SMOOTH",
"22 338 OFFCURVE",
"20 315 OFFCURVE",
"20 293 CURVE SMOOTH",
"20 120 OFFCURVE",
"118 -30 OFFCURVE",
"302 -30 CURVE SMOOTH"
);
},
{
closed = 1;
nodes = (
"765 364 OFFCURVE",
"754 314 OFFCURVE",
"733 267 CURVE SMOOTH",
"671 128 OFFCURVE",
"449 -6 OFFCURVE",
"298 -6 CURVE SMOOTH",
"149 -6 OFFCURVE",
"72 152 OFFCURVE",
"72 283 CURVE SMOOTH",
"72 309 OFFCURVE",
"75 335 OFFCURVE",
"80 361 CURVE SMOOTH",
"113 546 OFFCURVE",
"243 737 OFFCURVE",
"450 737 CURVE SMOOTH",
"632 737 OFFCURVE",
"765 595 OFFCURVE",
"765 415 CURVE SMOOTH"
);
},
{
closed = 1;
nodes = (
"640 902 LINE",
"637 903 LINE",
"626 903 OFFCURVE",
"586 881 OFFCURVE",
"578 873 CURVE",
"570 870 OFFCURVE",
"560 857 OFFCURVE",
"560 848 CURVE SMOOTH",
"560 839 OFFCURVE",
"570 817 OFFCURVE",
"581 817 CURVE SMOOTH",
"607 817 OFFCURVE",
"613 866 OFFCURVE",
"625 883 CURVE SMOOTH",
"627 886 OFFCURVE",
"640 899 OFFCURVE",
"640 901 CURVE SMOOTH"
);
},
{
closed = 1;
nodes = (
"506 902 LINE",
"503 903 LINE",
"492 903 OFFCURVE",
"452 881 OFFCURVE",
"444 873 CURVE",
"436 870 OFFCURVE",
"426 857 OFFCURVE",
"426 848 CURVE SMOOTH",
"426 839 OFFCURVE",
"436 817 OFFCURVE",
"447 817 CURVE SMOOTH",
"473 817 OFFCURVE",
"479 866 OFFCURVE",
"491 883 CURVE SMOOTH",
"493 886 OFFCURVE",
"506 899 OFFCURVE",
"506 901 CURVE SMOOTH"
);
}
);
width = 833;
}
);
note = Odieresis;
unicode = 00D6;
},
{
color = 11;
glyphname = Ograve;
lastChange = "2021-09-02 04:37:43 +0000";
layers = (
{
hints = (
{
horizontal = 1;
place = "{-34, 18}";
type = Stem;
},
{
horizontal = 1;
place = "{615, -20}";
target = down;
type = TopGhost;
},
{
horizontal = 1;
place = "{790, 20}";
type = Stem;
}
);
layerId = "22FBF237-8195-4580-A019-F135C28A8A87";
paths = (
{
closed = 1;
nodes = (
"495 -30 OFFCURVE",
"717 92 OFFCURVE",
"791 275 CURVE SMOOTH",
"812 327 OFFCURVE",
"826 383 OFFCURVE",
"826 439 CURVE SMOOTH",
"826 644 OFFCURVE",
"635 770 OFFCURVE",
"445 770 CURVE SMOOTH",
"281 770 OFFCURVE",
"149 655 OFFCURVE",
"76 516 CURVE SMOOTH",
"51 468 OFFCURVE",
"31 414 OFFCURVE",
"25 360 CURVE SMOOTH",
"22 338 OFFCURVE",
"20 315 OFFCURVE",
"20 293 CURVE SMOOTH",
"20 120 OFFCURVE",
"118 -30 OFFCURVE",
"302 -30 CURVE SMOOTH"
);
},
{
closed = 1;
nodes = (
"765 364 OFFCURVE",
"754 314 OFFCURVE",
"733 267 CURVE SMOOTH",
"671 128 OFFCURVE",
"449 -6 OFFCURVE",
"298 -6 CURVE SMOOTH",
"149 -6 OFFCURVE",
"72 152 OFFCURVE",
"72 283 CURVE SMOOTH",
"72 309 OFFCURVE",
"75 335 OFFCURVE",
"80 361 CURVE SMOOTH",
"113 546 OFFCURVE",
"243 737 OFFCURVE",
"450 737 CURVE SMOOTH",
"632 737 OFFCURVE",
"765 595 OFFCURVE",
"765 415 CURVE SMOOTH"
);
},
{
closed = 1;
nodes = (
"594 798 OFFCURVE",
"585 807 OFFCURVE",
"581 810 CURVE SMOOTH",
"547 839 OFFCURVE",
"516 854 OFFCURVE",
"502 900 CURVE SMOOTH",
"498 911 OFFCURVE",
"487 916 OFFCURVE",
"476 916 CURVE SMOOTH",
"465 916 OFFCURVE",
"444 904 OFFCURVE",
"444 892 CURVE SMOOTH",
"444 874 OFFCURVE",
"475 861 OFFCURVE",
"488 853 CURVE SMOOTH",
"505 842 OFFCURVE",
"577 790 OFFCURVE",
"591 790 CURVE SMOOTH",
"592 790 OFFCURVE",
"594 791 OFFCURVE",
"594 792 CURVE SMOOTH"
);
}
);
width = 833;
}
);
note = Ograve;
unicode = 00D2;
},
{
color = 11;
glyphname = Otilde;
lastChange = "2021-09-02 04:37:43 +0000";
layers = (
{
hints = (
{
horizontal = 1;
place = "{-30, 20}";
type = Stem;
},
{
horizontal = 1;
place = "{787, 33}";
type = Stem;
},
{
horizontal = 1;
place = "{834, 29}";
type = Stem;
}
);
layerId = "22FBF237-8195-4580-A019-F135C28A8A87";
paths = (
{
closed = 1;
nodes = (
"624 880 LINE",
"612 879 OFFCURVE",
"599 859 OFFCURVE",
"576 859 CURVE SMOOTH",
"525 859 OFFCURVE",
"500 902 OFFCURVE",
"464 902 CURVE SMOOTH",
"451 902 OFFCURVE",
"403 866 OFFCURVE",
"401 854 CURVE",
"404 849 LINE",
"415 851 OFFCURVE",
"430 873 OFFCURVE",
"454 873 CURVE SMOOTH",
"495 873 OFFCURVE",
"520 826 OFFCURVE",
"564 826 CURVE SMOOTH",
"577 826 OFFCURVE",
"623 865 OFFCURVE",
"626 879 CURVE"
);
},
{
closed = 1;
nodes = (
"495 -30 OFFCURVE",
"717 92 OFFCURVE",
"791 275 CURVE SMOOTH",
"812 327 OFFCURVE",
"826 383 OFFCURVE",
"826 439 CURVE SMOOTH",
"826 644 OFFCURVE",
"635 770 OFFCURVE",
"445 770 CURVE SMOOTH",
"281 770 OFFCURVE",
"149 655 OFFCURVE",
"76 516 CURVE SMOOTH",
"51 468 OFFCURVE",
"31 414 OFFCURVE",
"25 360 CURVE SMOOTH",
"22 338 OFFCURVE",
"20 315 OFFCURVE",
"20 293 CURVE SMOOTH",
"20 120 OFFCURVE",
"118 -30 OFFCURVE",
"302 -30 CURVE SMOOTH"
);
},
{
closed = 1;
nodes = (
"765 364 OFFCURVE",
"754 314 OFFCURVE",
"733 267 CURVE SMOOTH",
"671 128 OFFCURVE",
"449 -6 OFFCURVE",
"298 -6 CURVE SMOOTH",
"149 -6 OFFCURVE",
"72 152 OFFCURVE",
"72 283 CURVE SMOOTH",
"72 309 OFFCURVE",
"75 335 OFFCURVE",
"80 361 CURVE SMOOTH",
"113 546 OFFCURVE",
"243 737 OFFCURVE",
"450 737 CURVE SMOOTH",
"632 737 OFFCURVE",
"765 595 OFFCURVE",
"765 415 CURVE SMOOTH"
);
}
);
width = 697;
}
);
note = Otilde;
unicode = 00D5;
},
{
color = 3;
glyphname = OE;
lastChange = "2021-09-01 22:40:03 +0000";
layers = (
{
hints = (
{
horizontal = 1;
place = "{-348, 38}";
type = Stem;
},
{
horizontal = 1;
place = "{-66, 24}";
type = Stem;
},
{
horizontal = 1;
place = "{96, 36}";
type = Stem;
},
{
horizontal = 1;
place = "{598, 18}";
type = Stem;
},
{
horizontal = 1;
place = "{672, 26}";
type = Stem;
},
{
place = "{37, 45}";
type = Stem;
},
{
place = "{225, 19}";
type = Stem;
},
{
place = "{547, 46}";
type = Stem;
},
{
place = "{822, 42}";
type = Stem;
}
);
layerId = "22FBF237-8195-4580-A019-F135C28A8A87";
paths = (
{
closed = 1;
nodes = (
"1244 152 OFFCURVE",
"1228 180 OFFCURVE",
"1218 180 CURVE SMOOTH",
"1215 180 OFFCURVE",
"1215 178 OFFCURVE",
"1215 176 CURVE SMOOTH",
"1215 164 OFFCURVE",
"1223 145 OFFCURVE",
"1223 125 CURVE SMOOTH",
"1223 33 OFFCURVE",
"1143 -32 OFFCURVE",
"1054 -32 CURVE SMOOTH",
"939 -32 OFFCURVE",
"829 10 OFFCURVE",
"720 40 CURVE",
"724 110 OFFCURVE",
"735 179 OFFCURVE",
"743 249 CURVE",
"769 259 OFFCURVE",
"825 260 OFFCURVE",
"854 260 CURVE SMOOTH",
"918 260 OFFCURVE",
"982 255 OFFCURVE",
"1046 255 CURVE SMOOTH",
"1052 255 OFFCURVE",
"1092 254 OFFCURVE",
"1092 263 CURVE SMOOTH",
"1092 268 OFFCURVE",
"1080 270 OFFCURVE",
"1077 271 CURVE SMOOTH",
"1027 280 OFFCURVE",
"976 284 OFFCURVE",
"926 284 CURVE SMOOTH",
"867 284 OFFCURVE",
"808 290 OFFCURVE",
"748 289 CURVE",
"763 396 OFFCURVE",
"788 502 OFFCURVE",
"821 605 CURVE",
"844 615 OFFCURVE",
"875 616 OFFCURVE",
"900 616 CURVE SMOOTH",
"916 616 OFFCURVE",
"949 610 OFFCURVE",
"966 607 CURVE SMOOTH",
"1021 601 OFFCURVE",
"1076 593 OFFCURVE",
"1132 593 CURVE SMOOTH",
"1145 593 OFFCURVE",
"1159 594 OFFCURVE",
"1172 599 CURVE",
"1164 579 OFFCURVE",
"1144 503 OFFCURVE",
"1144 483 CURVE SMOOTH",
"1144 479 OFFCURVE",
"1145 467 OFFCURVE",
"1151 467 CURVE SMOOTH",
"1158 467 OFFCURVE",
"1162 481 OFFCURVE",
"1164 486 CURVE SMOOTH",
"1179 530 OFFCURVE",
"1188 581 OFFCURVE",
"1230 607 CURVE SMOOTH",
"1234 609 OFFCURVE",
"1238 611 OFFCURVE",
"1238 617 CURVE SMOOTH",
"1238 629 OFFCURVE",
"1218 638 OFFCURVE",
"1207 638 CURVE SMOOTH",
"1203 638 LINE",
"1193 621 OFFCURVE",
"1173 613 OFFCURVE",
"1154 613 CURVE SMOOTH",
"1111 613 OFFCURVE",
"1067 619 OFFCURVE",
"1025 625 CURVE SMOOTH",
"963 633 OFFCURVE",
"900 642 OFFCURVE",
"838 653 CURVE",
"837 654 LINE",
"839 660 OFFCURVE",
"853 695 OFFCURVE",
"853 698 CURVE SMOOTH",
"853 713 OFFCURVE",
"831 716 OFFCURVE",
"820 716 CURVE SMOOTH",
"779 716 OFFCURVE",
"775 698 OFFCURVE",
"769 663 CURVE",
"740 666 OFFCURVE",
"711 668 OFFCURVE",
"682 668 CURVE SMOOTH",
"663 668 LINE",
"598 715 OFFCURVE",
"497 739 OFFCURVE",
"416 739 CURVE SMOOTH",
"319 739 OFFCURVE",
"221 707 OFFCURVE",
"175 615 CURVE SMOOTH",
"158 582 OFFCURVE",
"148 545 OFFCURVE",
"148 507 CURVE SMOOTH",
"148 483 OFFCURVE",
"152 460 OFFCURVE",
"159 437 CURVE",
"98 363 OFFCURVE",
"43 261 OFFCURVE",
"43 163 CURVE SMOOTH",
"43 10 OFFCURVE",
"175 -64 OFFCURVE",
"315 -64 CURVE SMOOTH",
"425 -64 OFFCURVE",
"534 -21 OFFCURVE",
"620 46 CURVE",
"630 36 OFFCURVE",
"674 24 OFFCURVE",
"687 20 CURVE",
"687 10 OFFCURVE",
"691 -58 OFFCURVE",
"709 -58 CURVE SMOOTH",
"717 -58 OFFCURVE",
"719 -46 OFFCURVE",
"719 -40 CURVE SMOOTH",
"719 -29 OFFCURVE",
"718 -18 OFFCURVE",
"718 -6 CURVE SMOOTH",
"718 10 LINE",
"830 -26 OFFCURVE",
"941 -69 OFFCURVE",
"1061 -69 CURVE SMOOTH",
"1165 -69 OFFCURVE",
"1213 -18 OFFCURVE",
"1234 80 CURVE SMOOTH",
"1239 100 OFFCURVE",
"1244 122 OFFCURVE",
"1244 143 CURVE SMOOTH"
);
},
{
closed = 1;
nodes = (
"722 429 OFFCURVE",
"712 359 OFFCURVE",
"706 289 CURVE SMOOTH",
"690 153 LINE",
"678 138 LINE SMOOTH",
"599 33 OFFCURVE",
"471 -29 OFFCURVE",
"340 -29 CURVE SMOOTH",
"212 -29 OFFCURVE",
"98 35 OFFCURVE",
"98 176 CURVE SMOOTH",
"98 253 OFFCURVE",
"132 335 OFFCURVE",
"174 399 CURVE",
"222 300 OFFCURVE",
"339 252 OFFCURVE",
"444 252 CURVE SMOOTH",
"454 252 OFFCURVE",
"489 256 OFFCURVE",
"489 272 CURVE SMOOTH",
"489 280 OFFCURVE",
"478 281 OFFCURVE",
"473 281 CURVE SMOOTH",
"453 281 OFFCURVE",
"433 272 OFFCURVE",
"409 272 CURVE SMOOTH",
"335 272 OFFCURVE",
"272 325 OFFCURVE",
"232 383 CURVE SMOOTH",
"221 399 OFFCURVE",
"208 420 OFFCURVE",
"202 438 CURVE",
"299 561 OFFCURVE",
"451 627 OFFCURVE",
"604 642 CURVE",
"662 609 OFFCURVE",
"711 558 OFFCURVE",
"739 497 CURVE"
);
},
{
closed = 1;
nodes = (
"428 640 OFFCURVE",
"293 579 OFFCURVE",
"193 474 CURVE",
"190 489 OFFCURVE",
"189 505 OFFCURVE",
"189 520 CURVE SMOOTH",
"189 562 OFFCURVE",
"201 604 OFFCURVE",
"226 638 CURVE SMOOTH",
"262 688 OFFCURVE",
"325 702 OFFCURVE",
"384 702 CURVE SMOOTH",
"447 702 OFFCURVE",
"513 686 OFFCURVE",
"570 660 CURVE"
);
},
{
closed = 1;
nodes = (
"761 621 OFFCURVE",
"756 600 OFFCURVE",
"751 580 CURVE",
"733 604 OFFCURVE",
"712 626 OFFCURVE",
"689 646 CURVE",
"715 646 OFFCURVE",
"740 644 OFFCURVE",
"765 642 CURVE"
);
},
{
closed = 1;
nodes = (
"686 88 OFFCURVE",
"686 68 OFFCURVE",
"686 49 CURVE",
"674 53 OFFCURVE",
"653 54 OFFCURVE",
"641 54 CURVE SMOOTH",
"630 54 LINE",
"650 71 OFFCURVE",
"670 89 OFFCURVE",
"687 108 CURVE"
);
}
);
width = 1256;
}
);
note = OE;
unicode = 0152;
},
{
color = 3;
glyphname = P;
lastChange = "2021-09-01 22:40:03 +0000";
layers = (
{
hints = (
{
horizontal = 1;
place = "{244, 19}";
type = Stem;
},
{
horizontal = 1;
place = "{627, -20}";
target = down;
type = TopGhost;
}
);
layerId = "22FBF237-8195-4580-A019-F135C28A8A87";
paths = (
{
closed = 1;
nodes = (
"213 305 OFFCURVE",
"292 315 OFFCURVE",
"369 335 CURVE SMOOTH",
"453 357 OFFCURVE",
"587 411 OFFCURVE",
"587 517 CURVE SMOOTH",
"587 548 OFFCURVE",
"575 577 OFFCURVE",
"557 602 CURVE SMOOTH",
"490 694 OFFCURVE",
"345 745 OFFCURVE",
"239 768 CURVE",
"216 770 OFFCURVE",
"183 783 OFFCURVE",
"162 783 CURVE SMOOTH",
"154 783 OFFCURVE",
"151 774 OFFCURVE",
"151 766 CURVE SMOOTH",
"151 748 OFFCURVE",
"166 745 OFFCURVE",
"166 735 CURVE",
"154 683 LINE SMOOTH",
"144 636 OFFCURVE",
"135 590 OFFCURVE",
"126 543 CURVE SMOOTH",
"105 433 OFFCURVE",
"85 323 OFFCURVE",
"69 212 CURVE SMOOTH",
"59 145 OFFCURVE",
"48 75 OFFCURVE",
"48 8 CURVE SMOOTH",
"48 1 OFFCURVE",
"46 -20 OFFCURVE",
"56 -20 CURVE SMOOTH",
"72 -20 OFFCURVE",
"105 14 OFFCURVE",
"109 29 CURVE",
"108 30 LINE",
"109 122 OFFCURVE",
"120 215 OFFCURVE",
"134 305 CURVE"
);
},
{
closed = 1;
nodes = (
"535 405 OFFCURVE",
"404 364 OFFCURVE",
"326 349 CURVE SMOOTH",
"267 337 OFFCURVE",
"199 327 OFFCURVE",
"139 327 CURVE SMOOTH",
"138 327 OFFCURVE",
"138 329 OFFCURVE",
"138 330 CURVE SMOOTH",
"138 351 OFFCURVE",
"144 376 OFFCURVE",
"147 397 CURVE SMOOTH",
"155 448 OFFCURVE",
"164 500 OFFCURVE",
"176 550 CURVE SMOOTH",
"191 613 OFFCURVE",
"217 672 OFFCURVE",
"232 735 CURVE",
"327 712 OFFCURVE",
"453 662 OFFCURVE",
"510 578 CURVE SMOOTH",
"524 556 OFFCURVE",
"535 531 OFFCURVE",
"535 504 CURVE SMOOTH"
);
}
);
width = 565;
}
);
note = P;
unicode = 0050;
},
{
color = 3;
glyphname = Thorn;
lastChange = "2021-09-01 22:40:03 +0000";
layers = (
{
hints = (
{
horizontal = 1;
place = "{-139, 16}";
type = Stem;
},
{
horizontal = 1;
place = "{268, 35}";
type = Stem;
},
{
horizontal = 1;
place = "{715, -20}";
target = down;
type = TopGhost;
},
{
place = "{52, 29}";
type = Stem;
},
{
place = "{219, 24}";
type = Stem;
},
{
place = "{779, 44}";
type = Stem;
}
);
layerId = "22FBF237-8195-4580-A019-F135C28A8A87";
paths = (
{
closed = 1;
nodes = (
"584 518 OFFCURVE",
"389 536 OFFCURVE",
"292 535 CURVE SMOOTH",
"276 535 LINE",
"280 541 OFFCURVE",
"382 709 OFFCURVE",
"382 715 CURVE SMOOTH",
"382 726 OFFCURVE",
"363 726 OFFCURVE",
"356 726 CURVE SMOOTH",
"334 726 OFFCURVE",
"311 721 OFFCURVE",
"295 706 CURVE",
"292 697 OFFCURVE",
"212 539 OFFCURVE",
"208 531 CURVE",
"167 521 OFFCURVE",
"144 495 OFFCURVE",
"197 510 CURVE",
"137 399 OFFCURVE",
"41 179 OFFCURVE",
"41 -14 CURVE SMOOTH",
"41 -63 OFFCURVE",
"42 -148 OFFCURVE",
"107 -148 CURVE SMOOTH",
"111 -148 OFFCURVE",
"155 -147 OFFCURVE",
"155 -140 CURVE",
"154 -138 OFFCURVE",
"141 -127 OFFCURVE",
"141 -125 CURVE SMOOTH",
"141 -109 OFFCURVE",
"164 -98 OFFCURVE",
"164 -89 CURVE SMOOTH",
"164 -87 OFFCURVE",
"162 -87 OFFCURVE",
"160 -87 CURVE SMOOTH",
"147 -87 OFFCURVE",
"132 -123 OFFCURVE",
"102 -123 CURVE SMOOTH",
"67 -123 OFFCURVE",
"66 -63 OFFCURVE",
"66 -40 CURVE SMOOTH",
"66 97 OFFCURVE",
"142 337 OFFCURVE",
"260 512 CURVE",
"349 509 OFFCURVE",
"540 475 OFFCURVE",
"540 359 CURVE SMOOTH",
"540 254 OFFCURVE",
"408 192 OFFCURVE",
"320 175 CURVE SMOOTH",
"272 166 OFFCURVE",
"223 167 OFFCURVE",
"175 165 CURVE SMOOTH",
"163 165 OFFCURVE",
"141 163 OFFCURVE",
"141 146 CURVE SMOOTH",
"141 130 OFFCURVE",
"174 130 OFFCURVE",
"184 130 CURVE SMOOTH",
"322 130 OFFCURVE",
"584 213 OFFCURVE",
"584 385 CURVE SMOOTH"
);
}
);
width = 599;
}
);
note = Thorn;
unicode = 00DE;
},
{
color = 3;
glyphname = Q;
lastChange = "2021-09-01 22:40:03 +0000";
layers = (
{
hints = (
{
horizontal = 1;
place = "{615, -20}";
target = down;
type = TopGhost;
}
);
layerId = "22FBF237-8195-4580-A019-F135C28A8A87";
paths = (
{
closed = 1;
nodes = (
"557 -47 OFFCURVE",
"758 58 OFFCURVE",
"825 253 CURVE SMOOTH",
"838 289 OFFCURVE",
"845 327 OFFCURVE",
"845 366 CURVE SMOOTH",
"845 579 OFFCURVE",
"625 770 OFFCURVE",
"418 770 CURVE SMOOTH",
"258 770 OFFCURVE",
"131 659 OFFCURVE",
"63 521 CURVE SMOOTH",
"38 471 OFFCURVE",
"20 416 OFFCURVE",
"15 360 CURVE SMOOTH",
"14 345 OFFCURVE",
"13 329 OFFCURVE",
"13 314 CURVE SMOOTH",
"13 140 OFFCURVE",
"105 -20 OFFCURVE",
"289 -43 CURVE SMOOTH",
"312 -45 OFFCURVE",
"336 -47 OFFCURVE",
"359 -47 CURVE SMOOTH"
);
},
{
closed = 1;
nodes = (
"789 329 OFFCURVE",
"780 289 OFFCURVE",
"764 249 CURVE SMOOTH",
"749 211 OFFCURVE",
"723 174 OFFCURVE",
"696 143 CURVE SMOOTH",
"612 48 OFFCURVE",
"485 -26 OFFCURVE",
"355 -26 CURVE SMOOTH",
"334 -26 OFFCURVE",
"313 -24 OFFCURVE",
"293 -20 CURVE SMOOTH",
"147 7 OFFCURVE",
"67 163 OFFCURVE",
"67 300 CURVE SMOOTH",
"67 321 OFFCURVE",
"69 341 OFFCURVE",
"71 361 CURVE SMOOTH",
"77 406 OFFCURVE",
"90 452 OFFCURVE",
"107 494 CURVE SMOOTH",
"164 637 OFFCURVE",
"270 740 OFFCURVE",
"431 745 CURVE",
"431 744 LINE",
"436 744 LINE SMOOTH",
"479 744 OFFCURVE",
"522 730 OFFCURVE",
"560 711 CURVE SMOOTH",
"686 649 OFFCURVE",
"789 517 OFFCURVE",
"789 373 CURVE SMOOTH"
);
},
{
closed = 1;
nodes = (
"940 -291 OFFCURVE",
"937 -284 OFFCURVE",
"934 -284 CURVE SMOOTH",
"916 -284 OFFCURVE",
"889 -341 OFFCURVE",
"836 -341 CURVE SMOOTH",
"809 -341 OFFCURVE",
"779 -333 OFFCURVE",
"753 -325 CURVE SMOOTH",
"688 -305 OFFCURVE",
"628 -273 OFFCURVE",
"569 -240 CURVE SMOOTH",
"468 -182 OFFCURVE",
"275 -48 OFFCURVE",
"160 -48 CURVE SMOOTH",
"122 -48 OFFCURVE",
"78 -85 OFFCURVE",
"78 -124 CURVE SMOOTH",
"78 -134 OFFCURVE",
"84 -154 OFFCURVE",
"96 -154 CURVE SMOOTH",
"105 -154 OFFCURVE",
"106 -144 OFFCURVE",
"106 -138 CURVE SMOOTH",
"106 -98 OFFCURVE",
"122 -90 OFFCURVE",
"160 -90 CURVE SMOOTH",
"164 -90 LINE SMOOTH",
"230 -91 OFFCURVE",
"338 -162 OFFCURVE",
"396 -195 CURVE SMOOTH",
"504 -256 OFFCURVE",
"641 -337 OFFCURVE",
"764 -356 CURVE SMOOTH",
"778 -358 OFFCURVE",
"793 -359 OFFCURVE",
"807 -359 CURVE SMOOTH",
"848 -359 OFFCURVE",
"903 -348 OFFCURVE",
"931 -315 CURVE",
"935 -309 OFFCURVE",
"940 -302 OFFCURVE",
"940 -294 CURVE SMOOTH"
);
}
);
width = 943;
}
);
note = Q;
unicode = 0051;
},
{
color = 3;
glyphname = R;
lastChange = "2021-09-01 22:40:03 +0000";
layers = (
{
hints = (
{
horizontal = 1;
place = "{244, 19}";
type = Stem;
},
{
horizontal = 1;
place = "{627, -20}";
target = down;
type = TopGhost;
}
);
layerId = "22FBF237-8195-4580-A019-F135C28A8A87";
paths = (
{
closed = 1;
nodes = (
"597 6 OFFCURVE",
"583 -3 OFFCURVE",
"563 -3 CURVE SMOOTH",
"494 -3 OFFCURVE",
"391 75 OFFCURVE",
"338 115 CURVE SMOOTH",
"264 170 OFFCURVE",
"196 236 OFFCURVE",
"135 305 CURVE",
"215 305 OFFCURVE",
"294 315 OFFCURVE",
"371 335 CURVE SMOOTH",
"458 357 OFFCURVE",
"598 413 OFFCURVE",
"598 522 CURVE SMOOTH",
"598 552 OFFCURVE",
"586 581 OFFCURVE",
"568 606 CURVE SMOOTH",
"504 696 OFFCURVE",
"363 745 OFFCURVE",
"260 768 CURVE",
"236 770 OFFCURVE",
"205 783 OFFCURVE",
"183 783 CURVE SMOOTH",
"171 783 OFFCURVE",
"172 764 OFFCURVE",
"172 758 CURVE SMOOTH",
"172 751 OFFCURVE",
"185 744 OFFCURVE",
"185 735 CURVE SMOOTH",
"185 733 OFFCURVE",
"145 577 OFFCURVE",
"142 562 CURVE SMOOTH",
"113 440 OFFCURVE",
"86 317 OFFCURVE",
"64 194 CURVE SMOOTH",
"52 133 OFFCURVE",
"37 57 OFFCURVE",
"37 -4 CURVE SMOOTH",
"37 -10 OFFCURVE",
"36 -20 OFFCURVE",
"44 -20 CURVE SMOOTH",
"58 -20 OFFCURVE",
"96 15 OFFCURVE",
"98 29 CURVE SMOOTH",
"100 42 OFFCURVE",
"100 55 OFFCURVE",
"100 68 CURVE SMOOTH",
"102 91 OFFCURVE",
"104 113 OFFCURVE",
"107 136 CURVE SMOOTH",
"109 159 OFFCURVE",
"112 181 OFFCURVE",
"115 203 CURVE SMOOTH",
"117 218 OFFCURVE",
"121 233 OFFCURVE",
"122 249 CURVE",
"170 202 OFFCURVE",
"220 150 OFFCURVE",
"273 109 CURVE SMOOTH",
"343 54 OFFCURVE",
"465 -41 OFFCURVE",
"558 -41 CURVE SMOOTH",
"578 -41 OFFCURVE",
"608 -20 OFFCURVE",
"608 1 CURVE SMOOTH",
"608 4 OFFCURVE",
"607 6 OFFCURVE",
"604 6 CURVE SMOOTH"
);
},
{
closed = 1;
nodes = (
"542 408 OFFCURVE",
"406 366 OFFCURVE",
"326 350 CURVE SMOOTH",
"268 338 OFFCURVE",
"199 329 OFFCURVE",
"139 329 CURVE",
"139 331 LINE SMOOTH",
"139 349 OFFCURVE",
"146 372 OFFCURVE",
"149 390 CURVE SMOOTH",
"160 444 OFFCURVE",
"171 498 OFFCURVE",
"186 551 CURVE SMOOTH",
"193 575 OFFCURVE",
"239 721 OFFCURVE",
"250 735 CURVE",
"250 736 LINE",
"348 712 OFFCURVE",
"542 636 OFFCURVE",
"542 510 CURVE SMOOTH"
);
}
);
width = 626;
}
);
note = R;
unicode = 0052;
},
{
color = 3;
glyphname = S;
lastChange = "2021-09-01 22:40:03 +0000";
layers = (
{
hints = (
{
horizontal = 1;
place = "{609, -20}";
target = down;
type = TopGhost;
}
);
layerId = "22FBF237-8195-4580-A019-F135C28A8A87";
paths = (
{
closed = 1;
nodes = (
"507 558 OFFCURVE",
"522 585 OFFCURVE",
"527 600 CURVE SMOOTH",
"533 617 OFFCURVE",
"535 641 OFFCURVE",
"535 659 CURVE SMOOTH",
"535 681 OFFCURVE",
"532 721 OFFCURVE",
"516 739 CURVE SMOOTH",
"500 758 OFFCURVE",
"448 762 OFFCURVE",
"424 762 CURVE SMOOTH",
"316 762 OFFCURVE",
"211 711 OFFCURVE",
"155 616 CURVE SMOOTH",
"141 592 OFFCURVE",
"132 566 OFFCURVE",
"132 538 CURVE SMOOTH",
"132 384 OFFCURVE",
"390 282 OFFCURVE",
"390 133 CURVE SMOOTH",
"390 106 OFFCURVE",
"381 82 OFFCURVE",
"364 61 CURVE SMOOTH",
"319 3 OFFCURVE",
"261 -2 OFFCURVE",
"193 -9 CURVE SMOOTH",
"187 -9 OFFCURVE",
"181 -10 OFFCURVE",
"176 -10 CURVE SMOOTH",
"141 -10 OFFCURVE",
"106 0 OFFCURVE",
"74 12 CURVE SMOOTH",
"64 16 OFFCURVE",
"16 38 OFFCURVE",
"9 38 CURVE SMOOTH",
"5 38 OFFCURVE",
"6 32 OFFCURVE",
"6 30 CURVE SMOOTH",
"6 -29 OFFCURVE",
"111 -38 OFFCURVE",
"152 -38 CURVE SMOOTH",
"259 -38 OFFCURVE",
"446 13 OFFCURVE",
"446 146 CURVE SMOOTH",
"446 199 OFFCURVE",
"414 248 OFFCURVE",
"380 286 CURVE SMOOTH",
"364 305 OFFCURVE",
"344 321 OFFCURVE",
"326 338 CURVE SMOOTH",
"272 388 OFFCURVE",
"192 466 OFFCURVE",
"192 545 CURVE SMOOTH",
"192 551 OFFCURVE",
"193 558 OFFCURVE",
"194 565 CURVE SMOOTH",
"213 663 OFFCURVE",
"276 710 OFFCURVE",
"369 733 CURVE SMOOTH",
"386 737 OFFCURVE",
"403 740 OFFCURVE",
"420 740 CURVE SMOOTH",
"477 740 OFFCURVE",
"491 704 OFFCURVE",
"491 654 CURVE SMOOTH",
"491 623 OFFCURVE",
"486 592 OFFCURVE",
"485 560 CURVE SMOOTH",
"485 559 OFFCURVE",
"487 558 OFFCURVE",
"488 558 CURVE SMOOTH"
);
}
);
width = 452;
}
);
note = S;
unicode = 0053;
},
{
color = 11;
glyphname = Scaron;
lastChange = "2021-09-02 04:37:43 +0000";
layers = (
{
hints = (
{
horizontal = 1;
place = "{609, -20}";
target = down;
type = TopGhost;
}
);
layerId = "22FBF237-8195-4580-A019-F135C28A8A87";
paths = (
{
closed = 1;
nodes = (
"507 558 OFFCURVE",
"522 585 OFFCURVE",
"527 600 CURVE SMOOTH",
"533 617 OFFCURVE",
"535 641 OFFCURVE",
"535 659 CURVE SMOOTH",
"535 681 OFFCURVE",
"532 721 OFFCURVE",
"516 739 CURVE SMOOTH",
"500 758 OFFCURVE",
"448 762 OFFCURVE",
"424 762 CURVE SMOOTH",
"316 762 OFFCURVE",
"211 711 OFFCURVE",
"155 616 CURVE SMOOTH",
"141 592 OFFCURVE",
"132 566 OFFCURVE",
"132 538 CURVE SMOOTH",
"132 384 OFFCURVE",
"390 282 OFFCURVE",
"390 133 CURVE SMOOTH",
"390 106 OFFCURVE",
"381 82 OFFCURVE",
"364 61 CURVE SMOOTH",
"319 3 OFFCURVE",
"261 -2 OFFCURVE",
"193 -9 CURVE SMOOTH",
"187 -9 OFFCURVE",
"181 -10 OFFCURVE",
"176 -10 CURVE SMOOTH",
"141 -10 OFFCURVE",
"106 0 OFFCURVE",
"74 12 CURVE SMOOTH",
"64 16 OFFCURVE",
"16 38 OFFCURVE",
"9 38 CURVE SMOOTH",
"5 38 OFFCURVE",
"6 32 OFFCURVE",
"6 30 CURVE SMOOTH",
"6 -29 OFFCURVE",
"111 -38 OFFCURVE",
"152 -38 CURVE SMOOTH",
"259 -38 OFFCURVE",
"446 13 OFFCURVE",
"446 146 CURVE SMOOTH",
"446 199 OFFCURVE",
"414 248 OFFCURVE",
"380 286 CURVE SMOOTH",
"364 305 OFFCURVE",
"344 321 OFFCURVE",
"326 338 CURVE SMOOTH",
"272 388 OFFCURVE",
"192 466 OFFCURVE",
"192 545 CURVE SMOOTH",
"192 551 OFFCURVE",
"193 558 OFFCURVE",
"194 565 CURVE SMOOTH",
"213 663 OFFCURVE",
"276 710 OFFCURVE",
"369 733 CURVE SMOOTH",
"386 737 OFFCURVE",
"403 740 OFFCURVE",
"420 740 CURVE SMOOTH",
"477 740 OFFCURVE",
"491 704 OFFCURVE",
"491 654 CURVE SMOOTH",
"491 623 OFFCURVE",
"486 592 OFFCURVE",
"485 560 CURVE SMOOTH",
"485 559 OFFCURVE",
"487 558 OFFCURVE",
"488 558 CURVE SMOOTH"
);
},
{
closed = 1;
nodes = (
"313 944 LINE",
"317 934 LINE",
"358 901 OFFCURVE",
"399 867 OFFCURVE",
"433 826 CURVE",
"439 824 LINE",
"458 828 OFFCURVE",
"584 924 OFFCURVE",
"584 937 CURVE SMOOTH",
"584 940 OFFCURVE",
"582 947 OFFCURVE",
"578 947 CURVE SMOOTH",
"567 947 OFFCURVE",
"471 875 OFFCURVE",
"456 863 CURVE",
"436 887 OFFCURVE",
"348 949 OFFCURVE",
"318 951 CURVE"
);
}
);
width = 452;
}
);
note = Scaron;
unicode = 0160;
},
{
color = 3;
glyphname = Germandbls;
lastChange = "2021-09-01 22:40:03 +0000";
layers = (
{
hints = (
{
horizontal = 1;
place = "{609, -20}";
target = down;
type = TopGhost;
},
{
horizontal = 1;
place = "{609, -20}";
target = down;
type = TopGhost;
},
{
horizontal = 1;
place = "{-222, 17}";
type = Stem;
},
{
horizontal = 1;
place = "{-6, 20}";
type = Stem;
},
{
horizontal = 1;
place = "{333, 31}";
type = Stem;
},
{
horizontal = 1;
place = "{635, 14}";
type = Stem;
},
{
place = "{-195, 22}";
type = Stem;
},
{
place = "{261, 46}";
type = Stem;
},
{
place = "{390, 41}";
type = Stem;
},
{
place = "{501, 23}";
type = Stem;
}
);
layerId = "22FBF237-8195-4580-A019-F135C28A8A87";
paths = (
{
closed = 1;
nodes = (
"543 453 OFFCURVE",
"600 492 CURVE SMOOTH",
"731 582 OFFCURVE",
"801 768 OFFCURVE",
"581 768 CURVE SMOOTH",
"389 768 OFFCURVE",
"271 508 OFFCURVE",
"215 343 CURVE SMOOTH",
"151 157 OFFCURVE",
"70 -56 OFFCURVE",
"-44 -56 CURVE SMOOTH",
"-101 -56 OFFCURVE",
"-88 -75 OFFCURVE",
"-39 -75 CURVE SMOOTH",
"27 -75 OFFCURVE",
"83 -26 OFFCURVE",
"118 27 CURVE SMOOTH",
"150 73 OFFCURVE",
"178 123 OFFCURVE",
"203 173 CURVE SMOOTH",
"222 210 OFFCURVE",
"392 751 OFFCURVE",
"584 751 CURVE SMOOTH",
"670 751 OFFCURVE",
"689 604 OFFCURVE",
"559 496 CURVE SMOOTH",
"500 447 OFFCURVE",
"383 379 OFFCURVE",
"383 314 CURVE SMOOTH",
"383 256 OFFCURVE",
"420 220 OFFCURVE",
"447 185 CURVE SMOOTH",
"456 173 OFFCURVE",
"472 157 OFFCURVE",
"483 140 CURVE SMOOTH",
"528 65 OFFCURVE",
"453 35 OFFCURVE",
"389 35 CURVE SMOOTH",
"365 35 OFFCURVE",
"326 40 OFFCURVE",
"312 50 CURVE SMOOTH",
"284 70 OFFCURVE",
"266 61 OFFCURVE",
"266 45 CURVE SMOOTH",
"266 7 OFFCURVE",
"334 0 OFFCURVE",
"378 0 CURVE SMOOTH",
"454 0 OFFCURVE",
"540 67 OFFCURVE",
"540 136 CURVE SMOOTH",
"540 196 OFFCURVE",
"431 257 OFFCURVE",
"431 336 CURVE SMOOTH",
"431 365 OFFCURVE"
);
}
);
width = 605;
}
);
unicode = 1E9E;
},
{
color = 3;
glyphname = Schwa;
lastChange = "2021-09-01 22:40:03 +0000";
layers = (
{
hints = (
{
horizontal = 1;
place = "{-7, 19}";
type = Stem;
},
{
horizontal = 1;
place = "{195, 17}";
type = Stem;
},
{
place = "{24, 46}";
type = Stem;
},
{
place = "{234, 42}";
type = Stem;
},
{
horizontal = 1;
place = "{835, -16}";
type = Stem;
},
{
horizontal = 1;
place = "{207, 21}";
target = up;
type = BottomGhost;
}
);
layerId = "22FBF237-8195-4580-A019-F135C28A8A87";
paths = (
{
closed = 1;
nodes = (
"83 241 OFFCURVE",
"83 86 CURVE SMOOTH",
"83 40 OFFCURVE",
"118 -4 OFFCURVE",
"157 -14 CURVE SMOOTH",
"183 -21 OFFCURVE",
"211 -23 OFFCURVE",
"238 -23 CURVE SMOOTH",
"401 -23 OFFCURVE",
"554 95 OFFCURVE",
"646 232 CURVE SMOOTH",
"673 271 OFFCURVE",
"700 319 OFFCURVE",
"709 367 CURVE SMOOTH",
"715 394 OFFCURVE",
"719 423 OFFCURVE",
"719 452 CURVE SMOOTH",
"719 603 OFFCURVE",
"622 700 OFFCURVE",
"482 706 CURVE SMOOTH",
"473 706 OFFCURVE",
"465 707 OFFCURVE",
"457 707 CURVE SMOOTH",
"329 707 OFFCURVE",
"234 664 OFFCURVE",
"134 582 CURVE SMOOTH",
"120 570 OFFCURVE",
"60 509 OFFCURVE",
"60 490 CURVE SMOOTH",
"60 489 OFFCURVE",
"60 488 OFFCURVE",
"62 488 CURVE SMOOTH",
"70 488 OFFCURVE",
"99 518 OFFCURVE",
"105 523 CURVE SMOOTH",
"211 626 OFFCURVE",
"325 687 OFFCURVE",
"472 687 CURVE SMOOTH",
"591 687 OFFCURVE",
"663 576 OFFCURVE",
"663 458 CURVE SMOOTH",
"663 427 OFFCURVE",
"658 394 OFFCURVE",
"649 364 CURVE SMOOTH",
"611 239 OFFCURVE",
"486 93 OFFCURVE",
"376 35 CURVE SMOOTH",
"331 12 OFFCURVE",
"288 -4 OFFCURVE",
"238 -4 CURVE SMOOTH",
"225 -4 LINE SMOOTH",
"190 -4 OFFCURVE",
"120 6 OFFCURVE",
"120 57 CURVE SMOOTH",
"120 135 OFFCURVE",
"195 279 OFFCURVE",
"404 322 CURVE SMOOTH",
"442 329 OFFCURVE",
"571 342 OFFCURVE",
"673 324 CURVE SMOOTH",
"699 319 OFFCURVE",
"722 346 OFFCURVE",
"677 355 CURVE SMOOTH",
"561 380 OFFCURVE",
"397 363 OFFCURVE",
"362 355 CURVE SMOOTH",
"228 326 OFFCURVE"
);
}
);
width = 755;
}
);
unicode = 018F;
},
{
color = 3;
glyphname = T;
lastChange = "2021-09-01 22:40:03 +0000";
layers = (
{
hints = (
{
horizontal = 1;
place = "{560, 29}";
type = Stem;
}
);
layerId = "22FBF237-8195-4580-A019-F135C28A8A87";
paths = (
{
closed = 1;
nodes = (
"488 741 OFFCURVE",
"350 738 OFFCURVE",
"212 738 CURVE SMOOTH",
"157 738 OFFCURVE",
"102 739 OFFCURVE",
"47 735 CURVE SMOOTH",
"34 734 OFFCURVE",
"-2 730 OFFCURVE",
"-2 710 CURVE SMOOTH",
"-2 704 OFFCURVE",
"2 700 OFFCURVE",
"8 700 CURVE SMOOTH",
"28 700 OFFCURVE",
"49 702 OFFCURVE",
"70 703 CURVE SMOOTH",
"115 705 OFFCURVE",
"161 706 OFFCURVE",
"207 706 CURVE SMOOTH",
"218 706 OFFCURVE",
"300 707 OFFCURVE",
"300 700 CURVE SMOOTH",
"300 699 LINE SMOOTH",
"300 614 OFFCURVE",
"277 529 OFFCURVE",
"263 446 CURVE SMOOTH",
"242 328 OFFCURVE",
"220 210 OFFCURVE",
"203 91 CURVE",
"196 92 OFFCURVE",
"192 87 OFFCURVE",
"192 81 CURVE SMOOTH",
"190 54 LINE",
"186 32 OFFCURVE",
"180 11 OFFCURVE",
"173 -10 CURVE",
"172 -11 OFFCURVE",
"172 -12 OFFCURVE",
"172 -13 CURVE SMOOTH",
"172 -19 OFFCURVE",
"177 -23 OFFCURVE",
"182 -23 CURVE SMOOTH",
"186 -23 OFFCURVE",
"191 -20 OFFCURVE",
"192 -16 CURVE",
"201 -14 OFFCURVE",
"240 -3 OFFCURVE",
"242 8 CURVE SMOOTH",
"246 28 OFFCURVE",
"247 50 OFFCURVE",
"250 70 CURVE SMOOTH",
"254 103 OFFCURVE",
"259 135 OFFCURVE",
"264 168 CURVE SMOOTH",
"285 298 OFFCURVE",
"311 428 OFFCURVE",
"336 558 CURVE SMOOTH",
"354 653 LINE SMOOTH",
"357 668 OFFCURVE",
"359 685 OFFCURVE",
"363 700 CURVE SMOOTH",
"365 708 OFFCURVE",
"453 707 OFFCURVE",
"467 707 CURVE SMOOTH",
"498 707 OFFCURVE",
"575 704 OFFCURVE",
"601 709 CURVE SMOOTH",
"612 711 OFFCURVE",
"635 719 OFFCURVE",
"635 734 CURVE SMOOTH",
"635 739 OFFCURVE",
"631 741 OFFCURVE",
"626 741 CURVE SMOOTH"
);
}
);
width = 635;
}
);
note = T;
unicode = 0054;
},
{
color = 3;
glyphname = U;
lastChange = "2021-09-01 22:40:03 +0000";
layers = (
{
hints = (
{
horizontal = 1;
place = "{-49, 18}";
type = Stem;
},
{
horizontal = 1;
place = "{569, -20}";
target = down;
type = TopGhost;
}
);
layerId = "22FBF237-8195-4580-A019-F135C28A8A87";
paths = (
{
closed = 1;
nodes = (
"741 790 OFFCURVE",
"709 799 OFFCURVE",
"696 799 CURVE SMOOTH",
"689 799 OFFCURVE",
"682 797 OFFCURVE",
"680 790 CURVE SMOOTH",
"676 772 OFFCURVE",
"674 752 OFFCURVE",
"671 733 CURVE SMOOTH",
"666 700 OFFCURVE",
"660 667 OFFCURVE",
"654 634 CURVE SMOOTH",
"637 540 OFFCURVE",
"613 447 OFFCURVE",
"586 356 CURVE SMOOTH",
"571 307 OFFCURVE",
"553 259 OFFCURVE",
"529 213 CURVE SMOOTH",
"479 117 OFFCURVE",
"386 6 OFFCURVE",
"268 6 CURVE SMOOTH",
"130 6 OFFCURVE",
"81 151 OFFCURVE",
"81 266 CURVE SMOOTH",
"81 300 OFFCURVE",
"84 334 OFFCURVE",
"90 367 CURVE SMOOTH",
"102 439 OFFCURVE",
"121 509 OFFCURVE",
"146 578 CURVE SMOOTH",
"163 623 OFFCURVE",
"184 667 OFFCURVE",
"199 712 CURVE SMOOTH",
"200 714 OFFCURVE",
"200 716 OFFCURVE",
"200 718 CURVE SMOOTH",
"200 735 OFFCURVE",
"177 755 OFFCURVE",
"160 755 CURVE SMOOTH",
"154 755 OFFCURVE",
"150 752 OFFCURVE",
"147 746 CURVE SMOOTH",
"136 725 OFFCURVE",
"128 700 OFFCURVE",
"119 678 CURVE SMOOTH",
"83 580 OFFCURVE",
"48 471 OFFCURVE",
"33 368 CURVE SMOOTH",
"29 335 OFFCURVE",
"26 303 OFFCURVE",
"26 271 CURVE SMOOTH",
"26 128 OFFCURVE",
"89 -20 OFFCURVE",
"252 -20 CURVE SMOOTH",
"393 -20 OFFCURVE",
"514 91 OFFCURVE",
"579 207 CURVE SMOOTH",
"606 254 OFFCURVE",
"625 304 OFFCURVE",
"640 356 CURVE SMOOTH",
"674 475 OFFCURVE",
"704 596 OFFCURVE",
"730 716 CURVE SMOOTH",
"733 729 OFFCURVE",
"741 761 OFFCURVE",
"741 772 CURVE SMOOTH"
);
}
);
width = 754;
}
);
note = U;
unicode = 0055;
},
{
color = 11;
glyphname = Uacute;
lastChange = "2021-09-02 04:37:43 +0000";
layers = (
{
hints = (
{
horizontal = 1;
place = "{-49, 18}";
type = Stem;
},
{
horizontal = 1;
place = "{569, -20}";
target = down;
type = TopGhost;
},
{
horizontal = 1;
place = "{774, 20}";
type = Stem;
}
);
layerId = "22FBF237-8195-4580-A019-F135C28A8A87";
paths = (
{
closed = 1;
nodes = (
"741 790 OFFCURVE",
"709 799 OFFCURVE",
"696 799 CURVE SMOOTH",
"689 799 OFFCURVE",
"682 797 OFFCURVE",
"680 790 CURVE SMOOTH",
"676 772 OFFCURVE",
"674 752 OFFCURVE",
"671 733 CURVE SMOOTH",
"666 700 OFFCURVE",
"660 667 OFFCURVE",
"654 634 CURVE SMOOTH",
"637 540 OFFCURVE",
"613 447 OFFCURVE",
"586 356 CURVE SMOOTH",
"571 307 OFFCURVE",
"553 259 OFFCURVE",
"529 213 CURVE SMOOTH",
"479 117 OFFCURVE",
"386 6 OFFCURVE",
"268 6 CURVE SMOOTH",
"130 6 OFFCURVE",
"81 151 OFFCURVE",
"81 266 CURVE SMOOTH",
"81 300 OFFCURVE",
"84 334 OFFCURVE",
"90 367 CURVE SMOOTH",
"102 439 OFFCURVE",
"121 509 OFFCURVE",
"146 578 CURVE SMOOTH",
"163 623 OFFCURVE",
"184 667 OFFCURVE",
"199 712 CURVE SMOOTH",
"200 714 OFFCURVE",
"200 716 OFFCURVE",
"200 718 CURVE SMOOTH",
"200 735 OFFCURVE",
"177 755 OFFCURVE",
"160 755 CURVE SMOOTH",
"154 755 OFFCURVE",
"150 752 OFFCURVE",
"147 746 CURVE SMOOTH",
"136 725 OFFCURVE",
"128 700 OFFCURVE",
"119 678 CURVE SMOOTH",
"83 580 OFFCURVE",
"48 471 OFFCURVE",
"33 368 CURVE SMOOTH",
"29 335 OFFCURVE",
"26 303 OFFCURVE",
"26 271 CURVE SMOOTH",
"26 128 OFFCURVE",
"89 -20 OFFCURVE",
"252 -20 CURVE SMOOTH",
"393 -20 OFFCURVE",
"514 91 OFFCURVE",
"579 207 CURVE SMOOTH",
"606 254 OFFCURVE",
"625 304 OFFCURVE",
"640 356 CURVE SMOOTH",
"674 475 OFFCURVE",
"704 596 OFFCURVE",
"730 716 CURVE SMOOTH",
"733 729 OFFCURVE",
"741 761 OFFCURVE",
"741 772 CURVE SMOOTH"
);
},
{
closed = 1;
nodes = (
"536 889 OFFCURVE",
"518 900 OFFCURVE",
"506 900 CURVE SMOOTH",
"495 900 OFFCURVE",
"484 896 OFFCURVE",
"479 884 CURVE SMOOTH",
"461 839 OFFCURVE",
"428 823 OFFCURVE",
"392 795 CURVE SMOOTH",
"388 792 OFFCURVE",
"378 782 OFFCURVE",
"378 776 CURVE SMOOTH",
"378 775 OFFCURVE",
"379 774 OFFCURVE",
"380 774 CURVE SMOOTH",
"394 774 OFFCURVE",
"471 827 OFFCURVE",
"489 838 CURVE SMOOTH",
"501 845 OFFCURVE",
"536 859 OFFCURVE",
"536 876 CURVE SMOOTH"
);
}
);
width = 754;
}
);
note = Uacute;
unicode = 00DA;
},
{
color = 11;
glyphname = Ucircumflex;
lastChange = "2021-09-02 04:37:43 +0000";
layers = (
{
hints = (
{
horizontal = 1;
place = "{-49, 18}";
type = Stem;
},
{
horizontal = 1;
place = "{569, -20}";
target = down;
type = TopGhost;
}
);
layerId = "22FBF237-8195-4580-A019-F135C28A8A87";
paths = (
{
closed = 1;
nodes = (
"741 790 OFFCURVE",
"709 799 OFFCURVE",
"696 799 CURVE SMOOTH",
"689 799 OFFCURVE",
"682 797 OFFCURVE",
"680 790 CURVE SMOOTH",
"676 772 OFFCURVE",
"674 752 OFFCURVE",
"671 733 CURVE SMOOTH",
"666 700 OFFCURVE",
"660 667 OFFCURVE",
"654 634 CURVE SMOOTH",
"637 540 OFFCURVE",
"613 447 OFFCURVE",
"586 356 CURVE SMOOTH",
"571 307 OFFCURVE",
"553 259 OFFCURVE",
"529 213 CURVE SMOOTH",
"479 117 OFFCURVE",
"386 6 OFFCURVE",
"268 6 CURVE SMOOTH",
"130 6 OFFCURVE",
"81 151 OFFCURVE",
"81 266 CURVE SMOOTH",
"81 300 OFFCURVE",
"84 334 OFFCURVE",
"90 367 CURVE SMOOTH",
"102 439 OFFCURVE",
"121 509 OFFCURVE",
"146 578 CURVE SMOOTH",
"163 623 OFFCURVE",
"184 667 OFFCURVE",
"199 712 CURVE SMOOTH",
"200 714 OFFCURVE",
"200 716 OFFCURVE",
"200 718 CURVE SMOOTH",
"200 735 OFFCURVE",
"177 755 OFFCURVE",
"160 755 CURVE SMOOTH",
"154 755 OFFCURVE",
"150 752 OFFCURVE",
"147 746 CURVE SMOOTH",
"136 725 OFFCURVE",
"128 700 OFFCURVE",
"119 678 CURVE SMOOTH",
"83 580 OFFCURVE",
"48 471 OFFCURVE",
"33 368 CURVE SMOOTH",
"29 335 OFFCURVE",
"26 303 OFFCURVE",
"26 271 CURVE SMOOTH",
"26 128 OFFCURVE",
"89 -20 OFFCURVE",
"252 -20 CURVE SMOOTH",
"393 -20 OFFCURVE",
"514 91 OFFCURVE",
"579 207 CURVE SMOOTH",
"606 254 OFFCURVE",
"625 304 OFFCURVE",
"640 356 CURVE SMOOTH",
"674 475 OFFCURVE",
"704 596 OFFCURVE",
"730 716 CURVE SMOOTH",
"733 729 OFFCURVE",
"741 761 OFFCURVE",
"741 772 CURVE SMOOTH"
);
},
{
closed = 1;
nodes = (
"589 813 LINE",
"585 823 LINE",
"544 856 OFFCURVE",
"503 890 OFFCURVE",
"469 931 CURVE",
"463 933 LINE",
"444 929 OFFCURVE",
"318 833 OFFCURVE",
"318 820 CURVE SMOOTH",
"318 817 OFFCURVE",
"320 810 OFFCURVE",
"324 810 CURVE SMOOTH",
"335 810 OFFCURVE",
"431 882 OFFCURVE",
"446 894 CURVE",
"466 870 OFFCURVE",
"554 808 OFFCURVE",
"584 806 CURVE"
);
}
);
width = 754;
}
);
note = Ucircumflex;
unicode = 00DB;
},
{
color = 11;
glyphname = Udieresis;
lastChange = "2021-09-02 04:37:43 +0000";
layers = (
{
hints = (
{
horizontal = 1;
place = "{-49, 18}";
type = Stem;
},
{
horizontal = 1;
place = "{569, -20}";
target = down;
type = TopGhost;
},
{
horizontal = 1;
place = "{827, 20}";
type = Stem;
}
);
layerId = "22FBF237-8195-4580-A019-F135C28A8A87";
paths = (
{
closed = 1;
nodes = (
"741 790 OFFCURVE",
"709 799 OFFCURVE",
"696 799 CURVE SMOOTH",
"689 799 OFFCURVE",
"682 797 OFFCURVE",
"680 790 CURVE SMOOTH",
"676 772 OFFCURVE",
"674 752 OFFCURVE",
"671 733 CURVE SMOOTH",
"666 700 OFFCURVE",
"660 667 OFFCURVE",
"654 634 CURVE SMOOTH",
"637 540 OFFCURVE",
"613 447 OFFCURVE",
"586 356 CURVE SMOOTH",
"571 307 OFFCURVE",
"553 259 OFFCURVE",
"529 213 CURVE SMOOTH",
"479 117 OFFCURVE",
"386 6 OFFCURVE",
"268 6 CURVE SMOOTH",
"130 6 OFFCURVE",
"81 151 OFFCURVE",
"81 266 CURVE SMOOTH",
"81 300 OFFCURVE",
"84 334 OFFCURVE",
"90 367 CURVE SMOOTH",
"102 439 OFFCURVE",
"121 509 OFFCURVE",
"146 578 CURVE SMOOTH",
"163 623 OFFCURVE",
"184 667 OFFCURVE",
"199 712 CURVE SMOOTH",
"200 714 OFFCURVE",
"200 716 OFFCURVE",
"200 718 CURVE SMOOTH",
"200 735 OFFCURVE",
"177 755 OFFCURVE",
"160 755 CURVE SMOOTH",
"154 755 OFFCURVE",
"150 752 OFFCURVE",
"147 746 CURVE SMOOTH",
"136 725 OFFCURVE",
"128 700 OFFCURVE",
"119 678 CURVE SMOOTH",
"83 580 OFFCURVE",
"48 471 OFFCURVE",
"33 368 CURVE SMOOTH",
"29 335 OFFCURVE",
"26 303 OFFCURVE",
"26 271 CURVE SMOOTH",
"26 128 OFFCURVE",
"89 -20 OFFCURVE",
"252 -20 CURVE SMOOTH",
"393 -20 OFFCURVE",
"514 91 OFFCURVE",
"579 207 CURVE SMOOTH",
"606 254 OFFCURVE",
"625 304 OFFCURVE",
"640 356 CURVE SMOOTH",
"674 475 OFFCURVE",
"704 596 OFFCURVE",
"730 716 CURVE SMOOTH",
"733 729 OFFCURVE",
"741 761 OFFCURVE",
"741 772 CURVE SMOOTH"
);
},
{
closed = 1;
nodes = (
"562 912 LINE",
"559 913 LINE",
"548 913 OFFCURVE",
"508 891 OFFCURVE",
"500 883 CURVE",
"492 880 OFFCURVE",
"482 867 OFFCURVE",
"482 858 CURVE SMOOTH",
"482 849 OFFCURVE",
"492 827 OFFCURVE",
"503 827 CURVE SMOOTH",
"529 827 OFFCURVE",
"535 876 OFFCURVE",
"547 893 CURVE SMOOTH",
"549 896 OFFCURVE",
"562 909 OFFCURVE",
"562 911 CURVE SMOOTH"
);
},
{
closed = 1;
nodes = (
"428 912 LINE",
"425 913 LINE",
"414 913 OFFCURVE",
"374 891 OFFCURVE",
"366 883 CURVE",
"358 880 OFFCURVE",
"348 867 OFFCURVE",
"348 858 CURVE SMOOTH",
"348 849 OFFCURVE",
"358 827 OFFCURVE",
"369 827 CURVE SMOOTH",
"395 827 OFFCURVE",
"401 876 OFFCURVE",
"413 893 CURVE SMOOTH",
"415 896 OFFCURVE",
"428 909 OFFCURVE",
"428 911 CURVE SMOOTH"
);
}
);
width = 754;
}
);
note = Udieresis;
unicode = 00DC;
},
{
color = 11;
glyphname = Ugrave;
lastChange = "2021-09-02 04:37:43 +0000";
layers = (
{
hints = (
{
horizontal = 1;
place = "{-49, 18}";
type = Stem;
},
{
horizontal = 1;
place = "{569, -20}";
target = down;
type = TopGhost;
},
{
horizontal = 1;
place = "{790, 20}";
type = Stem;
}
);
layerId = "22FBF237-8195-4580-A019-F135C28A8A87";
paths = (
{
closed = 1;
nodes = (
"741 790 OFFCURVE",
"709 799 OFFCURVE",
"696 799 CURVE SMOOTH",
"689 799 OFFCURVE",
"682 797 OFFCURVE",
"680 790 CURVE SMOOTH",
"676 772 OFFCURVE",
"674 752 OFFCURVE",
"671 733 CURVE SMOOTH",
"666 700 OFFCURVE",
"660 667 OFFCURVE",
"654 634 CURVE SMOOTH",
"637 540 OFFCURVE",
"613 447 OFFCURVE",
"586 356 CURVE SMOOTH",
"571 307 OFFCURVE",
"553 259 OFFCURVE",
"529 213 CURVE SMOOTH",
"479 117 OFFCURVE",
"386 6 OFFCURVE",
"268 6 CURVE SMOOTH",
"130 6 OFFCURVE",
"81 151 OFFCURVE",
"81 266 CURVE SMOOTH",
"81 300 OFFCURVE",
"84 334 OFFCURVE",
"90 367 CURVE SMOOTH",
"102 439 OFFCURVE",
"121 509 OFFCURVE",
"146 578 CURVE SMOOTH",
"163 623 OFFCURVE",
"184 667 OFFCURVE",
"199 712 CURVE SMOOTH",
"200 714 OFFCURVE",
"200 716 OFFCURVE",
"200 718 CURVE SMOOTH",
"200 735 OFFCURVE",
"177 755 OFFCURVE",
"160 755 CURVE SMOOTH",
"154 755 OFFCURVE",
"150 752 OFFCURVE",
"147 746 CURVE SMOOTH",
"136 725 OFFCURVE",
"128 700 OFFCURVE",
"119 678 CURVE SMOOTH",
"83 580 OFFCURVE",
"48 471 OFFCURVE",
"33 368 CURVE SMOOTH",
"29 335 OFFCURVE",
"26 303 OFFCURVE",
"26 271 CURVE SMOOTH",
"26 128 OFFCURVE",
"89 -20 OFFCURVE",
"252 -20 CURVE SMOOTH",
"393 -20 OFFCURVE",
"514 91 OFFCURVE",
"579 207 CURVE SMOOTH",
"606 254 OFFCURVE",
"625 304 OFFCURVE",
"640 356 CURVE SMOOTH",
"674 475 OFFCURVE",
"704 596 OFFCURVE",
"730 716 CURVE SMOOTH",
"733 729 OFFCURVE",
"741 761 OFFCURVE",
"741 772 CURVE SMOOTH"
);
},
{
closed = 1;
nodes = (
"505 798 OFFCURVE",
"496 807 OFFCURVE",
"492 810 CURVE SMOOTH",
"458 839 OFFCURVE",
"427 854 OFFCURVE",
"413 900 CURVE SMOOTH",
"409 911 OFFCURVE",
"398 916 OFFCURVE",
"387 916 CURVE SMOOTH",
"376 916 OFFCURVE",
"355 904 OFFCURVE",
"355 892 CURVE SMOOTH",
"355 874 OFFCURVE",
"386 861 OFFCURVE",
"399 853 CURVE SMOOTH",
"416 842 OFFCURVE",
"488 790 OFFCURVE",
"502 790 CURVE SMOOTH",
"503 790 OFFCURVE",
"505 791 OFFCURVE",
"505 792 CURVE SMOOTH"
);
}
);
width = 754;
}
);
note = Ugrave;
unicode = 00D9;
},
{
color = 3;
glyphname = V;
lastChange = "2021-09-01 22:40:03 +0000";
layers = (
{
hints = (
{
horizontal = 1;
place = "{657, -20}";
target = down;
type = TopGhost;
},
{
place = "{42, 34}";
type = Stem;
}
);
layerId = "22FBF237-8195-4580-A019-F135C28A8A87";
paths = (
{
closed = 1;
nodes = (
"109 -25 OFFCURVE",
"115 -25 OFFCURVE",
"116 -24 CURVE",
"145 -6 OFFCURVE",
"138 5 OFFCURVE",
"151 31 CURVE SMOOTH",
"152 34 OFFCURVE",
"192 81 OFFCURVE",
"196 86 CURVE SMOOTH",
"219 113 OFFCURVE",
"241 141 OFFCURVE",
"262 169 CURVE SMOOTH",
"339 269 OFFCURVE",
"412 371 OFFCURVE",
"484 475 CURVE SMOOTH",
"548 568 OFFCURVE",
"587 640 OFFCURVE",
"628 746 CURVE SMOOTH",
"634 763 OFFCURVE",
"644 789 OFFCURVE",
"644 807 CURVE SMOOTH",
"644 811 OFFCURVE",
"644 820 OFFCURVE",
"638 820 CURVE SMOOTH",
"626 820 OFFCURVE",
"606 780 OFFCURVE",
"602 772 CURVE SMOOTH",
"572 715 OFFCURVE",
"543 656 OFFCURVE",
"512 599 CURVE SMOOTH",
"404 403 OFFCURVE",
"279 216 OFFCURVE",
"124 54 CURVE",
"99 235 OFFCURVE",
"81 432 OFFCURVE",
"81 614 CURVE SMOOTH",
"81 643 OFFCURVE",
"82 672 OFFCURVE",
"83 701 CURVE SMOOTH",
"84 712 OFFCURVE",
"85 723 OFFCURVE",
"85 734 CURVE SMOOTH",
"85 750 OFFCURVE",
"55 760 OFFCURVE",
"42 760 CURVE SMOOTH",
"37 760 OFFCURVE",
"30 758 OFFCURVE",
"29 751 CURVE SMOOTH",
"25 723 OFFCURVE",
"26 685 OFFCURVE",
"26 655 CURVE SMOOTH",
"26 518 OFFCURVE",
"40 380 OFFCURVE",
"57 244 CURVE SMOOTH",
"62 204 OFFCURVE",
"68 164 OFFCURVE",
"74 123 CURVE SMOOTH",
"77 104 OFFCURVE",
"81 84 OFFCURVE",
"82 64 CURVE SMOOTH",
"83 47 OFFCURVE",
"81 -25 OFFCURVE",
"108 -25 CURVE SMOOTH"
);
}
);
width = 494;
}
);
note = V;
unicode = 0056;
},
{
color = 3;
glyphname = W;
lastChange = "2021-09-01 22:40:03 +0000";
layers = (
{
hints = (
{
horizontal = 1;
place = "{620, -20}";
target = down;
type = TopGhost;
},
{
place = "{52, 39}";
type = Stem;
},
{
place = "{479, 47}";
type = Stem;
}
);
layerId = "22FBF237-8195-4580-A019-F135C28A8A87";
paths = (
{
closed = 1;
nodes = (
"702 -37 OFFCURVE",
"722 -6 OFFCURVE",
"730 17 CURVE SMOOTH",
"736 33 OFFCURVE",
"740 50 OFFCURVE",
"746 66 CURVE SMOOTH",
"785 170 OFFCURVE",
"830 271 OFFCURVE",
"876 372 CURVE SMOOTH",
"914 457 OFFCURVE",
"953 541 OFFCURVE",
"997 623 CURVE SMOOTH",
"1009 646 OFFCURVE",
"1023 669 OFFCURVE",
"1035 692 CURVE SMOOTH",
"1043 705 OFFCURVE",
"1047 717 OFFCURVE",
"1047 732 CURVE SMOOTH",
"1047 737 OFFCURVE",
"1046 752 OFFCURVE",
"1037 752 CURVE SMOOTH",
"1031 752 OFFCURVE",
"1026 744 OFFCURVE",
"1023 740 CURVE SMOOTH",
"986 679 OFFCURVE",
"955 612 OFFCURVE",
"925 548 CURVE SMOOTH",
"875 441 OFFCURVE",
"828 333 OFFCURVE",
"782 224 CURVE SMOOTH",
"721 78 LINE",
"709 48 LINE",
"706 42 LINE",
"703 42 OFFCURVE",
"706 47 OFFCURVE",
"706 51 CURVE SMOOTH",
"705 61 LINE SMOOTH",
"704 78 OFFCURVE",
"700 95 OFFCURVE",
"697 112 CURVE SMOOTH",
"688 164 OFFCURVE",
"675 215 OFFCURVE",
"662 265 CURVE SMOOTH",
"635 368 OFFCURVE",
"604 469 OFFCURVE",
"570 570 CURVE SMOOTH",
"555 616 OFFCURVE",
"540 663 OFFCURVE",
"522 707 CURVE",
"520 714 OFFCURVE",
"516 721 OFFCURVE",
"507 721 CURVE SMOOTH",
"489 721 OFFCURVE",
"459 680 OFFCURVE",
"459 663 CURVE SMOOTH",
"459 662 OFFCURVE",
"459 660 OFFCURVE",
"460 659 CURVE",
"460 658 LINE",
"466 651 OFFCURVE",
"475 638 OFFCURVE",
"475 628 CURVE SMOOTH",
"475 626 OFFCURVE",
"475 625 OFFCURVE",
"474 623 CURVE SMOOTH",
"413 483 OFFCURVE",
"345 345 OFFCURVE",
"272 210 CURVE SMOOTH",
"240 152 OFFCURVE",
"205 85 OFFCURVE",
"163 33 CURVE",
"154 207 OFFCURVE",
"138 383 OFFCURVE",
"111 555 CURVE SMOOTH",
"100 624 OFFCURVE",
"88 702 OFFCURVE",
"64 768 CURVE SMOOTH",
"62 774 OFFCURVE",
"58 776 OFFCURVE",
"53 776 CURVE SMOOTH",
"40 776 OFFCURVE",
"16 762 OFFCURVE",
"16 746 CURVE SMOOTH",
"16 745 OFFCURVE",
"17 744 OFFCURVE",
"17 743 CURVE SMOOTH",
"51 597 OFFCURVE",
"71 448 OFFCURVE",
"89 299 CURVE SMOOTH",
"96 244 OFFCURVE",
"102 188 OFFCURVE",
"107 132 CURVE SMOOTH",
"110 100 OFFCURVE",
"115 67 OFFCURVE",
"116 35 CURVE SMOOTH",
"116 18 OFFCURVE",
"114 -34 OFFCURVE",
"123 -48 CURVE SMOOTH",
"127 -53 OFFCURVE",
"132 -55 OFFCURVE",
"138 -55 CURVE SMOOTH",
"139 -55 OFFCURVE",
"145 -55 OFFCURVE",
"146 -54 CURVE",
"176 -39 OFFCURVE",
"169 -21 OFFCURVE",
"181 5 CURVE SMOOTH",
"183 10 OFFCURVE",
"189 17 OFFCURVE",
"193 23 CURVE SMOOTH",
"215 59 LINE",
"284 180 LINE SMOOTH",
"353 305 OFFCURVE",
"418 431 OFFCURVE",
"486 556 CURVE",
"488 561 OFFCURVE",
"495 575 OFFCURVE",
"503 575 CURVE SMOOTH",
"511 575 OFFCURVE",
"516 558 OFFCURVE",
"518 553 CURVE SMOOTH",
"533 515 OFFCURVE",
"545 475 OFFCURVE",
"557 436 CURVE SMOOTH",
"594 322 OFFCURVE",
"650 133 OFFCURVE",
"650 15 CURVE SMOOTH",
"650 -4 OFFCURVE",
"647 -37 OFFCURVE",
"674 -37 CURVE SMOOTH"
);
}
);
width = 1058;
}
);
note = W;
unicode = 0057;
},
{
color = 3;
glyphname = X;
lastChange = "2021-09-01 22:40:03 +0000";
layers = (
{
hints = (
{
horizontal = 1;
place = "{622, -20}";
target = down;
type = TopGhost;
}
);
layerId = "22FBF237-8195-4580-A019-F135C28A8A87";
paths = (
{
closed = 1;
nodes = (
"504 369 LINE",
"517 376 OFFCURVE",
"538 398 OFFCURVE",
"550 408 CURVE SMOOTH",
"597 449 OFFCURVE",
"642 491 OFFCURVE",
"687 534 CURVE SMOOTH",
"717 562 OFFCURVE",
"747 590 OFFCURVE",
"774 620 CURVE SMOOTH",
"796 645 OFFCURVE",
"848 703 OFFCURVE",
"848 738 CURVE SMOOTH",
"848 743 OFFCURVE",
"846 749 OFFCURVE",
"841 749 CURVE SMOOTH",
"826 749 OFFCURVE",
"800 721 OFFCURVE",
"791 711 CURVE SMOOTH",
"709 621 OFFCURVE",
"629 530 OFFCURVE",
"544 444 CURVE SMOOTH",
"535 435 OFFCURVE",
"503 402 OFFCURVE",
"492 396 CURVE",
"461 471 OFFCURVE",
"427 545 OFFCURVE",
"392 618 CURVE SMOOTH",
"370 662 OFFCURVE",
"348 710 OFFCURVE",
"319 750 CURVE SMOOTH",
"317 753 OFFCURVE",
"314 754 OFFCURVE",
"311 754 CURVE SMOOTH",
"297 754 OFFCURVE",
"267 734 OFFCURVE",
"267 719 CURVE SMOOTH",
"267 716 OFFCURVE",
"268 715 OFFCURVE",
"270 713 CURVE SMOOTH",
"325 657 OFFCURVE",
"419 446 OFFCURVE",
"455 365 CURVE",
"335 255 OFFCURVE",
"156 86 OFFCURVE",
"75 -53 CURVE SMOOTH",
"71 -60 OFFCURVE",
"67 -67 OFFCURVE",
"67 -76 CURVE SMOOTH",
"67 -78 OFFCURVE",
"68 -83 OFFCURVE",
"70 -85 CURVE",
"100 -51 LINE SMOOTH",
"119 -27 OFFCURVE",
"139 -4 OFFCURVE",
"159 19 CURVE SMOOTH",
"223 93 OFFCURVE",
"287 167 OFFCURVE",
"355 237 CURVE SMOOTH",
"389 274 OFFCURVE",
"425 311 OFFCURVE",
"465 342 CURVE",
"507 253 OFFCURVE",
"622 34 OFFCURVE",
"701 -14 CURVE",
"703 -14 OFFCURVE",
"704 -15 OFFCURVE",
"706 -15 CURVE SMOOTH",
"717 -15 OFFCURVE",
"737 -3 OFFCURVE",
"737 11 CURVE SMOOTH",
"737 16 OFFCURVE",
"734 20 OFFCURVE",
"730 24 CURVE SMOOTH",
"716 39 OFFCURVE",
"701 52 OFFCURVE",
"688 68 CURVE SMOOTH",
"611 157 OFFCURVE",
"555 264 OFFCURVE",
"503 369 CURVE"
);
}
);
width = 808;
}
);
note = X;
unicode = 0058;
},
{
color = 3;
glyphname = Y;
lastChange = "2021-09-01 22:40:03 +0000";
layers = (
{
hints = (
{
horizontal = 1;
place = "{11, -20}";
target = down;
type = TopGhost;
},
{
horizontal = 1;
place = "{601, -20}";
target = down;
type = TopGhost;
}
);
layerId = "22FBF237-8195-4580-A019-F135C28A8A87";
paths = (
{
closed = 1;
nodes = (
"331 341 LINE",
"367 390 OFFCURVE",
"405 437 OFFCURVE",
"445 482 CURVE SMOOTH",
"470 510 OFFCURVE",
"497 535 OFFCURVE",
"520 564 CURVE SMOOTH",
"567 619 OFFCURVE",
"645 712 OFFCURVE",
"708 745 CURVE",
"709 746 OFFCURVE",
"711 747 OFFCURVE",
"712 749 CURVE",
"711 752 OFFCURVE",
"702 752 OFFCURVE",
"699 752 CURVE SMOOTH",
"664 752 OFFCURVE",
"629 729 OFFCURVE",
"604 706 CURVE SMOOTH",
"563 669 OFFCURVE",
"527 624 OFFCURVE",
"491 582 CURVE SMOOTH",
"436 516 OFFCURVE",
"381 450 OFFCURVE",
"328 382 CURVE",
"285 444 OFFCURVE",
"79 725 OFFCURVE",
"46 758 CURVE SMOOTH",
"45 759 LINE SMOOTH",
"43 761 OFFCURVE",
"40 761 OFFCURVE",
"38 761 CURVE SMOOTH",
"23 761 OFFCURVE",
"5 742 OFFCURVE",
"5 727 CURVE SMOOTH",
"5 717 OFFCURVE",
"10 715 OFFCURVE",
"17 711 CURVE SMOOTH",
"43 696 OFFCURVE",
"284 358 OFFCURVE",
"284 341 CURVE SMOOTH",
"284 329 OFFCURVE",
"270 276 OFFCURVE",
"267 261 CURVE SMOOTH",
"253 195 OFFCURVE",
"239 129 OFFCURVE",
"227 62 CURVE SMOOTH",
"224 45 OFFCURVE",
"214 3 OFFCURVE",
"214 -12 CURVE SMOOTH",
"214 -17 OFFCURVE",
"217 -17 OFFCURVE",
"221 -17 CURVE SMOOTH",
"238 -17 OFFCURVE",
"267 -3 OFFCURVE",
"272 14 CURVE SMOOTH",
"275 23 OFFCURVE",
"275 33 OFFCURVE",
"277 43 CURVE SMOOTH",
"291 123 LINE"
);
}
);
width = 485;
}
);
note = Y;
unicode = 0059;
},
{
color = 11;
glyphname = Yacute;
lastChange = "2021-09-02 04:37:43 +0000";
layers = (
{
hints = (
{
horizontal = 1;
place = "{11, -20}";
target = down;
type = TopGhost;
},
{
horizontal = 1;
place = "{601, -20}";
target = down;
type = TopGhost;
},
{
horizontal = 1;
place = "{668, 20}";
type = Stem;
}
);
layerId = "22FBF237-8195-4580-A019-F135C28A8A87";
paths = (
{
closed = 1;
nodes = (
"331 341 LINE",
"367 390 OFFCURVE",
"405 437 OFFCURVE",
"445 482 CURVE SMOOTH",
"470 510 OFFCURVE",
"497 535 OFFCURVE",
"520 564 CURVE SMOOTH",
"567 619 OFFCURVE",
"645 712 OFFCURVE",
"708 745 CURVE",
"709 746 OFFCURVE",
"711 747 OFFCURVE",
"712 749 CURVE",
"711 752 OFFCURVE",
"702 752 OFFCURVE",
"699 752 CURVE SMOOTH",
"664 752 OFFCURVE",
"629 729 OFFCURVE",
"604 706 CURVE SMOOTH",
"563 669 OFFCURVE",
"527 624 OFFCURVE",
"491 582 CURVE SMOOTH",
"436 516 OFFCURVE",
"381 450 OFFCURVE",
"328 382 CURVE",
"285 444 OFFCURVE",
"84 732 OFFCURVE",
"46 758 CURVE SMOOTH",
"45 759 LINE SMOOTH",
"43 760 OFFCURVE",
"40 761 OFFCURVE",
"38 761 CURVE SMOOTH",
"23 761 OFFCURVE",
"5 742 OFFCURVE",
"5 727 CURVE SMOOTH",
"5 717 OFFCURVE",
"10 715 OFFCURVE",
"17 711 CURVE SMOOTH",
"43 696 OFFCURVE",
"284 358 OFFCURVE",
"284 341 CURVE SMOOTH",
"284 329 OFFCURVE",
"270 276 OFFCURVE",
"267 261 CURVE SMOOTH",
"253 195 OFFCURVE",
"239 129 OFFCURVE",
"227 62 CURVE SMOOTH",
"224 45 OFFCURVE",
"214 3 OFFCURVE",
"214 -12 CURVE SMOOTH",
"214 -17 OFFCURVE",
"217 -17 OFFCURVE",
"221 -17 CURVE SMOOTH",
"238 -17 OFFCURVE",
"267 -3 OFFCURVE",
"272 14 CURVE SMOOTH",
"275 23 OFFCURVE",
"275 33 OFFCURVE",
"277 43 CURVE SMOOTH",
"291 123 LINE"
);
},
{
closed = 1;
nodes = (
"444 783 OFFCURVE",
"426 794 OFFCURVE",
"414 794 CURVE SMOOTH",
"403 794 OFFCURVE",
"392 790 OFFCURVE",
"387 778 CURVE SMOOTH",
"369 733 OFFCURVE",
"336 717 OFFCURVE",
"300 689 CURVE SMOOTH",
"296 686 OFFCURVE",
"286 676 OFFCURVE",
"286 670 CURVE SMOOTH",
"286 669 OFFCURVE",
"287 668 OFFCURVE",
"288 668 CURVE SMOOTH",
"302 668 OFFCURVE",
"379 721 OFFCURVE",
"397 732 CURVE SMOOTH",
"409 739 OFFCURVE",
"444 753 OFFCURVE",
"444 770 CURVE SMOOTH"
);
}
);
width = 485;
}
);
note = Yacute;
unicode = 00DD;
},
{
color = 3;
glyphname = Z;
lastChange = "2021-09-01 22:40:03 +0000";
layers = (
{
hints = (
{
horizontal = 1;
place = "{17, -20}";
target = down;
type = TopGhost;
}
);
layerId = "22FBF237-8195-4580-A019-F135C28A8A87";
paths = (
{
closed = 1;
nodes = (
"693 699 OFFCURVE",
"688 724 OFFCURVE",
"675 734 CURVE SMOOTH",
"670 738 OFFCURVE",
"415 743 OFFCURVE",
"393 743 CURVE SMOOTH",
"361 743 OFFCURVE",
"189 742 OFFCURVE",
"168 722 CURVE SMOOTH",
"159 714 OFFCURVE",
"149 683 OFFCURVE",
"149 671 CURVE SMOOTH",
"149 663 OFFCURVE",
"152 654 OFFCURVE",
"162 654 CURVE",
"190 685 OFFCURVE",
"332 717 OFFCURVE",
"376 717 CURVE SMOOTH",
"413 717 LINE SMOOTH",
"439 717 OFFCURVE",
"606 715 OFFCURVE",
"622 702 CURVE SMOOTH",
"624 700 OFFCURVE",
"626 697 OFFCURVE",
"626 693 CURVE SMOOTH",
"626 650 OFFCURVE",
"426 479 OFFCURVE",
"391 447 CURVE SMOOTH",
"345 406 OFFCURVE",
"299 365 OFFCURVE",
"254 323 CURVE SMOOTH",
"203 277 OFFCURVE",
"154 229 OFFCURVE",
"108 178 CURVE SMOOTH",
"76 143 OFFCURVE",
"43 104 OFFCURVE",
"24 60 CURVE SMOOTH",
"21 54 OFFCURVE",
"20 48 OFFCURVE",
"20 41 CURVE SMOOTH",
"20 25 OFFCURVE",
"40 7 OFFCURVE",
"53 0 CURVE SMOOTH",
"59 -3 OFFCURVE",
"96 -3 OFFCURVE",
"101 -3 CURVE SMOOTH",
"244 -3 OFFCURVE",
"386 7 OFFCURVE",
"529 7 CURVE SMOOTH",
"566 7 OFFCURVE",
"604 8 OFFCURVE",
"640 0 CURVE SMOOTH",
"647 -1 OFFCURVE",
"653 -3 OFFCURVE",
"660 -3 CURVE SMOOTH",
"665 -3 OFFCURVE",
"683 -1 OFFCURVE",
"683 8 CURVE SMOOTH",
"683 23 OFFCURVE",
"634 29 OFFCURVE",
"625 30 CURVE SMOOTH",
"558 39 OFFCURVE",
"487 39 OFFCURVE",
"418 39 CURVE SMOOTH",
"307 39 OFFCURVE",
"195 35 OFFCURVE",
"84 27 CURVE",
"97 129 OFFCURVE",
"317 318 OFFCURVE",
"393 385 CURVE SMOOTH",
"447 433 OFFCURVE",
"501 480 OFFCURVE",
"554 528 CURVE SMOOTH",
"590 561 OFFCURVE",
"676 639 OFFCURVE",
"695 684 CURVE"
);
}
);
width = 836;
}
);
note = Z;
unicode = 005A;
},
{
color = 11;
glyphname = Zcaron;
lastChange = "2021-09-02 04:37:43 +0000";
layers = (
{
hints = (
{
horizontal = 1;
place = "{17, -20}";
target = down;
type = TopGhost;
}
);
layerId = "22FBF237-8195-4580-A019-F135C28A8A87";
paths = (
{
closed = 1;
nodes = (
"693 699 OFFCURVE",
"688 724 OFFCURVE",
"675 734 CURVE SMOOTH",
"670 738 OFFCURVE",
"415 743 OFFCURVE",
"393 743 CURVE SMOOTH",
"361 743 OFFCURVE",
"189 742 OFFCURVE",
"168 722 CURVE SMOOTH",
"159 714 OFFCURVE",
"149 683 OFFCURVE",
"149 671 CURVE SMOOTH",
"149 663 OFFCURVE",
"152 654 OFFCURVE",
"162 654 CURVE",
"190 685 OFFCURVE",
"332 716 OFFCURVE",
"376 717 CURVE SMOOTH",
"413 717 LINE SMOOTH",
"439 717 OFFCURVE",
"606 715 OFFCURVE",
"622 702 CURVE SMOOTH",
"624 700 OFFCURVE",
"626 697 OFFCURVE",
"626 693 CURVE SMOOTH",
"626 650 OFFCURVE",
"426 479 OFFCURVE",
"391 447 CURVE SMOOTH",
"345 406 OFFCURVE",
"299 365 OFFCURVE",
"254 323 CURVE SMOOTH",
"203 277 OFFCURVE",
"154 229 OFFCURVE",
"108 178 CURVE SMOOTH",
"76 143 OFFCURVE",
"43 104 OFFCURVE",
"24 60 CURVE SMOOTH",
"21 54 OFFCURVE",
"20 48 OFFCURVE",
"20 41 CURVE SMOOTH",
"20 25 OFFCURVE",
"40 7 OFFCURVE",
"53 0 CURVE SMOOTH",
"59 -3 OFFCURVE",
"96 -3 OFFCURVE",
"101 -3 CURVE SMOOTH",
"244 -3 OFFCURVE",
"386 7 OFFCURVE",
"529 7 CURVE SMOOTH",
"566 7 OFFCURVE",
"604 8 OFFCURVE",
"640 0 CURVE SMOOTH",
"647 -1 OFFCURVE",
"653 -3 OFFCURVE",
"660 -3 CURVE SMOOTH",
"665 -3 OFFCURVE",
"683 -1 OFFCURVE",
"683 8 CURVE SMOOTH",
"683 23 OFFCURVE",
"634 29 OFFCURVE",
"625 30 CURVE SMOOTH",
"558 39 OFFCURVE",
"487 39 OFFCURVE",
"418 39 CURVE SMOOTH",
"307 39 OFFCURVE",
"195 35 OFFCURVE",
"84 27 CURVE",
"97 129 OFFCURVE",
"317 318 OFFCURVE",
"393 385 CURVE SMOOTH",
"447 433 OFFCURVE",
"501 480 OFFCURVE",
"554 528 CURVE SMOOTH",
"590 561 OFFCURVE",
"676 639 OFFCURVE",
"695 684 CURVE"
);
},
{
closed = 1;
nodes = (
"357 924 LINE",
"361 914 LINE",
"402 881 OFFCURVE",
"443 847 OFFCURVE",
"477 806 CURVE",
"483 804 LINE",
"502 808 OFFCURVE",
"628 904 OFFCURVE",
"628 917 CURVE SMOOTH",
"628 920 OFFCURVE",
"626 927 OFFCURVE",
"622 927 CURVE SMOOTH",
"611 927 OFFCURVE",
"515 855 OFFCURVE",
"500 843 CURVE",
"480 867 OFFCURVE",
"392 929 OFFCURVE",
"362 931 CURVE"
);
}
);
width = 836;
}
);
note = Zcaron;
unicode = 017D;
},
{
color = 0;
glyphname = A.001;
lastChange = "2021-09-02 04:42:31 +0000";
layers = (
{
anchors = (
{
name = bottom;
position = "{284, -58}";
},
{
name = ogonek;
position = "{703, -152}";
},
{
name = top;
position = "{679, 728}";
}
);
hints = (
{
horizontal = 1;
place = "{-324, 20}";
type = Stem;
},
{
horizontal = 1;
place = "{-158, 16}";
type = Stem;
},
{
horizontal = 1;
place = "{17, 12}";
type = Stem;
},
{
horizontal = 1;
place = "{251, 24}";
type = Stem;
},
{
horizontal = 1;
place = "{674, -20}";
target = down;
type = TopGhost;
},
{
place = "{-62, 32}";
type = Stem;
},
{
place = "{-7, 25}";
type = Stem;
},
{
place = "{516, 39}";
type = Stem;
}
);
layerId = "22FBF237-8195-4580-A019-F135C28A8A87";
paths = (
{
closed = 1;
nodes = (
"679 -96 OFFCURVE",
"679 -94 OFFCURVE",
"677 -94 CURVE SMOOTH",
"664 -94 OFFCURVE",
"657 -142 OFFCURVE",
"624 -142 CURVE SMOOTH",
"564 -142 OFFCURVE",
"555 51 OFFCURVE",
"555 96 CURVE SMOOTH",
"555 143 OFFCURVE",
"558 190 OFFCURVE",
"564 237 CURVE",
"591 255 OFFCURVE",
"629 256 OFFCURVE",
"660 260 CURVE SMOOTH",
"663 260 OFFCURVE",
"675 262 OFFCURVE",
"675 267 CURVE SMOOTH",
"675 272 OFFCURVE",
"665 273 OFFCURVE",
"662 274 CURVE SMOOTH",
"640 278 OFFCURVE",
"593 276 OFFCURVE",
"569 276 CURVE",
"588 409 OFFCURVE",
"620 539 OFFCURVE",
"669 664 CURVE",
"670 672 OFFCURVE",
"662 674 OFFCURVE",
"656 674 CURVE SMOOTH",
"635 674 OFFCURVE",
"601 655 OFFCURVE",
"589 637 CURVE",
"589 634 LINE",
"462 525 OFFCURVE",
"338 409 OFFCURVE",
"231 280 CURVE",
"140 283 OFFCURVE",
"-7 295 OFFCURVE",
"-7 173 CURVE SMOOTH",
"-7 167 LINE SMOOTH",
"-7 126 OFFCURVE",
"33 91 OFFCURVE",
"64 69 CURVE",
"4 -15 OFFCURVE",
"-62 -128 OFFCURVE",
"-62 -235 CURVE SMOOTH",
"-62 -261 OFFCURVE",
"-60 -288 OFFCURVE",
"-43 -309 CURVE SMOOTH",
"-37 -316 OFFCURVE",
"-30 -324 OFFCURVE",
"-20 -324 CURVE SMOOTH",
"-11 -324 OFFCURVE",
"-3 -324 OFFCURVE",
"6 -323 CURVE",
"-30 -300 OFFCURVE",
"-30 -282 OFFCURVE",
"-30 -243 CURVE SMOOTH",
"-30 -136 OFFCURVE",
"26 -30 OFFCURVE",
"86 55 CURVE",
"131 28 OFFCURVE",
"183 17 OFFCURVE",
"235 17 CURVE SMOOTH",
"240 17 OFFCURVE",
"250 17 OFFCURVE",
"250 24 CURVE SMOOTH",
"250 28 OFFCURVE",
"247 29 OFFCURVE",
"243 29 CURVE SMOOTH",
"224 29 LINE SMOOTH",
"178 29 OFFCURVE",
"135 47 OFFCURVE",
"96 70 CURVE",
"169 165 LINE SMOOTH",
"181 180 OFFCURVE",
"193 198 OFFCURVE",
"206 212 CURVE SMOOTH",
"249 257 OFFCURVE",
"383 249 OFFCURVE",
"441 250 CURVE SMOOTH",
"526 251 LINE",
"522 204 OFFCURVE",
"516 155 OFFCURVE",
"516 108 CURVE SMOOTH",
"516 41 OFFCURVE",
"523 -158 OFFCURVE",
"619 -158 CURVE SMOOTH",
"628 -158 OFFCURVE",
"670 -150 OFFCURVE",
"672 -140 CURVE",
"670 -136 OFFCURVE",
"667 -135 OFFCURVE",
"667 -129 CURVE SMOOTH",
"667 -118 OFFCURVE",
"679 -105 OFFCURVE",
"679 -97 CURVE SMOOTH"
);
},
{
closed = 1;
nodes = (
"577 577 OFFCURVE",
"569 556 OFFCURVE",
"569 542 CURVE SMOOTH",
"569 537 OFFCURVE",
"572 531 OFFCURVE",
"575 526 CURVE",
"545 449 OFFCURVE",
"536 357 OFFCURVE",
"528 275 CURVE",
"498 275 OFFCURVE",
"467 274 OFFCURVE",
"437 274 CURVE SMOOTH",
"404 274 LINE SMOOTH",
"356 274 OFFCURVE",
"306 274 OFFCURVE",
"258 278 CURVE",
"341 388 OFFCURVE",
"475 502 OFFCURVE",
"580 590 CURVE"
);
},
{
closed = 1;
nodes = (
"161 193 OFFCURVE",
"117 139 OFFCURVE",
"75 84 CURVE",
"49 103 OFFCURVE",
"18 132 OFFCURVE",
"18 168 CURVE SMOOTH",
"18 228 OFFCURVE",
"138 249 OFFCURVE",
"184 249 CURVE SMOOTH",
"191 249 OFFCURVE",
"197 249 OFFCURVE",
"204 248 CURVE"
);
}
);
width = 699;
}
);
note = A;
},
{
color = 0;
glyphname = A.ss01;
lastChange = "2021-09-02 04:57:51 +0000";
layers = (
{
anchors = (
{
name = bottom;
position = "{284, -58}";
},
{
name = ogonek;
position = "{703, -152}";
},
{
name = top;
position = "{679, 728}";
}
);
hints = (
{
horizontal = 1;
place = "{-324, 20}";
type = Stem;
},
{
horizontal = 1;
place = "{-158, 16}";
type = Stem;
},
{
horizontal = 1;
place = "{17, 12}";
type = Stem;
},
{
horizontal = 1;
place = "{251, 24}";
type = Stem;
},
{
horizontal = 1;
place = "{674, -20}";
target = down;
type = TopGhost;
},
{
place = "{-62, 32}";
type = Stem;
},
{
place = "{-7, 25}";
type = Stem;
},
{
place = "{516, 39}";
type = Stem;
}
);
layerId = "22FBF237-8195-4580-A019-F135C28A8A87";
paths = (
{
closed = 1;
nodes = (
"679 -96 OFFCURVE",
"679 -94 OFFCURVE",
"677 -94 CURVE SMOOTH",
"664 -94 OFFCURVE",
"657 -142 OFFCURVE",
"624 -142 CURVE SMOOTH",
"564 -142 OFFCURVE",
"555 51 OFFCURVE",
"555 96 CURVE SMOOTH",
"555 143 OFFCURVE",
"558 190 OFFCURVE",
"564 237 CURVE",
"591 255 OFFCURVE",
"629 256 OFFCURVE",
"660 260 CURVE SMOOTH",
"663 260 OFFCURVE",
"675 262 OFFCURVE",
"675 267 CURVE SMOOTH",
"675 272 OFFCURVE",
"665 273 OFFCURVE",
"662 274 CURVE SMOOTH",
"640 278 OFFCURVE",
"593 276 OFFCURVE",
"569 276 CURVE",
"588 409 OFFCURVE",
"620 539 OFFCURVE",
"669 664 CURVE",
"670 672 OFFCURVE",
"662 674 OFFCURVE",
"656 674 CURVE SMOOTH",
"635 674 OFFCURVE",
"601 655 OFFCURVE",
"589 637 CURVE",
"589 634 LINE",
"462 525 OFFCURVE",
"338 409 OFFCURVE",
"231 280 CURVE",
"140 283 OFFCURVE",
"-7 295 OFFCURVE",
"-7 173 CURVE SMOOTH",
"-7 167 LINE SMOOTH",
"-7 126 OFFCURVE",
"33 91 OFFCURVE",
"64 69 CURVE",
"4 -15 OFFCURVE",
"-62 -128 OFFCURVE",
"-62 -235 CURVE SMOOTH",
"-62 -261 OFFCURVE",
"-60 -288 OFFCURVE",
"-43 -309 CURVE SMOOTH",
"-37 -316 OFFCURVE",
"-30 -324 OFFCURVE",
"-20 -324 CURVE SMOOTH",
"-11 -324 OFFCURVE",
"-3 -324 OFFCURVE",
"6 -323 CURVE",
"-30 -300 OFFCURVE",
"-30 -282 OFFCURVE",
"-30 -243 CURVE SMOOTH",
"-30 -136 OFFCURVE",
"26 -30 OFFCURVE",
"86 55 CURVE",
"131 28 OFFCURVE",
"183 17 OFFCURVE",
"235 17 CURVE SMOOTH",
"240 17 OFFCURVE",
"250 17 OFFCURVE",
"250 24 CURVE SMOOTH",
"250 28 OFFCURVE",
"247 29 OFFCURVE",
"243 29 CURVE SMOOTH",
"224 29 LINE SMOOTH",
"178 29 OFFCURVE",
"135 47 OFFCURVE",
"96 70 CURVE",
"169 165 LINE SMOOTH",
"181 180 OFFCURVE",
"193 198 OFFCURVE",
"206 212 CURVE SMOOTH",
"249 257 OFFCURVE",
"383 249 OFFCURVE",
"441 250 CURVE SMOOTH",
"526 251 LINE",
"522 204 OFFCURVE",
"516 155 OFFCURVE",
"516 108 CURVE SMOOTH",
"516 41 OFFCURVE",
"523 -158 OFFCURVE",
"619 -158 CURVE SMOOTH",
"628 -158 OFFCURVE",
"670 -150 OFFCURVE",
"672 -140 CURVE",
"670 -136 OFFCURVE",
"667 -135 OFFCURVE",
"667 -129 CURVE SMOOTH",
"667 -118 OFFCURVE",
"679 -105 OFFCURVE",
"679 -97 CURVE SMOOTH"
);
},
{
closed = 1;
nodes = (
"577 577 OFFCURVE",
"569 556 OFFCURVE",
"569 542 CURVE SMOOTH",
"569 537 OFFCURVE",
"572 531 OFFCURVE",
"575 526 CURVE",
"545 449 OFFCURVE",
"536 357 OFFCURVE",
"528 275 CURVE",
"498 275 OFFCURVE",
"467 274 OFFCURVE",
"437 274 CURVE SMOOTH",
"404 274 LINE SMOOTH",
"356 274 OFFCURVE",
"306 274 OFFCURVE",
"258 278 CURVE",
"341 388 OFFCURVE",
"475 502 OFFCURVE",
"580 590 CURVE"
);
},
{
closed = 1;
nodes = (
"161 193 OFFCURVE",
"117 139 OFFCURVE",
"75 84 CURVE",
"49 103 OFFCURVE",
"18 132 OFFCURVE",
"18 168 CURVE SMOOTH",
"18 228 OFFCURVE",
"138 249 OFFCURVE",
"184 249 CURVE SMOOTH",
"191 249 OFFCURVE",
"197 249 OFFCURVE",
"204 248 CURVE"
);
}
);
width = 699;
}
);
note = A;
},
{
color = 11;
glyphname = Aacute.ss01;
lastChange = "2021-09-02 04:57:51 +0000";
layers = (
{
hints = (
{
horizontal = 1;
place = "{-158, 16}";
type = Stem;
},
{
horizontal = 1;
place = "{17, 12}";
type = Stem;
},
{
horizontal = 1;
place = "{260, 16}";
type = Stem;
},
{
place = "{-62, 32}";
type = Stem;
},
{
place = "{-7, 25}";
type = Stem;
},
{
place = "{516, 39}";
type = Stem;
},
{
horizontal = 1;
place = "{250, 23}";
type = Stem;
}
);
layerId = "22FBF237-8195-4580-A019-F135C28A8A87";
paths = (
{
closed = 1;
nodes = (
"679 -96 OFFCURVE",
"679 -94 OFFCURVE",
"677 -94 CURVE SMOOTH",
"664 -94 OFFCURVE",
"657 -142 OFFCURVE",
"624 -142 CURVE SMOOTH",
"564 -142 OFFCURVE",
"555 51 OFFCURVE",
"555 96 CURVE SMOOTH",
"555 143 OFFCURVE",
"558 190 OFFCURVE",
"564 237 CURVE",
"591 255 OFFCURVE",
"629 256 OFFCURVE",
"660 260 CURVE SMOOTH",
"663 260 OFFCURVE",
"675 262 OFFCURVE",
"675 267 CURVE SMOOTH",
"675 272 OFFCURVE",
"665 273 OFFCURVE",
"662 274 CURVE SMOOTH",
"640 278 OFFCURVE",
"593 276 OFFCURVE",
"569 276 CURVE",
"588 409 OFFCURVE",
"620 539 OFFCURVE",
"669 664 CURVE",
"670 672 OFFCURVE",
"662 674 OFFCURVE",
"656 674 CURVE SMOOTH",
"635 674 OFFCURVE",
"601 655 OFFCURVE",
"589 637 CURVE",
"589 634 LINE",
"462 525 OFFCURVE",
"338 409 OFFCURVE",
"231 280 CURVE",
"140 283 OFFCURVE",
"5 294 OFFCURVE",
"-7 173 CURVE SMOOTH",
"-7 167 LINE SMOOTH",
"-7 126 OFFCURVE",
"33 91 OFFCURVE",
"64 69 CURVE",
"4 -15 OFFCURVE",
"-62 -128 OFFCURVE",
"-62 -235 CURVE SMOOTH",
"-62 -261 OFFCURVE",
"-60 -288 OFFCURVE",
"-43 -309 CURVE SMOOTH",
"-37 -316 OFFCURVE",
"-30 -324 OFFCURVE",
"-20 -324 CURVE SMOOTH",
"-11 -324 OFFCURVE",
"-3 -324 OFFCURVE",
"6 -323 CURVE",
"-30 -300 OFFCURVE",
"-30 -282 OFFCURVE",
"-30 -243 CURVE SMOOTH",
"-30 -136 OFFCURVE",
"26 -30 OFFCURVE",
"86 55 CURVE",
"131 28 OFFCURVE",
"183 17 OFFCURVE",
"235 17 CURVE SMOOTH",
"240 17 OFFCURVE",
"250 17 OFFCURVE",
"250 24 CURVE SMOOTH",
"250 28 OFFCURVE",
"247 29 OFFCURVE",
"243 29 CURVE SMOOTH",
"224 29 LINE SMOOTH",
"178 29 OFFCURVE",
"135 47 OFFCURVE",
"96 70 CURVE",
"169 165 LINE SMOOTH",
"181 180 OFFCURVE",
"193 198 OFFCURVE",
"206 212 CURVE SMOOTH",
"249 257 OFFCURVE",
"383 249 OFFCURVE",
"441 250 CURVE SMOOTH",
"526 251 LINE",
"522 204 OFFCURVE",
"516 155 OFFCURVE",
"516 108 CURVE SMOOTH",
"516 41 OFFCURVE",
"523 -158 OFFCURVE",
"619 -158 CURVE SMOOTH",
"628 -158 OFFCURVE",
"670 -150 OFFCURVE",
"672 -140 CURVE",
"670 -136 OFFCURVE",
"667 -135 OFFCURVE",
"667 -129 CURVE SMOOTH",
"667 -118 OFFCURVE",
"679 -105 OFFCURVE",
"679 -97 CURVE SMOOTH"
);
},
{
closed = 1;
nodes = (
"577 577 OFFCURVE",
"569 556 OFFCURVE",
"569 542 CURVE SMOOTH",
"569 537 OFFCURVE",
"572 531 OFFCURVE",
"575 526 CURVE",
"545 449 OFFCURVE",
"536 357 OFFCURVE",
"528 275 CURVE",
"498 275 OFFCURVE",
"467 274 OFFCURVE",
"437 274 CURVE SMOOTH",
"404 274 LINE SMOOTH",
"356 274 OFFCURVE",
"306 274 OFFCURVE",
"258 278 CURVE",
"341 388 OFFCURVE",
"475 502 OFFCURVE",
"580 590 CURVE"
);
},
{
closed = 1;
nodes = (
"161 193 OFFCURVE",
"117 139 OFFCURVE",
"75 84 CURVE",
"49 103 OFFCURVE",
"18 132 OFFCURVE",
"18 168 CURVE SMOOTH",
"18 228 OFFCURVE",
"138 249 OFFCURVE",
"184 249 CURVE SMOOTH",
"191 249 OFFCURVE",
"197 249 OFFCURVE",
"204 248 CURVE"
);
},
{
closed = 1;
nodes = (
"783 856 OFFCURVE",
"772 860 OFFCURVE",
"762 860 CURVE SMOOTH",
"744 860 OFFCURVE",
"728 850 OFFCURVE",
"714 839 CURVE SMOOTH",
"696 825 OFFCURVE",
"585 751 OFFCURVE",
"585 737 CURVE SMOOTH",
"585 733 OFFCURVE",
"586 730 OFFCURVE",
"591 730 CURVE SMOOTH",
"595 730 OFFCURVE",
"730 801 OFFCURVE",
"747 809 CURVE SMOOTH",
"758 815 OFFCURVE",
"783 829 OFFCURVE",
"783 844 CURVE SMOOTH"
);
}
);
width = 657;
}
);
note = Aacute;
},
{
color = 11;
glyphname = Acircumflex.ss01;
lastChange = "2021-09-02 04:57:51 +0000";
layers = (
{
hints = (
{
horizontal = 1;
place = "{-158, 16}";
type = Stem;
},
{
horizontal = 1;
place = "{17, 12}";
type = Stem;
},
{
horizontal = 1;
place = "{260, 16}";
type = Stem;
},
{
place = "{-62, 32}";
type = Stem;
},
{
place = "{-7, 25}";
type = Stem;
},
{
place = "{516, 39}";
type = Stem;
},
{
horizontal = 1;
place = "{250, 23}";
type = Stem;
}
);
layerId = "22FBF237-8195-4580-A019-F135C28A8A87";
paths = (
{
closed = 1;
nodes = (
"679 -96 OFFCURVE",
"679 -94 OFFCURVE",
"677 -94 CURVE SMOOTH",
"664 -94 OFFCURVE",
"657 -142 OFFCURVE",
"624 -142 CURVE SMOOTH",
"564 -142 OFFCURVE",
"555 51 OFFCURVE",
"555 96 CURVE SMOOTH",
"555 143 OFFCURVE",
"558 190 OFFCURVE",
"564 237 CURVE",
"591 255 OFFCURVE",
"629 256 OFFCURVE",
"660 260 CURVE SMOOTH",
"663 260 OFFCURVE",
"675 262 OFFCURVE",
"675 267 CURVE SMOOTH",
"675 272 OFFCURVE",
"665 273 OFFCURVE",
"662 274 CURVE SMOOTH",
"640 278 OFFCURVE",
"593 276 OFFCURVE",
"569 276 CURVE",
"588 409 OFFCURVE",
"620 539 OFFCURVE",
"669 664 CURVE",
"670 672 OFFCURVE",
"662 674 OFFCURVE",
"656 674 CURVE SMOOTH",
"635 674 OFFCURVE",
"601 655 OFFCURVE",
"589 637 CURVE",
"589 634 LINE",
"462 525 OFFCURVE",
"338 409 OFFCURVE",
"231 280 CURVE",
"140 283 OFFCURVE",
"5 294 OFFCURVE",
"-7 173 CURVE SMOOTH",
"-7 167 LINE SMOOTH",
"-7 126 OFFCURVE",
"33 91 OFFCURVE",
"64 69 CURVE",
"4 -15 OFFCURVE",
"-62 -128 OFFCURVE",
"-62 -235 CURVE SMOOTH",
"-62 -261 OFFCURVE",
"-60 -288 OFFCURVE",
"-43 -309 CURVE SMOOTH",
"-37 -316 OFFCURVE",
"-30 -324 OFFCURVE",
"-20 -324 CURVE SMOOTH",
"-11 -324 OFFCURVE",
"-3 -324 OFFCURVE",
"6 -323 CURVE",
"-30 -300 OFFCURVE",
"-30 -282 OFFCURVE",
"-30 -243 CURVE SMOOTH",
"-30 -136 OFFCURVE",
"26 -30 OFFCURVE",
"86 55 CURVE",
"131 28 OFFCURVE",
"183 17 OFFCURVE",
"235 17 CURVE SMOOTH",
"240 17 OFFCURVE",
"250 17 OFFCURVE",
"250 24 CURVE SMOOTH",
"250 28 OFFCURVE",
"247 29 OFFCURVE",
"243 29 CURVE SMOOTH",
"224 29 LINE SMOOTH",
"178 29 OFFCURVE",
"135 47 OFFCURVE",
"96 70 CURVE",
"169 165 LINE SMOOTH",
"181 180 OFFCURVE",
"193 198 OFFCURVE",
"206 212 CURVE SMOOTH",
"249 257 OFFCURVE",
"383 249 OFFCURVE",
"441 250 CURVE SMOOTH",
"526 251 LINE",
"522 204 OFFCURVE",
"516 155 OFFCURVE",
"516 108 CURVE SMOOTH",
"516 41 OFFCURVE",
"523 -158 OFFCURVE",
"619 -158 CURVE SMOOTH",
"628 -158 OFFCURVE",
"670 -150 OFFCURVE",
"672 -140 CURVE",
"670 -136 OFFCURVE",
"667 -135 OFFCURVE",
"667 -129 CURVE SMOOTH",
"667 -118 OFFCURVE",
"679 -105 OFFCURVE",
"679 -97 CURVE SMOOTH"
);
},
{
closed = 1;
nodes = (
"577 577 OFFCURVE",
"569 556 OFFCURVE",
"569 542 CURVE SMOOTH",
"569 537 OFFCURVE",
"572 531 OFFCURVE",
"575 526 CURVE",
"545 449 OFFCURVE",
"536 357 OFFCURVE",
"528 275 CURVE",
"498 275 OFFCURVE",
"467 274 OFFCURVE",
"437 274 CURVE SMOOTH",
"404 274 LINE SMOOTH",
"356 274 OFFCURVE",
"306 274 OFFCURVE",
"258 278 CURVE",
"341 388 OFFCURVE",
"475 502 OFFCURVE",
"580 590 CURVE"
);
},
{
closed = 1;
nodes = (
"161 193 OFFCURVE",
"117 139 OFFCURVE",
"75 84 CURVE",
"49 103 OFFCURVE",
"18 132 OFFCURVE",
"18 168 CURVE SMOOTH",
"18 228 OFFCURVE",
"138 249 OFFCURVE",
"184 249 CURVE SMOOTH",
"191 249 OFFCURVE",
"197 249 OFFCURVE",
"204 248 CURVE"
);
},
{
closed = 1;
nodes = (
"742 721 LINE",
"738 731 LINE",
"697 764 OFFCURVE",
"655 798 OFFCURVE",
"622 839 CURVE",
"616 841 LINE",
"597 837 OFFCURVE",
"471 741 OFFCURVE",
"471 728 CURVE SMOOTH",
"471 725 OFFCURVE",
"473 718 OFFCURVE",
"477 718 CURVE SMOOTH",
"488 718 OFFCURVE",
"584 790 OFFCURVE",
"599 802 CURVE",
"619 778 OFFCURVE",
"707 716 OFFCURVE",
"737 714 CURVE"
);
}
);
width = 657;
}
);
note = Acircumflex;
},
{
color = 11;
glyphname = Adieresis.ss01;
lastChange = "2021-09-02 04:57:51 +0000";
layers = (
{
hints = (
{
horizontal = 1;
place = "{-158, 16}";
type = Stem;
},
{
horizontal = 1;
place = "{17, 12}";
type = Stem;
},
{
horizontal = 1;
place = "{260, 16}";
type = Stem;
},
{
place = "{-62, 32}";
type = Stem;
},
{
place = "{-7, 25}";
type = Stem;
},
{
place = "{516, 39}";
type = Stem;
},
{
horizontal = 1;
place = "{250, 23}";
type = Stem;
}
);
layerId = "22FBF237-8195-4580-A019-F135C28A8A87";
paths = (
{
closed = 1;
nodes = (
"679 -96 OFFCURVE",
"679 -94 OFFCURVE",
"677 -94 CURVE SMOOTH",
"664 -94 OFFCURVE",
"657 -142 OFFCURVE",
"624 -142 CURVE SMOOTH",
"564 -142 OFFCURVE",
"555 51 OFFCURVE",
"555 96 CURVE SMOOTH",
"555 143 OFFCURVE",
"558 190 OFFCURVE",
"564 237 CURVE",
"591 255 OFFCURVE",
"629 256 OFFCURVE",
"660 260 CURVE SMOOTH",
"663 260 OFFCURVE",
"675 262 OFFCURVE",
"675 267 CURVE SMOOTH",
"675 272 OFFCURVE",
"665 273 OFFCURVE",
"662 274 CURVE SMOOTH",
"640 278 OFFCURVE",
"593 276 OFFCURVE",
"569 276 CURVE",
"588 409 OFFCURVE",
"620 539 OFFCURVE",
"669 664 CURVE",
"670 672 OFFCURVE",
"662 674 OFFCURVE",
"656 674 CURVE SMOOTH",
"635 674 OFFCURVE",
"601 655 OFFCURVE",
"589 637 CURVE",
"589 634 LINE",
"462 525 OFFCURVE",
"338 409 OFFCURVE",
"231 280 CURVE",
"140 283 OFFCURVE",
"-7 295 OFFCURVE",
"-7 173 CURVE SMOOTH",
"-7 167 LINE SMOOTH",
"-7 126 OFFCURVE",
"33 91 OFFCURVE",
"64 69 CURVE",
"4 -15 OFFCURVE",
"-62 -128 OFFCURVE",
"-62 -235 CURVE SMOOTH",
"-62 -261 OFFCURVE",
"-60 -288 OFFCURVE",
"-43 -309 CURVE SMOOTH",
"-37 -316 OFFCURVE",
"-30 -324 OFFCURVE",
"-20 -324 CURVE SMOOTH",
"-11 -324 OFFCURVE",
"-3 -324 OFFCURVE",
"6 -323 CURVE",
"-30 -300 OFFCURVE",
"-30 -282 OFFCURVE",
"-30 -243 CURVE SMOOTH",
"-30 -136 OFFCURVE",
"26 -30 OFFCURVE",
"86 55 CURVE",
"131 28 OFFCURVE",
"183 17 OFFCURVE",
"235 17 CURVE SMOOTH",
"240 17 OFFCURVE",
"250 17 OFFCURVE",
"250 24 CURVE SMOOTH",
"250 28 OFFCURVE",
"247 29 OFFCURVE",
"243 29 CURVE SMOOTH",
"224 29 LINE SMOOTH",
"178 29 OFFCURVE",
"135 47 OFFCURVE",
"96 70 CURVE",
"169 165 LINE SMOOTH",
"181 180 OFFCURVE",
"193 198 OFFCURVE",
"206 212 CURVE SMOOTH",
"249 257 OFFCURVE",
"383 249 OFFCURVE",
"441 250 CURVE SMOOTH",
"526 251 LINE",
"522 204 OFFCURVE",
"516 155 OFFCURVE",
"516 108 CURVE SMOOTH",
"516 41 OFFCURVE",
"523 -158 OFFCURVE",
"619 -158 CURVE SMOOTH",
"628 -158 OFFCURVE",
"670 -150 OFFCURVE",
"672 -140 CURVE",
"670 -136 OFFCURVE",
"667 -135 OFFCURVE",
"667 -129 CURVE SMOOTH",
"667 -118 OFFCURVE",
"679 -105 OFFCURVE",
"679 -97 CURVE SMOOTH"
);
},
{
closed = 1;
nodes = (
"577 577 OFFCURVE",
"569 556 OFFCURVE",
"569 542 CURVE SMOOTH",
"569 537 OFFCURVE",
"572 531 OFFCURVE",
"575 526 CURVE",
"545 449 OFFCURVE",
"536 357 OFFCURVE",
"528 275 CURVE",
"498 275 OFFCURVE",
"467 274 OFFCURVE",
"437 274 CURVE SMOOTH",
"404 274 LINE SMOOTH",
"356 274 OFFCURVE",
"306 274 OFFCURVE",
"258 278 CURVE",
"341 388 OFFCURVE",
"475 502 OFFCURVE",
"580 590 CURVE"
);
},
{
closed = 1;
nodes = (
"161 193 OFFCURVE",
"117 139 OFFCURVE",
"75 84 CURVE",
"49 103 OFFCURVE",
"18 132 OFFCURVE",
"18 168 CURVE SMOOTH",
"18 228 OFFCURVE",
"138 249 OFFCURVE",
"184 249 CURVE SMOOTH",
"191 249 OFFCURVE",
"197 249 OFFCURVE",
"204 248 CURVE"
);
},
{
closed = 1;
nodes = (
"791 837 LINE",
"790 838 OFFCURVE",
"789 838 OFFCURVE",
"788 838 CURVE SMOOTH",
"769 838 OFFCURVE",
"707 801 OFFCURVE",
"707 781 CURVE SMOOTH",
"707 772 OFFCURVE",
"714 752 OFFCURVE",
"725 752 CURVE SMOOTH",
"751 752 OFFCURVE",
"761 802 OFFCURVE",
"775 819 CURVE SMOOTH",
"777 822 OFFCURVE",
"791 834 OFFCURVE",
"791 836 CURVE SMOOTH"
);
},
{
closed = 1;
nodes = (
"670 837 LINE",
"669 838 OFFCURVE",
"668 838 OFFCURVE",
"667 838 CURVE SMOOTH",
"648 838 OFFCURVE",
"586 801 OFFCURVE",
"586 781 CURVE SMOOTH",
"586 772 OFFCURVE",
"593 752 OFFCURVE",
"604 752 CURVE SMOOTH",
"630 752 OFFCURVE",
"640 802 OFFCURVE",
"654 819 CURVE SMOOTH",
"656 822 OFFCURVE",
"670 834 OFFCURVE",
"670 836 CURVE SMOOTH"
);
}
);
width = 657;
}
);
note = Adieresis;
},
{
color = 11;
glyphname = Agrave.ss01;
lastChange = "2021-09-02 04:57:51 +0000";
layers = (
{
hints = (
{
horizontal = 1;
place = "{-158, 16}";
type = Stem;
},
{
horizontal = 1;
place = "{17, 12}";
type = Stem;
},
{
horizontal = 1;
place = "{260, 16}";
type = Stem;
},
{
place = "{-62, 32}";
type = Stem;
},
{
place = "{-7, 25}";
type = Stem;
},
{
place = "{516, 39}";
type = Stem;
},
{
horizontal = 1;
place = "{250, 23}";
type = Stem;
}
);
layerId = "22FBF237-8195-4580-A019-F135C28A8A87";
paths = (
{
closed = 1;
nodes = (
"679 -96 OFFCURVE",
"679 -94 OFFCURVE",
"677 -94 CURVE SMOOTH",
"664 -94 OFFCURVE",
"657 -142 OFFCURVE",
"624 -142 CURVE SMOOTH",
"564 -142 OFFCURVE",
"555 51 OFFCURVE",
"555 96 CURVE SMOOTH",
"555 143 OFFCURVE",
"558 190 OFFCURVE",
"564 237 CURVE",
"591 255 OFFCURVE",
"629 256 OFFCURVE",
"660 260 CURVE SMOOTH",
"663 260 OFFCURVE",
"675 262 OFFCURVE",
"675 267 CURVE SMOOTH",
"675 272 OFFCURVE",
"665 273 OFFCURVE",
"662 274 CURVE SMOOTH",
"640 278 OFFCURVE",
"593 276 OFFCURVE",
"569 276 CURVE",
"588 409 OFFCURVE",
"620 539 OFFCURVE",
"669 664 CURVE",
"670 672 OFFCURVE",
"662 674 OFFCURVE",
"656 674 CURVE SMOOTH",
"635 674 OFFCURVE",
"601 655 OFFCURVE",
"589 637 CURVE",
"589 634 LINE",
"462 525 OFFCURVE",
"338 409 OFFCURVE",
"231 280 CURVE",
"140 283 OFFCURVE",
"5 294 OFFCURVE",
"-7 173 CURVE SMOOTH",
"-7 167 LINE SMOOTH",
"-7 126 OFFCURVE",
"33 91 OFFCURVE",
"64 69 CURVE",
"4 -15 OFFCURVE",
"-62 -128 OFFCURVE",
"-62 -235 CURVE SMOOTH",
"-62 -261 OFFCURVE",
"-60 -288 OFFCURVE",
"-43 -309 CURVE SMOOTH",
"-37 -316 OFFCURVE",
"-30 -324 OFFCURVE",
"-20 -324 CURVE SMOOTH",
"-11 -324 OFFCURVE",
"-3 -324 OFFCURVE",
"6 -323 CURVE",
"-30 -300 OFFCURVE",
"-30 -282 OFFCURVE",
"-30 -243 CURVE SMOOTH",
"-30 -136 OFFCURVE",
"26 -30 OFFCURVE",
"86 55 CURVE",
"131 28 OFFCURVE",
"183 17 OFFCURVE",
"235 17 CURVE SMOOTH",
"240 17 OFFCURVE",
"250 17 OFFCURVE",
"250 24 CURVE SMOOTH",
"250 28 OFFCURVE",
"247 29 OFFCURVE",
"243 29 CURVE SMOOTH",
"224 29 LINE SMOOTH",
"178 29 OFFCURVE",
"135 47 OFFCURVE",
"96 70 CURVE",
"169 165 LINE SMOOTH",
"181 180 OFFCURVE",
"193 198 OFFCURVE",
"206 212 CURVE SMOOTH",
"249 257 OFFCURVE",
"383 249 OFFCURVE",
"441 250 CURVE SMOOTH",
"526 251 LINE",
"522 204 OFFCURVE",
"516 155 OFFCURVE",
"516 108 CURVE SMOOTH",
"516 41 OFFCURVE",
"523 -158 OFFCURVE",
"619 -158 CURVE SMOOTH",
"628 -158 OFFCURVE",
"670 -150 OFFCURVE",
"672 -140 CURVE",
"670 -136 OFFCURVE",
"667 -135 OFFCURVE",
"667 -129 CURVE SMOOTH",
"667 -118 OFFCURVE",
"679 -105 OFFCURVE",
"679 -97 CURVE SMOOTH"
);
},
{
closed = 1;
nodes = (
"577 577 OFFCURVE",
"569 556 OFFCURVE",
"569 542 CURVE SMOOTH",
"569 537 OFFCURVE",
"572 531 OFFCURVE",
"575 526 CURVE",
"545 449 OFFCURVE",
"536 357 OFFCURVE",
"528 275 CURVE",
"498 275 OFFCURVE",
"467 274 OFFCURVE",
"437 274 CURVE SMOOTH",
"404 274 LINE SMOOTH",
"356 274 OFFCURVE",
"306 274 OFFCURVE",
"258 278 CURVE",
"341 388 OFFCURVE",
"475 502 OFFCURVE",
"580 590 CURVE"
);
},
{
closed = 1;
nodes = (
"161 193 OFFCURVE",
"117 139 OFFCURVE",
"75 84 CURVE",
"49 103 OFFCURVE",
"18 132 OFFCURVE",
"18 168 CURVE SMOOTH",
"18 228 OFFCURVE",
"138 249 OFFCURVE",
"184 249 CURVE SMOOTH",
"191 249 OFFCURVE",
"197 249 OFFCURVE",
"204 248 CURVE"
);
},
{
closed = 1;
nodes = (
"635 776 OFFCURVE",
"542 846 OFFCURVE",
"524 862 CURVE SMOOTH",
"511 873 OFFCURVE",
"498 882 OFFCURVE",
"480 882 CURVE SMOOTH",
"471 882 OFFCURVE",
"455 878 OFFCURVE",
"455 866 CURVE SMOOTH",
"455 849 OFFCURVE",
"473 839 OFFCURVE",
"486 832 CURVE SMOOTH",
"501 823 OFFCURVE",
"624 752 OFFCURVE",
"628 752 CURVE SMOOTH",
"632 752 OFFCURVE",
"635 756 OFFCURVE",
"635 759 CURVE SMOOTH"
);
}
);
width = 657;
}
);
note = Agrave;
},
{
color = 11;
glyphname = Atilde.ss01;
lastChange = "2021-09-02 04:57:51 +0000";
layers = (
{
hints = (
{
horizontal = 1;
place = "{765, 33}";
type = Stem;
},
{
horizontal = 1;
place = "{812, 29}";
type = Stem;
}
);
layerId = "22FBF237-8195-4580-A019-F135C28A8A87";
paths = (
{
closed = 1;
nodes = (
"679 -96 OFFCURVE",
"679 -94 OFFCURVE",
"677 -94 CURVE SMOOTH",
"664 -94 OFFCURVE",
"657 -142 OFFCURVE",
"624 -142 CURVE SMOOTH",
"564 -142 OFFCURVE",
"555 51 OFFCURVE",
"555 96 CURVE SMOOTH",
"555 143 OFFCURVE",
"558 190 OFFCURVE",
"564 237 CURVE",
"591 255 OFFCURVE",
"629 256 OFFCURVE",
"660 260 CURVE SMOOTH",
"663 260 OFFCURVE",
"675 262 OFFCURVE",
"675 267 CURVE SMOOTH",
"675 272 OFFCURVE",
"665 273 OFFCURVE",
"662 274 CURVE SMOOTH",
"640 278 OFFCURVE",
"593 276 OFFCURVE",
"569 276 CURVE",
"588 409 OFFCURVE",
"620 539 OFFCURVE",
"669 664 CURVE",
"670 672 OFFCURVE",
"662 674 OFFCURVE",
"656 674 CURVE SMOOTH",
"635 674 OFFCURVE",
"601 655 OFFCURVE",
"589 637 CURVE",
"589 634 LINE",
"462 525 OFFCURVE",
"338 409 OFFCURVE",
"231 280 CURVE",
"140 283 OFFCURVE",
"5 294 OFFCURVE",
"-7 173 CURVE SMOOTH",
"-7 167 LINE SMOOTH",
"-7 126 OFFCURVE",
"33 91 OFFCURVE",
"64 69 CURVE",
"4 -15 OFFCURVE",
"-62 -128 OFFCURVE",
"-62 -235 CURVE SMOOTH",
"-62 -261 OFFCURVE",
"-60 -288 OFFCURVE",
"-43 -309 CURVE SMOOTH",
"-37 -316 OFFCURVE",
"-30 -324 OFFCURVE",
"-20 -324 CURVE SMOOTH",
"-11 -324 OFFCURVE",
"-3 -324 OFFCURVE",
"6 -323 CURVE",
"-30 -300 OFFCURVE",
"-30 -282 OFFCURVE",
"-30 -243 CURVE SMOOTH",
"-30 -136 OFFCURVE",
"26 -30 OFFCURVE",
"86 55 CURVE",
"131 28 OFFCURVE",
"183 17 OFFCURVE",
"235 17 CURVE SMOOTH",
"240 17 OFFCURVE",
"250 17 OFFCURVE",
"250 24 CURVE SMOOTH",
"250 28 OFFCURVE",
"247 29 OFFCURVE",
"243 29 CURVE SMOOTH",
"224 29 LINE SMOOTH",
"178 29 OFFCURVE",
"135 47 OFFCURVE",
"96 70 CURVE",
"169 165 LINE SMOOTH",
"181 180 OFFCURVE",
"193 198 OFFCURVE",
"206 212 CURVE SMOOTH",
"249 257 OFFCURVE",
"383 249 OFFCURVE",
"441 250 CURVE SMOOTH",
"526 251 LINE",
"522 204 OFFCURVE",
"516 155 OFFCURVE",
"516 108 CURVE SMOOTH",
"516 41 OFFCURVE",
"523 -158 OFFCURVE",
"619 -158 CURVE SMOOTH",
"628 -158 OFFCURVE",
"670 -150 OFFCURVE",
"672 -140 CURVE",
"670 -136 OFFCURVE",
"667 -135 OFFCURVE",
"667 -129 CURVE SMOOTH",
"667 -118 OFFCURVE",
"679 -105 OFFCURVE",
"679 -97 CURVE SMOOTH"
);
},
{
closed = 1;
nodes = (
"577 577 OFFCURVE",
"569 556 OFFCURVE",
"569 542 CURVE SMOOTH",
"569 537 OFFCURVE",
"572 531 OFFCURVE",
"575 526 CURVE",
"545 449 OFFCURVE",
"536 357 OFFCURVE",
"528 275 CURVE",
"498 275 OFFCURVE",
"467 274 OFFCURVE",
"437 274 CURVE SMOOTH",
"404 274 LINE SMOOTH",
"356 274 OFFCURVE",
"306 274 OFFCURVE",
"258 278 CURVE",
"341 388 OFFCURVE",
"475 502 OFFCURVE",
"580 590 CURVE"
);
},
{
closed = 1;
nodes = (
"161 193 OFFCURVE",
"117 139 OFFCURVE",
"75 84 CURVE",
"49 103 OFFCURVE",
"18 132 OFFCURVE",
"18 168 CURVE SMOOTH",
"18 228 OFFCURVE",
"138 249 OFFCURVE",
"184 249 CURVE SMOOTH",
"191 249 OFFCURVE",
"197 249 OFFCURVE",
"204 248 CURVE"
);
},
{
closed = 1;
nodes = (
"742 818 LINE",
"730 817 OFFCURVE",
"717 798 OFFCURVE",
"694 798 CURVE SMOOTH",
"644 798 OFFCURVE",
"618 841 OFFCURVE",
"582 841 CURVE SMOOTH",
"569 841 OFFCURVE",
"522 805 OFFCURVE",
"519 792 CURVE",
"522 787 LINE",
"533 789 OFFCURVE",
"548 812 OFFCURVE",
"572 812 CURVE SMOOTH",
"613 812 OFFCURVE",
"638 765 OFFCURVE",
"682 765 CURVE SMOOTH",
"695 765 OFFCURVE",
"741 804 OFFCURVE",
"744 817 CURVE"
);
}
);
width = 657;
}
);
note = Atilde;
},
{
color = 0;
glyphname = AE.ss01;
lastChange = "2021-09-02 04:57:51 +0000";
layers = (
{
hints = (
{
horizontal = 1;
place = "{375, 20}";
type = Stem;
},
{
place = "{-32, 71}";
type = Stem;
},
{
place = "{88, 72}";
type = Stem;
}
);
layerId = "22FBF237-8195-4580-A019-F135C28A8A87";
paths = (
{
closed = 1;
nodes = (
"1090 152 OFFCURVE",
"1074 180 OFFCURVE",
"1064 180 CURVE SMOOTH",
"1061 180 OFFCURVE",
"1061 178 OFFCURVE",
"1061 176 CURVE SMOOTH",
"1061 164 OFFCURVE",
"1069 145 OFFCURVE",
"1069 125 CURVE SMOOTH",
"1069 33 OFFCURVE",
"989 -32 OFFCURVE",
"900 -32 CURVE SMOOTH",
"785 -32 OFFCURVE",
"675 10 OFFCURVE",
"566 40 CURVE",
"570 110 OFFCURVE",
"581 179 OFFCURVE",
"589 249 CURVE",
"615 259 OFFCURVE",
"671 260 OFFCURVE",
"700 260 CURVE SMOOTH",
"764 260 OFFCURVE",
"828 255 OFFCURVE",
"892 255 CURVE SMOOTH",
"898 255 OFFCURVE",
"938 254 OFFCURVE",
"938 263 CURVE SMOOTH",
"938 268 OFFCURVE",
"926 270 OFFCURVE",
"923 271 CURVE SMOOTH",
"873 280 OFFCURVE",
"822 284 OFFCURVE",
"772 284 CURVE SMOOTH",
"713 284 OFFCURVE",
"654 290 OFFCURVE",
"594 289 CURVE",
"609 396 OFFCURVE",
"634 502 OFFCURVE",
"667 605 CURVE",
"690 615 OFFCURVE",
"721 616 OFFCURVE",
"746 616 CURVE SMOOTH",
"762 616 OFFCURVE",
"800 609 OFFCURVE",
"818 607 CURVE SMOOTH",
"871 600 OFFCURVE",
"924 593 OFFCURVE",
"978 593 CURVE SMOOTH",
"991 593 OFFCURVE",
"1005 594 OFFCURVE",
"1018 599 CURVE",
"1010 579 OFFCURVE",
"990 503 OFFCURVE",
"990 483 CURVE SMOOTH",
"990 479 OFFCURVE",
"991 467 OFFCURVE",
"997 467 CURVE SMOOTH",
"1004 467 OFFCURVE",
"1008 481 OFFCURVE",
"1010 486 CURVE SMOOTH",
"1025 529 OFFCURVE",
"1034 581 OFFCURVE",
"1076 607 CURVE SMOOTH",
"1080 609 OFFCURVE",
"1084 611 OFFCURVE",
"1084 617 CURVE SMOOTH",
"1084 629 OFFCURVE",
"1064 638 OFFCURVE",
"1053 638 CURVE SMOOTH",
"1049 638 LINE",
"1039 621 OFFCURVE",
"1019 613 OFFCURVE",
"1000 613 CURVE SMOOTH",
"957 613 OFFCURVE",
"913 619 OFFCURVE",
"871 625 CURVE SMOOTH",
"809 633 OFFCURVE",
"746 642 OFFCURVE",
"684 653 CURVE",
"683 654 LINE",
"686 661 OFFCURVE",
"699 695 OFFCURVE",
"699 698 CURVE SMOOTH",
"699 706 OFFCURVE",
"693 708 OFFCURVE",
"686 708 CURVE SMOOTH",
"664 708 OFFCURVE",
"628 688 OFFCURVE",
"616 669 CURVE",
"616 666 LINE",
"611 662 LINE",
"555 672 OFFCURVE",
"500 683 OFFCURVE",
"444 695 CURVE SMOOTH",
"384 709 OFFCURVE",
"323 721 OFFCURVE",
"261 721 CURVE SMOOTH",
"175 721 OFFCURVE",
"90 696 OFFCURVE",
"90 594 CURVE SMOOTH",
"90 504 OFFCURVE",
"154 435 OFFCURVE",
"228 394 CURVE",
"232 391 OFFCURVE",
"237 388 OFFCURVE",
"243 388 CURVE SMOOTH",
"246 388 OFFCURVE",
"248 390 OFFCURVE",
"248 393 CURVE SMOOTH",
"248 400 OFFCURVE",
"243 405 OFFCURVE",
"238 408 CURVE",
"190 445 OFFCURVE",
"132 505 OFFCURVE",
"117 566 CURVE SMOOTH",
"115 573 OFFCURVE",
"114 579 OFFCURVE",
"114 587 CURVE SMOOTH",
"114 670 OFFCURVE",
"256 679 OFFCURVE",
"315 679 CURVE SMOOTH",
"357 679 OFFCURVE",
"399 675 OFFCURVE",
"440 668 CURVE SMOOTH",
"489 659 OFFCURVE",
"539 652 OFFCURVE",
"589 642 CURVE",
"465 534 OFFCURVE",
"345 420 OFFCURVE",
"240 294 CURVE",
"220 295 OFFCURVE",
"201 296 OFFCURVE",
"182 296 CURVE SMOOTH",
"98 296 OFFCURVE",
"-10 284 OFFCURVE",
"-10 175 CURVE SMOOTH",
"-10 130 OFFCURVE",
"31 96 OFFCURVE",
"65 73 CURVE",
"-1 -18 OFFCURVE",
"-68 -132 OFFCURVE",
"-68 -247 CURVE SMOOTH",
"-68 -256 OFFCURVE",
"-68 -265 OFFCURVE",
"-67 -274 CURVE SMOOTH",
"-65 -293 OFFCURVE",
"-50 -341 OFFCURVE",
"-24 -341 CURVE SMOOTH",
"-8 -341 LINE SMOOTH",
"1 -341 OFFCURVE",
"4 -340 OFFCURVE",
"4 -339 CURVE SMOOTH",
"4 -338 OFFCURVE",
"0 -336 OFFCURVE",
"-1 -336 CURVE",
"-18 -325 OFFCURVE",
"-29 -316 OFFCURVE",
"-33 -294 CURVE SMOOTH",
"-35 -282 OFFCURVE",
"-35 -268 OFFCURVE",
"-35 -256 CURVE SMOOTH",
"-35 -140 OFFCURVE",
"23 -34 OFFCURVE",
"87 58 CURVE",
"136 29 OFFCURVE",
"188 18 OFFCURVE",
"244 18 CURVE SMOOTH",
"249 18 OFFCURVE",
"260 20 OFFCURVE",
"260 27 CURVE SMOOTH",
"260 31 OFFCURVE",
"255 31 OFFCURVE",
"252 31 CURVE SMOOTH",
"235 31 LINE SMOOTH",
"189 31 OFFCURVE",
"137 51 OFFCURVE",
"98 74 CURVE",
"123 109 OFFCURVE",
"150 143 OFFCURVE",
"177 177 CURVE SMOOTH",
"189 192 OFFCURVE",
"200 209 OFFCURVE",
"214 223 CURVE SMOOTH",
"250 261 OFFCURVE",
"357 263 OFFCURVE",
"407 263 CURVE SMOOTH",
"454 263 OFFCURVE",
"502 263 OFFCURVE",
"549 264 CURVE",
"546 223 OFFCURVE",
"538 182 OFFCURVE",
"535 141 CURVE SMOOTH",
"533 110 OFFCURVE",
"532 79 OFFCURVE",
"532 49 CURVE",
"499 56 OFFCURVE",
"466 62 OFFCURVE",
"432 62 CURVE SMOOTH",
"415 62 OFFCURVE",
"390 59 OFFCURVE",
"390 37 CURVE SMOOTH",
"390 20 OFFCURVE",
"413 -24 OFFCURVE",
"432 -24 CURVE SMOOTH",
"434 -24 OFFCURVE",
"435 -23 OFFCURVE",
"435 -21 CURVE SMOOTH",
"435 -12 OFFCURVE",
"420 3 OFFCURVE",
"420 19 CURVE SMOOTH",
"420 34 OFFCURVE",
"435 36 OFFCURVE",
"446 36 CURVE SMOOTH",
"475 36 OFFCURVE",
"506 28 OFFCURVE",
"533 20 CURVE",
"533 10 OFFCURVE",
"537 -58 OFFCURVE",
"555 -58 CURVE SMOOTH",
"563 -58 OFFCURVE",
"565 -46 OFFCURVE",
"565 -40 CURVE SMOOTH",
"565 -29 OFFCURVE",
"564 -18 OFFCURVE",
"564 -6 CURVE SMOOTH",
"564 10 LINE",
"676 -26 OFFCURVE",
"787 -69 OFFCURVE",
"907 -69 CURVE SMOOTH",
"1011 -69 OFFCURVE",
"1059 -18 OFFCURVE",
"1080 80 CURVE SMOOTH",
"1085 100 OFFCURVE",
"1090 122 OFFCURVE",
"1090 143 CURVE SMOOTH"
);
},
{
closed = 1;
nodes = (
"603 605 OFFCURVE",
"595 584 OFFCURVE",
"595 570 CURVE SMOOTH",
"595 564 OFFCURVE",
"598 557 OFFCURVE",
"601 553 CURVE",
"573 481 OFFCURVE",
"559 365 OFFCURVE",
"552 289 CURVE",
"503 294 OFFCURVE",
"453 293 OFFCURVE",
"405 293 CURVE SMOOTH",
"359 293 OFFCURVE",
"314 293 OFFCURVE",
"268 292 CURVE",
"355 408 OFFCURVE",
"495 526 OFFCURVE",
"606 619 CURVE"
);
},
{
closed = 1;
nodes = (
"166 203 OFFCURVE",
"119 147 OFFCURVE",
"76 89 CURVE",
"49 108 OFFCURVE",
"16 141 OFFCURVE",
"16 177 CURVE SMOOTH",
"16 241 OFFCURVE",
"147 261 OFFCURVE",
"194 261 CURVE SMOOTH",
"200 261 OFFCURVE",
"206 261 OFFCURVE",
"212 260 CURVE"
);
}
);
width = 1101;
}
);
note = AE;
},
{
color = 0;
glyphname = B.ss01;
lastChange = "2021-09-02 04:57:51 +0000";
layers = (
{
hints = (
{
horizontal = 1;
place = "{-135, 20}";
type = Stem;
},
{
horizontal = 1;
place = "{143, 18}";
type = Stem;
},
{
horizontal = 1;
place = "{715, -20}";
target = down;
type = TopGhost;
},
{
place = "{97, 45}";
type = Stem;
},
{
place = "{738, 60}";
type = Stem;
},
{
place = "{805, 48}";
type = Stem;
}
);
layerId = "22FBF237-8195-4580-A019-F135C28A8A87";
paths = (
{
closed = 1;
nodes = (
"853 656 OFFCURVE",
"660 679 OFFCURVE",
"575 683 CURVE",
"578 688 OFFCURVE",
"587 698 OFFCURVE",
"587 704 CURVE SMOOTH",
"587 714 OFFCURVE",
"574 715 OFFCURVE",
"567 715 CURVE SMOOTH",
"545 715 OFFCURVE",
"525 708 OFFCURVE",
"509 693 CURVE",
"505 683 LINE",
"372 677 OFFCURVE",
"176 635 OFFCURVE",
"108 506 CURVE SMOOTH",
"93 477 OFFCURVE",
"83 444 OFFCURVE",
"83 411 CURVE SMOOTH",
"83 349 OFFCURVE",
"108 319 OFFCURVE",
"167 301 CURVE",
"169 301 OFFCURVE",
"174 302 OFFCURVE",
"176 304 CURVE",
"173 306 OFFCURVE",
"170 309 OFFCURVE",
"170 313 CURVE SMOOTH",
"170 325 OFFCURVE",
"203 323 OFFCURVE",
"203 338 CURVE SMOOTH",
"203 340 OFFCURVE",
"202 340 OFFCURVE",
"201 340 CURVE SMOOTH",
"198 340 OFFCURVE",
"195 338 OFFCURVE",
"193 336 CURVE SMOOTH",
"183 329 OFFCURVE",
"166 327 OFFCURVE",
"154 327 CURVE SMOOTH",
"124 327 OFFCURVE",
"112 372 OFFCURVE",
"112 395 CURVE SMOOTH",
"112 429 OFFCURVE",
"125 462 OFFCURVE",
"143 491 CURVE SMOOTH",
"216 611 OFFCURVE",
"359 656 OFFCURVE",
"492 658 CURVE",
"486 646 OFFCURVE",
"461 606 OFFCURVE",
"461 594 CURVE SMOOTH",
"461 590 OFFCURVE",
"462 587 OFFCURVE",
"463 583 CURVE",
"391 444 OFFCURVE",
"330 300 OFFCURVE",
"283 151 CURVE",
"223 138 OFFCURVE",
"97 99 OFFCURVE",
"97 21 CURVE SMOOTH",
"97 -49 OFFCURVE",
"188 -63 OFFCURVE",
"241 -66 CURVE",
"244 -97 OFFCURVE",
"262 -135 OFFCURVE",
"298 -135 CURVE SMOOTH",
"302 -135 OFFCURVE",
"306 -135 OFFCURVE",
"310 -134 CURVE",
"312 -131 OFFCURVE",
"313 -128 OFFCURVE",
"313 -124 CURVE SMOOTH",
"313 -122 LINE",
"318 -114 OFFCURVE",
"332 -102 OFFCURVE",
"333 -95 CURVE",
"332 -94 LINE",
"327 -94 OFFCURVE",
"317 -115 OFFCURVE",
"296 -115 CURVE SMOOTH",
"271 -115 OFFCURVE",
"267 -86 OFFCURVE",
"266 -67 CURVE",
"418 -69 OFFCURVE",
"658 -4 OFFCURVE",
"760 116 CURVE SMOOTH",
"781 141 OFFCURVE",
"798 171 OFFCURVE",
"798 204 CURVE SMOOTH",
"798 291 OFFCURVE",
"667 327 OFFCURVE",
"598 332 CURVE",
"665 344 OFFCURVE",
"730 369 OFFCURVE",
"783 413 CURVE SMOOTH",
"820 444 OFFCURVE",
"853 485 OFFCURVE",
"853 536 CURVE SMOOTH"
);
},
{
closed = 1;
nodes = (
"805 463 OFFCURVE",
"768 427 OFFCURVE",
"730 401 CURVE SMOOTH",
"671 362 OFFCURVE",
"599 345 OFFCURVE",
"529 340 CURVE SMOOTH",
"509 338 OFFCURVE",
"486 339 OFFCURVE",
"466 335 CURVE SMOOTH",
"452 332 OFFCURVE",
"436 327 OFFCURVE",
"436 310 CURVE SMOOTH",
"436 293 OFFCURVE",
"452 290 OFFCURVE",
"466 290 CURVE SMOOTH",
"491 290 OFFCURVE",
"555 301 OFFCURVE",
"573 318 CURVE",
"633 312 OFFCURVE",
"738 275 OFFCURVE",
"738 202 CURVE SMOOTH",
"738 142 OFFCURVE",
"681 93 OFFCURVE",
"636 62 CURVE SMOOTH",
"542 -4 OFFCURVE",
"387 -49 OFFCURVE",
"273 -48 CURVE SMOOTH",
"267 -48 LINE",
"271 10 OFFCURVE",
"296 86 OFFCURVE",
"316 140 CURVE",
"328 142 OFFCURVE",
"341 143 OFFCURVE",
"353 143 CURVE SMOOTH",
"384 143 OFFCURVE",
"416 138 OFFCURVE",
"446 128 CURVE SMOOTH",
"456 125 OFFCURVE",
"486 116 OFFCURVE",
"490 104 CURVE",
"490 101 OFFCURVE",
"491 93 OFFCURVE",
"496 93 CURVE SMOOTH",
"502 93 OFFCURVE",
"502 103 OFFCURVE",
"502 107 CURVE SMOOTH",
"502 114 LINE",
"495 151 OFFCURVE",
"396 161 OFFCURVE",
"366 161 CURVE SMOOTH",
"352 161 OFFCURVE",
"337 160 OFFCURVE",
"323 159 CURVE",
"388 331 OFFCURVE",
"468 496 OFFCURVE",
"559 656 CURVE",
"637 649 OFFCURVE",
"805 614 OFFCURVE",
"805 512 CURVE SMOOTH"
);
},
{
closed = 1;
nodes = (
"260 78 OFFCURVE",
"241 9 OFFCURVE",
"241 -46 CURVE",
"206 -43 OFFCURVE",
"142 -34 OFFCURVE",
"142 13 CURVE SMOOTH",
"142 76 OFFCURVE",
"225 115 OFFCURVE",
"276 130 CURVE"
);
}
);
width = 842;
}
);
note = B;
},
{
color = 0;
glyphname = C.ss01;
lastChange = "2021-09-02 04:57:51 +0000";
layers = (
{
anchors = (
{
name = bottom;
position = "{334, -64}";
},
{
name = top;
position = "{631, 764}";
}
);
hints = (
{
horizontal = 1;
place = "{-71, 21}";
type = Stem;
},
{
horizontal = 1;
place = "{671, 25}";
type = Stem;
},
{
place = "{48, 52}";
type = Stem;
},
{
place = "{747, 21}";
type = Stem;
}
);
layerId = "22FBF237-8195-4580-A019-F135C28A8A87";
paths = (
{
closed = 1;
nodes = (
"840 155 OFFCURVE",
"839 156 OFFCURVE",
"838 156 CURVE SMOOTH",
"833 156 OFFCURVE",
"827 150 OFFCURVE",
"824 147 CURVE SMOOTH",
"764 91 OFFCURVE",
"706 49 OFFCURVE",
"632 13 CURVE SMOOTH",
"553 -25 OFFCURVE",
"467 -50 OFFCURVE",
"378 -50 CURVE SMOOTH",
"216 -50 OFFCURVE",
"100 34 OFFCURVE",
"100 204 CURVE SMOOTH",
"100 329 OFFCURVE",
"148 436 OFFCURVE",
"236 525 CURVE SMOOTH",
"324 614 OFFCURVE",
"440 671 OFFCURVE",
"567 671 CURVE SMOOTH",
"627 671 OFFCURVE",
"678 651 OFFCURVE",
"716 605 CURVE",
"698 564 OFFCURVE",
"628 411 OFFCURVE",
"628 381 CURVE SMOOTH",
"628 369 OFFCURVE",
"646 366 OFFCURVE",
"655 366 CURVE SMOOTH",
"664 366 OFFCURVE",
"670 369 OFFCURVE",
"675 376 CURVE SMOOTH",
"679 382 OFFCURVE",
"682 391 OFFCURVE",
"684 398 CURVE",
"709 457 OFFCURVE",
"728 519 OFFCURVE",
"745 581 CURVE",
"753 573 OFFCURVE",
"757 548 OFFCURVE",
"771 548 CURVE SMOOTH",
"777 548 OFFCURVE",
"777 566 OFFCURVE",
"777 568 CURVE SMOOTH",
"777 586 OFFCURVE",
"765 604 OFFCURVE",
"754 617 CURVE",
"759 639 OFFCURVE",
"768 671 OFFCURVE",
"768 693 CURVE SMOOTH",
"768 701 OFFCURVE",
"767 720 OFFCURVE",
"756 720 CURVE SMOOTH",
"749 720 OFFCURVE",
"744 717 OFFCURVE",
"744 709 CURVE SMOOTH",
"744 703 OFFCURVE",
"747 697 OFFCURVE",
"747 691 CURVE SMOOTH",
"747 674 OFFCURVE",
"738 656 OFFCURVE",
"730 642 CURVE",
"697 678 OFFCURVE",
"617 696 OFFCURVE",
"570 696 CURVE SMOOTH",
"436 696 OFFCURVE",
"309 630 OFFCURVE",
"212 542 CURVE SMOOTH",
"114 453 OFFCURVE",
"48 344 OFFCURVE",
"48 209 CURVE SMOOTH",
"48 36 OFFCURVE",
"173 -62 OFFCURVE",
"338 -70 CURVE SMOOTH",
"349 -71 OFFCURVE",
"360 -71 OFFCURVE",
"371 -71 CURVE SMOOTH",
"516 -71 OFFCURVE",
"659 -25 OFFCURVE",
"774 64 CURVE SMOOTH",
"778 67 OFFCURVE",
"813 93 OFFCURVE",
"813 99 CURVE SMOOTH",
"813 102 OFFCURVE",
"806 101 OFFCURVE",
"806 105 CURVE SMOOTH",
"806 118 OFFCURVE",
"840 142 OFFCURVE",
"840 154 CURVE SMOOTH"
);
}
);
width = 829;
}
);
note = C;
},
{
color = 11;
glyphname = Ccedilla.ss01;
lastChange = "2021-09-02 04:57:51 +0000";
layers = (
{
hints = (
{
horizontal = 1;
place = "{-13, 24}";
type = Stem;
},
{
horizontal = 1;
place = "{611, 16}";
type = Stem;
},
{
place = "{63, 51}";
type = Stem;
}
);
layerId = "22FBF237-8195-4580-A019-F135C28A8A87";
paths = (
{
closed = 1;
nodes = (
"806 117 OFFCURVE",
"840 143 OFFCURVE",
"840 154 CURVE SMOOTH",
"840 155 OFFCURVE",
"839 156 OFFCURVE",
"838 156 CURVE SMOOTH",
"834 156 OFFCURVE",
"826 149 OFFCURVE",
"824 146 CURVE",
"706 35 OFFCURVE",
"543 -50 OFFCURVE",
"378 -50 CURVE SMOOTH",
"216 -50 OFFCURVE",
"100 34 OFFCURVE",
"100 204 CURVE SMOOTH",
"100 215 OFFCURVE",
"100 225 OFFCURVE",
"101 236 CURVE SMOOTH",
"126 475 OFFCURVE",
"316 654 OFFCURVE",
"554 671 CURVE",
"559 672 OFFCURVE",
"564 672 OFFCURVE",
"569 672 CURVE SMOOTH",
"628 672 OFFCURVE",
"678 651 OFFCURVE",
"716 605 CURVE",
"700 559 OFFCURVE",
"628 415 OFFCURVE",
"628 380 CURVE SMOOTH",
"628 370 OFFCURVE",
"647 366 OFFCURVE",
"655 366 CURVE SMOOTH",
"664 366 OFFCURVE",
"670 369 OFFCURVE",
"675 376 CURVE SMOOTH",
"678 381 OFFCURVE",
"681 390 OFFCURVE",
"683 395 CURVE SMOOTH",
"708 456 OFFCURVE",
"729 518 OFFCURVE",
"745 581 CURVE",
"754 573 OFFCURVE",
"761 564 OFFCURVE",
"767 553 CURVE SMOOTH",
"768 551 OFFCURVE",
"769 548 OFFCURVE",
"771 548 CURVE SMOOTH",
"776 548 OFFCURVE",
"777 565 OFFCURVE",
"777 568 CURVE SMOOTH",
"777 586 OFFCURVE",
"766 603 OFFCURVE",
"754 617 CURVE",
"761 644 OFFCURVE",
"768 674 OFFCURVE",
"768 702 CURVE SMOOTH",
"768 708 OFFCURVE",
"763 720 OFFCURVE",
"756 720 CURVE SMOOTH",
"749 720 OFFCURVE",
"745 711 OFFCURVE",
"745 705 CURVE SMOOTH",
"745 702 OFFCURVE",
"746 698 OFFCURVE",
"746 695 CURVE SMOOTH",
"746 681 OFFCURVE",
"737 655 OFFCURVE",
"730 642 CURVE",
"695 679 OFFCURVE",
"618 696 OFFCURVE",
"570 696 CURVE SMOOTH",
"557 696 LINE",
"318 678 OFFCURVE",
"75 485 OFFCURVE",
"49 238 CURVE SMOOTH",
"48 228 OFFCURVE",
"48 218 OFFCURVE",
"48 209 CURVE SMOOTH",
"48 63 OFFCURVE",
"142 -39 OFFCURVE",
"283 -64 CURVE",
"248 -74 OFFCURVE",
"223 -117 OFFCURVE",
"223 -152 CURVE SMOOTH",
"223 -189 OFFCURVE",
"268 -224 OFFCURVE",
"267 -253 CURVE SMOOTH",
"267 -256 LINE SMOOTH",
"263 -335 OFFCURVE",
"208 -308 OFFCURVE",
"154 -325 CURVE SMOOTH",
"150 -326 OFFCURVE",
"144 -328 OFFCURVE",
"144 -333 CURVE SMOOTH",
"144 -338 OFFCURVE",
"146 -343 OFFCURVE",
"152 -343 CURVE SMOOTH",
"211 -343 OFFCURVE",
"310 -312 OFFCURVE",
"310 -239 CURVE SMOOTH",
"310 -193 OFFCURVE",
"261 -161 OFFCURVE",
"261 -133 CURVE SMOOTH",
"261 -105 OFFCURVE",
"283 -74 OFFCURVE",
"312 -69 CURVE",
"312 -68 LINE",
"330 -70 OFFCURVE",
"348 -71 OFFCURVE",
"367 -71 CURVE SMOOTH",
"492 -71 OFFCURVE",
"625 -33 OFFCURVE",
"732 33 CURVE SMOOTH",
"745 41 OFFCURVE",
"807 87 OFFCURVE",
"812 97 CURVE",
"813 97 OFFCURVE",
"813 98 OFFCURVE",
"813 99 CURVE SMOOTH",
"813 102 OFFCURVE",
"806 101 OFFCURVE",
"806 105 CURVE SMOOTH"
);
}
);
width = 829;
}
);
note = Ccedilla;
},
{
color = 0;
glyphname = D.ss01;
lastChange = "2021-09-02 04:57:51 +0000";
layers = (
{
anchors = (
{
name = bottom;
position = "{277, -157}";
},
{
name = center;
position = "{459, 364}";
},
{
name = top;
position = "{635, 716}";
}
);
hints = (
{
horizontal = 1;
place = "{-133, 19}";
type = Stem;
},
{
horizontal = 1;
place = "{-42, 24}";
type = Stem;
},
{
horizontal = 1;
place = "{716, -20}";
target = down;
type = TopGhost;
},
{
place = "{69, 47}";
type = Stem;
},
{
place = "{873, 55}";
type = Stem;
}
);
layerId = "22FBF237-8195-4580-A019-F135C28A8A87";
paths = (
{
closed = 1;
nodes = (
"928 444 OFFCURVE",
"884 515 OFFCURVE",
"818 572 CURVE SMOOTH",
"739 640 OFFCURVE",
"642 673 OFFCURVE",
"539 683 CURVE",
"542 688 OFFCURVE",
"551 701 OFFCURVE",
"551 706 CURVE SMOOTH",
"551 715 OFFCURVE",
"538 716 OFFCURVE",
"531 716 CURVE SMOOTH",
"509 716 OFFCURVE",
"489 709 OFFCURVE",
"473 694 CURVE",
"470 686 LINE",
"329 685 OFFCURVE",
"144 642 OFFCURVE",
"72 507 CURVE SMOOTH",
"56 478 OFFCURVE",
"47 445 OFFCURVE",
"47 412 CURVE SMOOTH",
"47 350 OFFCURVE",
"72 320 OFFCURVE",
"131 302 CURVE",
"133 302 OFFCURVE",
"138 303 OFFCURVE",
"140 305 CURVE",
"137 307 OFFCURVE",
"134 310 OFFCURVE",
"134 314 CURVE SMOOTH",
"134 322 OFFCURVE",
"157 329 OFFCURVE",
"163 331 CURVE",
"165 333 OFFCURVE",
"167 336 OFFCURVE",
"167 339 CURVE SMOOTH",
"167 340 OFFCURVE",
"166 341 OFFCURVE",
"165 341 CURVE SMOOTH",
"162 341 OFFCURVE",
"159 339 OFFCURVE",
"157 337 CURVE",
"147 331 OFFCURVE",
"132 328 OFFCURVE",
"120 328 CURVE SMOOTH",
"89 328 OFFCURVE",
"77 371 OFFCURVE",
"77 396 CURVE SMOOTH",
"77 430 OFFCURVE",
"89 463 OFFCURVE",
"107 492 CURVE SMOOTH",
"183 616 OFFCURVE",
"301 662 OFFCURVE",
"442 662 CURVE SMOOTH",
"458 662 LINE",
"452 650 OFFCURVE",
"425 607 OFFCURVE",
"425 595 CURVE SMOOTH",
"425 591 OFFCURVE",
"426 588 OFFCURVE",
"427 584 CURVE",
"388 508 OFFCURVE",
"353 428 OFFCURVE",
"320 349 CURVE SMOOTH",
"275 241 OFFCURVE",
"228 124 OFFCURVE",
"210 8 CURVE",
"162 27 OFFCURVE",
"116 51 OFFCURVE",
"116 110 CURVE SMOOTH",
"116 171 OFFCURVE",
"159 191 OFFCURVE",
"204 224 CURVE",
"203 224 LINE",
"204 226 OFFCURVE",
"206 228 OFFCURVE",
"206 230 CURVE SMOOTH",
"206 232 OFFCURVE",
"204 233 OFFCURVE",
"203 233 CURVE SMOOTH",
"195 233 OFFCURVE",
"180 225 OFFCURVE",
"173 221 CURVE SMOOTH",
"125 197 OFFCURVE",
"69 157 OFFCURVE",
"69 97 CURVE SMOOTH",
"69 20 OFFCURVE",
"142 -11 OFFCURVE",
"206 -26 CURVE",
"204 -53 OFFCURVE",
"204 -91 OFFCURVE",
"224 -113 CURVE SMOOTH",
"234 -125 OFFCURVE",
"247 -133 OFFCURVE",
"263 -133 CURVE SMOOTH",
"267 -133 OFFCURVE",
"271 -133 OFFCURVE",
"274 -132 CURVE",
"276 -129 OFFCURVE",
"277 -126 OFFCURVE",
"277 -123 CURVE SMOOTH",
"277 -121 LINE",
"282 -113 OFFCURVE",
"296 -101 OFFCURVE",
"297 -94 CURVE",
"296 -93 LINE",
"291 -93 OFFCURVE",
"281 -114 OFFCURVE",
"261 -114 CURVE SMOOTH",
"234 -114 OFFCURVE",
"230 -83 OFFCURVE",
"230 -62 CURVE SMOOTH",
"230 -52 OFFCURVE",
"231 -42 OFFCURVE",
"232 -32 CURVE",
"267 -39 OFFCURVE",
"303 -42 OFFCURVE",
"339 -42 CURVE SMOOTH",
"471 -42 OFFCURVE",
"597 -9 OFFCURVE",
"711 57 CURVE SMOOTH",
"823 121 OFFCURVE",
"928 216 OFFCURVE",
"928 355 CURVE SMOOTH"
);
},
{
closed = 1;
nodes = (
"873 214 OFFCURVE",
"789 134 OFFCURVE",
"697 77 CURVE SMOOTH",
"596 14 OFFCURVE",
"482 -18 OFFCURVE",
"363 -18 CURVE SMOOTH",
"321 -18 OFFCURVE",
"278 -13 OFFCURVE",
"237 -1 CURVE",
"261 113 OFFCURVE",
"314 232 OFFCURVE",
"362 338 CURVE SMOOTH",
"411 447 OFFCURVE",
"464 553 OFFCURVE",
"523 657 CURVE",
"616 642 OFFCURVE",
"700 603 OFFCURVE",
"770 539 CURVE SMOOTH",
"831 483 OFFCURVE",
"873 415 OFFCURVE",
"873 330 CURVE SMOOTH"
);
}
);
width = 918;
}
);
note = D;
},
{
color = 0;
glyphname = Eth.ss01;
lastChange = "2021-09-02 04:57:51 +0000";
layers = (
{
hints = (
{
horizontal = 1;
place = "{-133, 19}";
type = Stem;
},
{
horizontal = 1;
place = "{-42, 24}";
type = Stem;
},
{
horizontal = 1;
place = "{172, 26}";
type = Stem;
},
{
horizontal = 1;
place = "{716, -20}";
target = down;
type = TopGhost;
},
{
place = "{69, 47}";
type = Stem;
},
{
place = "{873, 55}";
type = Stem;
}
);
layerId = "22FBF237-8195-4580-A019-F135C28A8A87";
paths = (
{
closed = 1;
nodes = (
"928 444 OFFCURVE",
"884 515 OFFCURVE",
"818 572 CURVE SMOOTH",
"739 640 OFFCURVE",
"642 673 OFFCURVE",
"539 683 CURVE",
"542 688 OFFCURVE",
"551 701 OFFCURVE",
"551 706 CURVE SMOOTH",
"551 715 OFFCURVE",
"538 716 OFFCURVE",
"531 716 CURVE SMOOTH",
"509 716 OFFCURVE",
"489 709 OFFCURVE",
"473 694 CURVE",
"470 686 LINE",
"329 685 OFFCURVE",
"144 642 OFFCURVE",
"72 507 CURVE SMOOTH",
"56 478 OFFCURVE",
"47 445 OFFCURVE",
"47 412 CURVE SMOOTH",
"47 350 OFFCURVE",
"72 320 OFFCURVE",
"131 302 CURVE",
"133 302 OFFCURVE",
"138 303 OFFCURVE",
"140 305 CURVE",
"137 307 OFFCURVE",
"134 310 OFFCURVE",
"134 314 CURVE SMOOTH",
"134 322 OFFCURVE",
"157 329 OFFCURVE",
"163 331 CURVE",
"165 333 OFFCURVE",
"167 336 OFFCURVE",
"167 339 CURVE SMOOTH",
"167 340 OFFCURVE",
"166 341 OFFCURVE",
"165 341 CURVE SMOOTH",
"162 341 OFFCURVE",
"159 339 OFFCURVE",
"157 337 CURVE",
"147 331 OFFCURVE",
"132 328 OFFCURVE",
"120 328 CURVE SMOOTH",
"89 328 OFFCURVE",
"77 371 OFFCURVE",
"77 396 CURVE SMOOTH",
"77 430 OFFCURVE",
"89 463 OFFCURVE",
"107 492 CURVE SMOOTH",
"183 616 OFFCURVE",
"301 664 OFFCURVE",
"442 662 CURVE SMOOTH",
"458 662 LINE",
"452 650 OFFCURVE",
"425 607 OFFCURVE",
"425 595 CURVE SMOOTH",
"425 591 OFFCURVE",
"426 588 OFFCURVE",
"427 584 CURVE",
"388 508 OFFCURVE",
"353 428 OFFCURVE",
"320 349 CURVE SMOOTH",
"299 300 LINE",
"268 300 OFFCURVE",
"236 298 OFFCURVE",
"205 294 CURVE",
"203 292 LINE",
"204 285 OFFCURVE",
"216 271 OFFCURVE",
"223 269 CURVE",
"241 273 OFFCURVE",
"262 273 OFFCURVE",
"280 274 CURVE SMOOTH",
"289 274 LINE",
"255 188 OFFCURVE",
"224 98 OFFCURVE",
"210 8 CURVE",
"162 27 OFFCURVE",
"116 51 OFFCURVE",
"116 110 CURVE SMOOTH",
"116 171 OFFCURVE",
"159 191 OFFCURVE",
"204 224 CURVE",
"203 224 LINE",
"204 226 OFFCURVE",
"206 228 OFFCURVE",
"206 230 CURVE SMOOTH",
"206 232 OFFCURVE",
"204 233 OFFCURVE",
"203 233 CURVE SMOOTH",
"195 233 OFFCURVE",
"180 225 OFFCURVE",
"173 221 CURVE SMOOTH",
"125 197 OFFCURVE",
"69 157 OFFCURVE",
"69 97 CURVE SMOOTH",
"69 20 OFFCURVE",
"142 -11 OFFCURVE",
"206 -26 CURVE",
"204 -53 OFFCURVE",
"204 -91 OFFCURVE",
"224 -113 CURVE SMOOTH",
"234 -125 OFFCURVE",
"247 -133 OFFCURVE",
"263 -133 CURVE SMOOTH",
"267 -133 OFFCURVE",
"271 -133 OFFCURVE",
"274 -132 CURVE",
"276 -129 OFFCURVE",
"277 -126 OFFCURVE",
"277 -123 CURVE SMOOTH",
"277 -121 LINE",
"282 -113 OFFCURVE",
"296 -101 OFFCURVE",
"297 -94 CURVE",
"296 -93 LINE",
"291 -93 OFFCURVE",
"281 -114 OFFCURVE",
"261 -114 CURVE SMOOTH",
"234 -114 OFFCURVE",
"230 -83 OFFCURVE",
"230 -62 CURVE SMOOTH",
"230 -52 OFFCURVE",
"231 -42 OFFCURVE",
"232 -32 CURVE",
"267 -39 OFFCURVE",
"303 -42 OFFCURVE",
"339 -42 CURVE SMOOTH",
"471 -42 OFFCURVE",
"597 -9 OFFCURVE",
"711 57 CURVE SMOOTH",
"823 121 OFFCURVE",
"928 216 OFFCURVE",
"928 355 CURVE SMOOTH"
);
},
{
closed = 1;
nodes = (
"411 287 OFFCURVE",
"410 288 OFFCURVE",
"408 289 CURVE SMOOTH",
"394 295 OFFCURVE",
"368 297 OFFCURVE",
"344 299 CURVE",
"362 338 LINE SMOOTH",
"411 447 OFFCURVE",
"464 553 OFFCURVE",
"523 657 CURVE",
"616 642 OFFCURVE",
"700 603 OFFCURVE",
"770 539 CURVE SMOOTH",
"831 483 OFFCURVE",
"873 415 OFFCURVE",
"873 330 CURVE SMOOTH",
"873 214 OFFCURVE",
"789 134 OFFCURVE",
"697 77 CURVE SMOOTH",
"596 14 OFFCURVE",
"482 -18 OFFCURVE",
"363 -18 CURVE SMOOTH",
"321 -18 OFFCURVE",
"278 -13 OFFCURVE",
"237 -1 CURVE",
"256 92 OFFCURVE",
"295 188 OFFCURVE",
"335 278 CURVE",
"358 279 OFFCURVE",
"381 280 OFFCURVE",
"405 280 CURVE SMOOTH",
"408 280 OFFCURVE",
"411 281 OFFCURVE",
"411 285 CURVE SMOOTH"
);
}
);
width = 918;
}
);
note = Eth;
},
